<svg xmlns="http://www.w3.org/2000/svg" xmlns:xlink="http://www.w3.org/1999/xlink" viewBox="0 0 20.57 29.92"><defs><style>.cls-1{fill:url(#linear-gradient);}</style><linearGradient id="linear-gradient" x1="10.29" y1="4.96" x2="10.29" y2="26.56" gradientUnits="userSpaceOnUse"><stop offset="0" stop-color="#facf11"/><stop offset="1" stop-color="#cf982a"/></linearGradient></defs><title>location</title><g id="Layer_2" data-name="Layer 2"><g id="Layer_1-2" data-name="Layer 1"><path class="cls-1" d="M19.14,5.12A10.15,10.15,0,0,0,10.52,0h-.46A10.15,10.15,0,0,0,1.43,5.12a10.41,10.41,0,0,0-.14,10.29L8.71,29v0a1.8,1.8,0,0,0,3.13,0v0l7.42-13.58a10.41,10.41,0,0,0-.14-10.29Zm-8.86,8.43a4.21,4.21,0,1,1,4.21-4.21A4.21,4.21,0,0,1,10.29,13.56Z"/></g></g></svg>