<svg xmlns="http://www.w3.org/2000/svg" xmlns:xlink="http://www.w3.org/1999/xlink" viewBox="0 0 23.62 23.67"><defs><style>.cls-1{fill:url(#linear-gradient);}</style><linearGradient id="linear-gradient" x1="11.81" y1="1.84" x2="11.81" y2="23.43" gradientUnits="userSpaceOnUse"><stop offset="0" stop-color="#facf11"/><stop offset="1" stop-color="#cf982a"/></linearGradient></defs><title>phone</title><g id="Layer_2" data-name="Layer 2"><g id="Layer_1-2" data-name="Layer 1"><path class="cls-1" d="M23,17.37l-3.3-3.3a2.2,2.2,0,0,0-3.66.83,2.25,2.25,0,0,1-2.6,1.42c-2.36-.59-5.54-3.66-6.13-6.13a2.14,2.14,0,0,1,1.42-2.6,2.2,2.2,0,0,0,.83-3.66L6.25.62a2.36,2.36,0,0,0-3.18,0L.82,2.86C-1.42,5.22,1.06,11.47,6.6,17s11.8,8.14,14.15,5.78L23,20.55A2.36,2.36,0,0,0,23,17.37Z"/></g></g></svg>