<svg xmlns="http://www.w3.org/2000/svg" viewBox="0 0 303.21 315.91"><defs><style>.cls-1{fill:#e2e2e2;}.cls-2{fill:#ffcd27;}</style></defs><title>dot round</title><g id="Layer_2" data-name="Layer 2"><g id="Layer_1-2" data-name="Layer 1"><path class="cls-1" d="M125.38,307.53a4,4,0,0,1-3.25-4.63h0a4,4,0,0,1,4.63-3.25h0a4,4,0,0,1,3.25,4.63h0a4,4,0,0,1-3.93,3.31h0A4.23,4.23,0,0,1,125.38,307.53Z"/><path class="cls-1" d="M173.38,304.26a4,4,0,0,1,3.25-4.63h0a4,4,0,0,1,4.63,3.25h0a4,4,0,0,1-3.25,4.63h0a4.12,4.12,0,0,1-.7.06h0A4,4,0,0,1,173.38,304.26Z"/><path class="cls-1" d="M99.85,300.73a4,4,0,0,1-2.39-5.13h0a4,4,0,0,1,5.12-2.39h0a4,4,0,0,1,2.4,5.12h0a4,4,0,0,1-3.76,2.64h0A4.07,4.07,0,0,1,99.85,300.73Z"/><path class="cls-1" d="M198.41,298.27a4,4,0,0,1,2.38-5.13h0a4,4,0,0,1,5.13,2.39h0a4,4,0,0,1-2.39,5.13h0a4.07,4.07,0,0,1-1.37.24h0A4,4,0,0,1,198.41,298.27Z"/><path class="cls-1" d="M75.9,289.56a4,4,0,0,1-1.47-5.46h0a4,4,0,0,1,5.47-1.47h0a4,4,0,0,1,1.46,5.47h0a4,4,0,0,1-3.47,2h0A3.9,3.9,0,0,1,75.9,289.56Z"/><path class="cls-1" d="M222,288a4,4,0,0,1,1.45-5.47h0a4,4,0,0,1,5.47,1.46h0a4,4,0,0,1-1.46,5.47h0a3.94,3.94,0,0,1-2,.54h0A4,4,0,0,1,222,288Z"/><path class="cls-1" d="M54.25,274.41a4,4,0,0,1-.49-5.64h0a4,4,0,0,1,5.63-.49h0a4,4,0,0,1,.5,5.63h0a4,4,0,0,1-3.07,1.43h0A4,4,0,0,1,54.25,274.41Z"/><path class="cls-1" d="M243.45,273.81a4,4,0,0,1,.49-5.63h0a4,4,0,0,1,5.63.48h0a4,4,0,0,1-.49,5.64h0a4,4,0,0,1-2.57.94h0A4,4,0,0,1,243.45,273.81Z"/><path class="cls-1" d="M35.56,255.75a4,4,0,0,1,.48-5.63h0a4,4,0,0,1,5.64.48h0a4,4,0,0,1-.49,5.64h0a4,4,0,0,1-2.57.94h0A4,4,0,0,1,35.56,255.75Z"/><path class="cls-1" d="M262.13,256.11a4,4,0,0,1-.5-5.64h0a4,4,0,0,1,5.64-.49h0a4,4,0,0,1,.49,5.64h0a4,4,0,0,1-3.07,1.42h0A3.94,3.94,0,0,1,262.13,256.11Z"/><path class="cls-1" d="M9.17,210.21a4,4,0,0,1,2.38-5.13h0a4,4,0,0,1,5.13,2.38h0a4,4,0,0,1-2.38,5.13h0a3.94,3.94,0,0,1-1.38.25h0A4,4,0,0,1,9.17,210.21Z"/><path class="cls-1" d="M289,212.42a4,4,0,0,1-2.39-5.12h0a4,4,0,0,1,5.13-2.39h0a4,4,0,0,1,2.39,5.12h0a4,4,0,0,1-3.76,2.63h0A3.88,3.88,0,0,1,289,212.42Z"/><path class="cls-1" d="M2.31,184.69a4,4,0,0,1,3.25-4.63h0a4,4,0,0,1,4.63,3.24h0A4,4,0,0,1,7,187.93H7a3.41,3.41,0,0,1-.7.07h0A4,4,0,0,1,2.31,184.69Z"/><path class="cls-1" d="M296.3,187.75a4,4,0,0,1-3.25-4.63h0a4,4,0,0,1,4.63-3.26h0a4,4,0,0,1,3.25,4.63h0a4,4,0,0,1-3.94,3.32h0A3.22,3.22,0,0,1,296.3,187.75Z"/><path class="cls-1" d="M0,158.38a4,4,0,0,1,4-4H4a4,4,0,0,1,4,4H8a4,4,0,0,1-4,4H4A4,4,0,0,1,0,158.38Z"/><path class="cls-1" d="M295.21,158.19V158h0v-.19h0a4,4,0,0,1,4-4h0a4,4,0,0,1,4,4h0c0,.06,0,.13,0,.19h0c0,.06,0,.12,0,.18h0a4,4,0,0,1-4,4h0A4,4,0,0,1,295.21,158.19Z"/><path class="cls-1" d="M5.5,136.69a4,4,0,0,1-3.25-4.63h0a4,4,0,0,1,4.62-3.25h0a4,4,0,0,1,3.26,4.62h0a4,4,0,0,1-3.94,3.32h0A4.2,4.2,0,0,1,5.5,136.69Z"/><path class="cls-1" d="M293,132.91a4,4,0,0,1,3.23-4.64h0a4,4,0,0,1,4.64,3.24h0a4,4,0,0,1-3.23,4.63h0a3.5,3.5,0,0,1-.71.07h0A4,4,0,0,1,293,132.91Z"/><path class="cls-1" d="M11.44,111.65A4,4,0,0,1,9,106.54H9a4,4,0,0,1,5.12-2.39h0a4,4,0,0,1,2.4,5.12h0a4,4,0,0,1-3.76,2.64h0A4,4,0,0,1,11.44,111.65Z"/><path class="cls-1" d="M286.47,108.75h0a4,4,0,0,1,2.38-5.13h0A4,4,0,0,1,294,106h0a4,4,0,0,1-2.38,5.13h0a3.88,3.88,0,0,1-1.38.24h0A4,4,0,0,1,286.47,108.75Z"/><path class="cls-1" d="M35.83,66.54a4,4,0,0,1-.5-5.63h0a4,4,0,0,1,5.64-.5h0a4,4,0,0,1,.49,5.64h0a4,4,0,0,1-3.07,1.43h0A4,4,0,0,1,35.83,66.54Z"/><path class="cls-1" d="M261.42,65.66A4,4,0,0,1,261.9,60h0a4,4,0,0,1,5.64.48h0a4,4,0,0,1-.48,5.63h0a4,4,0,0,1-2.58,1h0A4,4,0,0,1,261.42,65.66Z"/><path class="cls-1" d="M53.5,47.84A4,4,0,0,1,54,42.2h0a4,4,0,0,1,5.64.48h0a4,4,0,0,1-.48,5.64h0a4,4,0,0,1-2.58.94h0A4,4,0,0,1,53.5,47.84Z"/><path class="cls-1" d="M243.68,48a4,4,0,0,1-.5-5.63h0a4,4,0,0,1,5.64-.5h0a4,4,0,0,1,.5,5.63h0a4,4,0,0,1-3.07,1.43h0A4,4,0,0,1,243.68,48Z"/><path class="cls-1" d="M74.14,32.47A4,4,0,0,1,75.59,27h0A4,4,0,0,1,81,28.45h0a4,4,0,0,1-1.45,5.47h0a4,4,0,0,1-2,.54h0A4,4,0,0,1,74.14,32.47Z"/><path class="cls-1" d="M223.16,33.66a4,4,0,0,1-1.47-5.46h0a4,4,0,0,1,5.46-1.47h0a4,4,0,0,1,1.47,5.46h0a4,4,0,0,1-3.47,2h0A4,4,0,0,1,223.16,33.66Z"/><path class="cls-1" d="M97.12,20.91a4,4,0,0,1,2.38-5.13h0a4,4,0,0,1,5.13,2.38h0a4,4,0,0,1-2.38,5.13h0a4,4,0,0,1-1.38.25h0A4,4,0,0,1,97.12,20.91Z"/><path class="cls-1" d="M200.46,23.11h0a4,4,0,0,1-2.4-5.12h0a4,4,0,0,1,5.12-2.4h0a4,4,0,0,1,2.4,5.12h0a4,4,0,0,1-3.76,2.64h0A4.06,4.06,0,0,1,200.46,23.11Z"/><path class="cls-1" d="M121.77,13.56A4,4,0,0,1,125,8.91h0a4,4,0,0,1,4.64,3.25h0a4,4,0,0,1-3.24,4.63h0a4.23,4.23,0,0,1-.7.06h0A4,4,0,0,1,121.77,13.56Z"/><path class="cls-1" d="M176.28,16.7A4,4,0,0,1,173,12.08h0a4,4,0,0,1,4.62-3.26h0a4,4,0,0,1,3.26,4.62h0A4,4,0,0,1,177,16.77h0A4,4,0,0,1,176.28,16.7Z"/><path class="cls-2" d="M151.61,21.19A10.59,10.59,0,1,1,162.2,10.59,10.61,10.61,0,0,1,151.61,21.19Zm0-18.19a7.59,7.59,0,1,0,7.59,7.59A7.6,7.6,0,0,0,151.61,3Z"/><path class="cls-2" d="M279.47,94.7A10.59,10.59,0,1,1,290.06,84.1,10.61,10.61,0,0,1,279.47,94.7Zm0-18.19a7.59,7.59,0,1,0,7.59,7.59A7.6,7.6,0,0,0,279.47,76.51Z"/><path class="cls-2" d="M151.61,315.91a10.59,10.59,0,1,1,10.59-10.59A10.61,10.61,0,0,1,151.61,315.91Zm0-18.19a7.59,7.59,0,1,0,7.59,7.59A7.6,7.6,0,0,0,151.61,297.72Z"/><path class="cls-2" d="M279.29,242.72a10.59,10.59,0,1,1,10.59-10.6A10.61,10.61,0,0,1,279.29,242.72Zm0-18.19a7.59,7.59,0,1,0,7.59,7.59A7.6,7.6,0,0,0,279.29,224.53Z"/><path class="cls-2" d="M23.65,242.72a10.59,10.59,0,1,1,10.59-10.6A10.61,10.61,0,0,1,23.65,242.72Zm0-18.19a7.59,7.59,0,1,0,7.59,7.59A7.6,7.6,0,0,0,23.65,224.53Z"/><path class="cls-2" d="M23.65,94.7A10.59,10.59,0,1,1,34.25,84.1,10.61,10.61,0,0,1,23.65,94.7Zm0-18.19a7.59,7.59,0,1,0,7.59,7.59A7.6,7.6,0,0,0,23.65,76.51Z"/></g></g></svg>