<svg xmlns="http://www.w3.org/2000/svg" xmlns:xlink="http://www.w3.org/1999/xlink" viewBox="0 0 51.35 51.35"><defs><style>.cls-1{opacity:0.52;fill:url(#linear-gradient);}.cls-2{fill:#282828;}.cls-3{fill:url(#linear-gradient-2);}</style><linearGradient id="linear-gradient" x1="25.68" y1="41.43" x2="25.68" y2="0.9" gradientUnits="userSpaceOnUse"><stop offset="0" stop-color="#b67b2b" stop-opacity="0"/><stop offset="0.03" stop-color="#b67b2b" stop-opacity="0.06"/><stop offset="0.21" stop-color="#b67b2b" stop-opacity="0.34"/><stop offset="0.39" stop-color="#b67b2b" stop-opacity="0.58"/><stop offset="0.56" stop-color="#b67b2b" stop-opacity="0.76"/><stop offset="0.72" stop-color="#b67b2b" stop-opacity="0.89"/><stop offset="0.87" stop-color="#b67b2b" stop-opacity="0.97"/><stop offset="1" stop-color="#b67b2b"/></linearGradient><linearGradient id="linear-gradient-2" x1="25.66" y1="14.93" x2="25.66" y2="36.44" gradientUnits="userSpaceOnUse"><stop offset="0" stop-color="#facf11"/><stop offset="1" stop-color="#cf982a"/></linearGradient></defs><title>facebook</title><g id="Layer_2" data-name="Layer 2"><g id="Layer_1-2" data-name="Layer 1"><circle class="cls-1" cx="25.68" cy="25.68" r="25.68"/><circle class="cls-2" cx="25.68" cy="25.68" r="21.32"/><path class="cls-3" d="M22.86,25.27v10.4a.27.27,0,0,0,.27.27H27a.27.27,0,0,0,.27-.27V25.1h2.8a.27.27,0,0,0,.27-.25l.27-3.18a.27.27,0,0,0-.27-.29H27.26V19.11a1,1,0,0,1,1-1h2.16a.27.27,0,0,0,.27-.27V14.7a.27.27,0,0,0-.27-.27H26.73a3.87,3.87,0,0,0-3.87,3.87v3.07H20.93a.27.27,0,0,0-.27.27v3.18a.27.27,0,0,0,.27.27h1.93Z"/></g></g></svg>