<svg xmlns="http://www.w3.org/2000/svg" xmlns:xlink="http://www.w3.org/1999/xlink" viewBox="0 0 51.35 51.35"><defs><style>.cls-1{opacity:0.52;fill:url(#linear-gradient);}.cls-2{fill:#282828;}.cls-3{fill:url(#linear-gradient-2);}.cls-4{fill:url(#linear-gradient-3);}</style><linearGradient id="linear-gradient" x1="25.68" y1="41.43" x2="25.68" y2="0.9" gradientUnits="userSpaceOnUse"><stop offset="0" stop-color="#b67b2b" stop-opacity="0"/><stop offset="0.03" stop-color="#b67b2b" stop-opacity="0.06"/><stop offset="0.21" stop-color="#b67b2b" stop-opacity="0.34"/><stop offset="0.39" stop-color="#b67b2b" stop-opacity="0.58"/><stop offset="0.56" stop-color="#b67b2b" stop-opacity="0.76"/><stop offset="0.72" stop-color="#b67b2b" stop-opacity="0.89"/><stop offset="0.87" stop-color="#b67b2b" stop-opacity="0.97"/><stop offset="1" stop-color="#b67b2b"/></linearGradient><linearGradient id="linear-gradient-2" x1="25.61" y1="12.87" x2="25.61" y2="40.54" gradientUnits="userSpaceOnUse"><stop offset="0" stop-color="#facf11"/><stop offset="1" stop-color="#cf982a"/></linearGradient><linearGradient id="linear-gradient-3" x1="25.61" y1="12.87" x2="25.61" y2="40.54" xlink:href="#linear-gradient-2"/></defs><title>impressum</title><g id="Layer_2" data-name="Layer 2"><g id="Layer_1-2" data-name="Layer 1"><circle class="cls-1" cx="25.68" cy="25.68" r="25.68"/><circle class="cls-2" cx="25.68" cy="25.68" r="21.32"/><path class="cls-3" d="M25.61,40.11A14.13,14.13,0,1,1,39.75,26,14.15,14.15,0,0,1,25.61,40.11Zm0-25.65A11.52,11.52,0,1,0,37.13,26,11.53,11.53,0,0,0,25.61,14.45Z"/><path class="cls-4" d="M28.82,32l-.22.88q-1,.38-1.55.58a4.09,4.09,0,0,1-1.34.2,2.68,2.68,0,0,1-1.83-.57,1.86,1.86,0,0,1-.65-1.46,5.16,5.16,0,0,1,0-.7q0-.36.16-.81l.81-2.87q.11-.41.18-.78a3.39,3.39,0,0,0,.07-.67,1,1,0,0,0-.23-.77,1.28,1.28,0,0,0-.87-.22,2.27,2.27,0,0,0-.64.1l-.57.19.22-.88q.8-.32,1.52-.55a4.55,4.55,0,0,1,1.38-.23,2.62,2.62,0,0,1,1.8.56,1.87,1.87,0,0,1,.63,1.47c0,.12,0,.34,0,.66a4.4,4.4,0,0,1-.16.86l-.81,2.85a7.58,7.58,0,0,0-.18.79,4,4,0,0,0-.08.67,1,1,0,0,0,.25.78,1.43,1.43,0,0,0,.88.21,2.55,2.55,0,0,0,.67-.1A3.73,3.73,0,0,0,28.82,32Zm.2-12a1.67,1.67,0,0,1-.56,1.27,1.92,1.92,0,0,1-1.36.53,1.94,1.94,0,0,1-1.36-.53,1.71,1.71,0,0,1,0-2.55,2,2,0,0,1,2.72,0A1.69,1.69,0,0,1,29,20.05Z"/></g></g></svg>