<svg xmlns="http://www.w3.org/2000/svg" xmlns:xlink="http://www.w3.org/1999/xlink" viewBox="0 0 28.27 28.27"><defs><style>.cls-1{fill:url(#linear-gradient);}.cls-2{fill:url(#linear-gradient-2);}</style><linearGradient id="linear-gradient" x1="14.13" y1="1.03" x2="14.13" y2="28.7" gradientUnits="userSpaceOnUse"><stop offset="0" stop-color="#facf11"/><stop offset="1" stop-color="#cf982a"/></linearGradient><linearGradient id="linear-gradient-2" x1="14.13" y1="1.03" x2="14.13" y2="28.7" xlink:href="#linear-gradient"/></defs><title>impressum icon</title><g id="Layer_2" data-name="Layer 2"><g id="Layer_1-2" data-name="Layer 1"><path class="cls-1" d="M14.13,28.27A14.13,14.13,0,1,1,28.27,14.13,14.15,14.15,0,0,1,14.13,28.27Zm0-25.65A11.52,11.52,0,1,0,25.65,14.13,11.53,11.53,0,0,0,14.13,2.61Z"/><path class="cls-2" d="M17.34,20.19l-.22.88q-1,.38-1.55.58a4.09,4.09,0,0,1-1.34.2,2.68,2.68,0,0,1-1.83-.57,1.86,1.86,0,0,1-.65-1.46,5.16,5.16,0,0,1,0-.7q0-.36.16-.81l.81-2.87q.11-.41.18-.78A3.39,3.39,0,0,0,13,14a1,1,0,0,0-.23-.77,1.28,1.28,0,0,0-.87-.22,2.27,2.27,0,0,0-.64.1l-.57.19.22-.88q.8-.32,1.52-.55a4.55,4.55,0,0,1,1.38-.23,2.62,2.62,0,0,1,1.8.56,1.87,1.87,0,0,1,.63,1.47c0,.12,0,.34,0,.66a4.4,4.4,0,0,1-.16.86L15.26,18a7.58,7.58,0,0,0-.18.79,4,4,0,0,0-.08.67,1,1,0,0,0,.25.78,1.43,1.43,0,0,0,.88.21,2.55,2.55,0,0,0,.67-.1A3.73,3.73,0,0,0,17.34,20.19Zm.2-12A1.67,1.67,0,0,1,17,9.48a1.92,1.92,0,0,1-1.36.53,1.94,1.94,0,0,1-1.36-.53,1.71,1.71,0,0,1,0-2.55,2,2,0,0,1,2.72,0A1.69,1.69,0,0,1,17.55,8.21Z"/></g></g></svg>