<svg xmlns="http://www.w3.org/2000/svg" xmlns:xlink="http://www.w3.org/1999/xlink" viewBox="0 0 51.35 51.35"><defs><style>.cls-1{opacity:0.52;fill:url(#linear-gradient);}.cls-2{fill:#282828;}.cls-3{fill:url(#linear-gradient-2);}</style><linearGradient id="linear-gradient" x1="25.68" y1="41.43" x2="25.68" y2="0.9" gradientUnits="userSpaceOnUse"><stop offset="0" stop-color="#b67b2b" stop-opacity="0"/><stop offset="0.03" stop-color="#b67b2b" stop-opacity="0.06"/><stop offset="0.21" stop-color="#b67b2b" stop-opacity="0.34"/><stop offset="0.39" stop-color="#b67b2b" stop-opacity="0.58"/><stop offset="0.56" stop-color="#b67b2b" stop-opacity="0.76"/><stop offset="0.72" stop-color="#b67b2b" stop-opacity="0.89"/><stop offset="0.87" stop-color="#b67b2b" stop-opacity="0.97"/><stop offset="1" stop-color="#b67b2b"/></linearGradient><linearGradient id="linear-gradient-2" x1="25.64" y1="14.1" x2="25.64" y2="36.02" gradientUnits="userSpaceOnUse"><stop offset="0" stop-color="#facf11"/><stop offset="1" stop-color="#cf982a"/></linearGradient></defs><title>instagram</title><g id="Layer_2" data-name="Layer 2"><g id="Layer_1-2" data-name="Layer 1"><circle class="cls-1" cx="25.68" cy="25.68" r="25.68"/><circle class="cls-2" cx="25.68" cy="25.68" r="21.32"/><path class="cls-3" d="M31.3,18.39a1.26,1.26,0,1,0,1.26,1.26A1.26,1.26,0,0,0,31.3,18.39ZM25.68,20A5.31,5.31,0,1,0,31,25.32,5.32,5.32,0,0,0,25.68,20Zm0,8.71a3.4,3.4,0,1,1,3.4-3.4A3.41,3.41,0,0,1,25.68,28.72Zm10.72-7.82a6.48,6.48,0,0,0-6.48-6.48H21.37a6.48,6.48,0,0,0-6.48,6.48v8.55a6.48,6.48,0,0,0,6.48,6.48h8.55a6.48,6.48,0,0,0,6.48-6.48Zm-2,8.55a4.45,4.45,0,0,1-4.45,4.45H21.37a4.45,4.45,0,0,1-4.45-4.45V20.91a4.45,4.45,0,0,1,4.45-4.45h8.55a4.45,4.45,0,0,1,4.45,4.45Z"/></g></g></svg>