<svg xmlns="http://www.w3.org/2000/svg" xmlns:xlink="http://www.w3.org/1999/xlink" viewBox="0 0 60 60"><defs><style>.cls-1{opacity:0.52;fill:url(#linear-gradient);}.cls-2{fill:#f4f4f4;}.cls-3{fill:url(#linear-gradient-2);}</style><linearGradient id="linear-gradient" x1="30" y1="59.34" x2="30" y2="-2.01" gradientUnits="userSpaceOnUse"><stop offset="0" stop-color="#b67b2b" stop-opacity="0"/><stop offset="0.03" stop-color="#b67b2b" stop-opacity="0.06"/><stop offset="0.21" stop-color="#b67b2b" stop-opacity="0.34"/><stop offset="0.39" stop-color="#b67b2b" stop-opacity="0.58"/><stop offset="0.56" stop-color="#b67b2b" stop-opacity="0.76"/><stop offset="0.72" stop-color="#b67b2b" stop-opacity="0.89"/><stop offset="0.87" stop-color="#b67b2b" stop-opacity="0.97"/><stop offset="1" stop-color="#b67b2b"/></linearGradient><linearGradient id="linear-gradient-2" x1="30" y1="20.01" x2="30" y2="41.6" gradientUnits="userSpaceOnUse"><stop offset="0" stop-color="#facf11"/><stop offset="1" stop-color="#cf982a"/></linearGradient></defs><title>location</title><g id="Layer_2" data-name="Layer 2"><g id="Layer_1-2" data-name="Layer 1"><circle class="cls-1" cx="30" cy="30" r="30"/><circle class="cls-2" cx="30" cy="30" r="24.91"/><path class="cls-3" d="M38.86,20.17A10.15,10.15,0,0,0,30.23,15h-.46a10.15,10.15,0,0,0-8.63,5.12A10.41,10.41,0,0,0,21,30.46L28.43,44v0a1.8,1.8,0,0,0,3.13,0v0L39,30.46a10.41,10.41,0,0,0-.14-10.29ZM30,28.6a4.21,4.21,0,1,1,4.21-4.21A4.21,4.21,0,0,1,30,28.6Z"/></g></g></svg>