<svg xmlns="http://www.w3.org/2000/svg" xmlns:xlink="http://www.w3.org/1999/xlink" viewBox="0 0 100.97 148"><defs><style>.cls-1{fill:none;}.cls-2{fill:url(#linear-gradient);}.cls-3{clip-path:url(#clip-path);}.cls-4{fill:url(#linear-gradient-2);}.cls-5{fill:url(#linear-gradient-3);}.cls-6{fill:url(#linear-gradient-4);}.cls-7{fill:url(#linear-gradient-5);}.cls-8{fill:url(#linear-gradient-6);}.cls-9{fill:url(#linear-gradient-7);}.cls-10{fill:url(#linear-gradient-8);}.cls-11{fill:url(#linear-gradient-9);}.cls-12{fill:url(#linear-gradient-10);}.cls-13{fill:url(#linear-gradient-11);}.cls-14{fill:url(#linear-gradient-12);}.cls-15{fill:url(#linear-gradient-13);}.cls-16{fill:url(#linear-gradient-14);}.cls-17{fill:url(#linear-gradient-15);}.cls-18{fill:url(#linear-gradient-16);}.cls-19{fill:url(#linear-gradient-17);}.cls-20{fill:url(#linear-gradient-18);}.cls-21{fill:url(#linear-gradient-19);}.cls-22{fill:url(#linear-gradient-20);}.cls-23{fill:url(#linear-gradient-21);}.cls-24{fill:url(#linear-gradient-22);}.cls-25{fill:url(#linear-gradient-23);}.cls-26{fill:url(#linear-gradient-24);}.cls-27{fill:url(#linear-gradient-25);}.cls-28{fill:url(#linear-gradient-26);}</style><linearGradient id="linear-gradient" x1="-65.79" y1="126.4" x2="27.22" y2="69.63" gradientUnits="userSpaceOnUse"><stop offset="0.3" stop-color="#fff"/><stop offset="1" stop-color="#fff" stop-opacity="0"/></linearGradient><clipPath id="clip-path"><path class="cls-1" d="M50.48,10.29A137.61,137.61,0,0,0,8.74,17.36V61.69c0,38.41,41.75,58.69,41.75,58.69S92.23,100.1,92.23,61.69V17.36A137.61,137.61,0,0,0,50.48,10.29Z"/></clipPath><linearGradient id="linear-gradient-2" x1="52.37" y1="32.7" x2="52.37" y2="141.1" gradientUnits="userSpaceOnUse"><stop offset="0" stop-color="#facf11"/><stop offset="1" stop-color="#cf982a"/></linearGradient><linearGradient id="linear-gradient-3" x1="22.18" y1="32.7" x2="22.18" y2="141.1" xlink:href="#linear-gradient-2"/><linearGradient id="linear-gradient-4" x1="17.7" y1="32.7" x2="17.7" y2="141.1" xlink:href="#linear-gradient-2"/><linearGradient id="linear-gradient-5" x1="26.47" y1="32.7" x2="26.47" y2="141.1" xlink:href="#linear-gradient-2"/><linearGradient id="linear-gradient-6" x1="33.04" y1="32.7" x2="33.04" y2="141.1" xlink:href="#linear-gradient-2"/><linearGradient id="linear-gradient-7" x1="30.89" y1="32.7" x2="30.89" y2="141.1" xlink:href="#linear-gradient-2"/><linearGradient id="linear-gradient-8" x1="74.19" y1="32.7" x2="74.19" y2="141.1" xlink:href="#linear-gradient-2"/><linearGradient id="linear-gradient-9" x1="68.69" y1="32.7" x2="68.69" y2="141.1" xlink:href="#linear-gradient-2"/><linearGradient id="linear-gradient-10" x1="55.29" y1="32.7" x2="55.29" y2="141.1" xlink:href="#linear-gradient-2"/><linearGradient id="linear-gradient-11" x1="83.2" y1="32.7" x2="83.2" y2="141.1" xlink:href="#linear-gradient-2"/><linearGradient id="linear-gradient-12" x1="33.3" y1="32.7" x2="33.3" y2="141.1" xlink:href="#linear-gradient-2"/><linearGradient id="linear-gradient-13" x1="61.27" y1="32.7" x2="61.27" y2="141.1" xlink:href="#linear-gradient-2"/><linearGradient id="linear-gradient-14" x1="27.41" y1="32.7" x2="27.41" y2="141.1" xlink:href="#linear-gradient-2"/><linearGradient id="linear-gradient-15" x1="70.86" y1="32.7" x2="70.86" y2="141.1" xlink:href="#linear-gradient-2"/><linearGradient id="linear-gradient-16" x1="64.36" y1="32.7" x2="64.36" y2="141.1" xlink:href="#linear-gradient-2"/><linearGradient id="linear-gradient-17" x1="41.57" y1="32.7" x2="41.57" y2="141.1" xlink:href="#linear-gradient-2"/><linearGradient id="linear-gradient-18" x1="50.48" x2="50.48" y2="131.1" gradientUnits="userSpaceOnUse"><stop offset="0" stop-color="#ca922b"/><stop offset="0.06" stop-color="#cf982e"/><stop offset="0.28" stop-color="#dca635"/><stop offset="0.46" stop-color="#e1ab37"/><stop offset="0.74" stop-color="#cc9431"/><stop offset="1" stop-color="#b67b2b"/></linearGradient><linearGradient id="linear-gradient-19" x1="50.48" y1="2.65" x2="50.48" y2="128.15" gradientUnits="userSpaceOnUse"><stop offset="0" stop-color="#d29c2a"/><stop offset="0.08" stop-color="#dfad23"/><stop offset="0.22" stop-color="#f5c917"/><stop offset="0.31" stop-color="#efc11a"/><stop offset="0.44" stop-color="#ddaa24"/><stop offset="0.52" stop-color="#d29c2a"/><stop offset="0.81" stop-color="#facf11"/><stop offset="1" stop-color="#cf982a"/></linearGradient><linearGradient id="linear-gradient-20" x1="14.88" y1="21.73" x2="14.88" y2="10.27" xlink:href="#linear-gradient-2"/><linearGradient id="linear-gradient-21" x1="26.87" y1="18.95" x2="26.87" y2="7.72" xlink:href="#linear-gradient-2"/><linearGradient id="linear-gradient-22" x1="39.49" y1="17.18" x2="39.49" y2="6.4" xlink:href="#linear-gradient-2"/><linearGradient id="linear-gradient-23" x1="51.69" y1="16.56" x2="51.69" y2="6.17" xlink:href="#linear-gradient-2"/><linearGradient id="linear-gradient-24" x1="63.13" y1="17.18" x2="63.13" y2="6.36" xlink:href="#linear-gradient-2"/><linearGradient id="linear-gradient-25" x1="75.3" y1="18.89" x2="75.3" y2="7.41" xlink:href="#linear-gradient-2"/><linearGradient id="linear-gradient-26" x1="87.01" y1="21.27" x2="87.01" y2="10.63" xlink:href="#linear-gradient-2"/></defs><title>logo</title><g id="Layer_2" data-name="Layer 2"><g id="Layer_1-2" data-name="Layer 1"><path d="M50.48,3.85c-24.84,0-46.64,7.9-46.64,7.9V61.26c0,42.9,46.64,65.56,46.64,65.56s46.64-22.65,46.64-65.56V11.75S75.33,3.85,50.48,3.85Z"/><path class="cls-2" d="M50.48,7.12a139.17,139.17,0,0,0-42.91,7.4V60.91c0,40.2,42.91,61.42,42.91,61.42s42.91-21.22,42.91-61.42V14.52A139.17,139.17,0,0,0,50.48,7.12Z"/><g class="cls-3"><path class="cls-4" d="M50.14,28a25.79,25.79,0,0,1,.38,5.88,9.14,9.14,0,0,1-.68,3.77c-.29-.72-.4-1.49-.71-2.2a18.69,18.69,0,0,0-2.79-4.25A5.53,5.53,0,0,0,43.23,29a23.68,23.68,0,0,0,1.59,2.23,8.62,8.62,0,0,1,1.52,3.64c-1-.32-2-.91-3-1.25a6.81,6.81,0,0,0-6.79,1,6.71,6.71,0,0,0-1.28,1.61,7.07,7.07,0,0,0-.94,2.24c.79-.57,1.42-1.36,2.23-1.92a7.2,7.2,0,0,1,6.35-1.28,3.13,3.13,0,0,1,2.45,2.5c.22,2.51-2.08,4.46-2.36,6.84,1.73-1.15,2.92-3.06,4.65-4.21A23.63,23.63,0,0,0,47,43.22c-.14.6-.35,1.18-.45,1.78,1-.72,1.69-1.88,2.63-2.69.29-.25.81-.73,1.24-.62s.49.63.47,1a12.33,12.33,0,0,1-.72,2.44,5.82,5.82,0,0,0,.54,4.47c.57.85,1.48,1.4,1.94,2.33.58,1.11.4,2.26.65,3.43a3.64,3.64,0,0,0,.45-1.6c.23-1.3.22-2.69.57-4,.44.61,1,1.17,1.43,1.75a10,10,0,0,0,1.57,1.75c-.21-1.09-.56-2.15-.75-3.24a2.07,2.07,0,0,1,0-1.4c.36-.55,1.1-.17,1.5.1A10.87,10.87,0,0,1,61,51.79c1.76,2.74,2.16,5.65,2.65,8.79a10.1,10.1,0,0,0,.67-2.72c.65-3.71,0-7.28-2.92-9.89a24.94,24.94,0,0,0-3.59-2.57c-.59-.37-1.4-.76-1.58-1.51a1.33,1.33,0,0,1,.46-1.12,8.27,8.27,0,0,1,2.48-1.6,47.53,47.53,0,0,1,7-2.59,27.1,27.1,0,0,1,4.27-1.07,3.47,3.47,0,0,0-1.31-.14c-.88,0-1.76-.05-2.64,0a31.87,31.87,0,0,0-6.05.75c-1.75.47-3.49,1.43-5.32,1.38,1.59-1.51,2-3.56,2.56-5.6.25-.86.63-1.67.89-2.53a3.2,3.2,0,0,0-2.13,1.26A13.55,13.55,0,0,0,54,36.53c-.79-.42-.93-1.88-1.17-2.69A29.59,29.59,0,0,0,51.42,30a5.86,5.86,0,0,0-1.28-2"/><path class="cls-5" d="M23.67,58.69a36.29,36.29,0,0,0-3.15,4.54A3.2,3.2,0,0,0,23.82,60a2.16,2.16,0,0,0-.15-1.33"/><path class="cls-6" d="M16.39,62.54c-.87.82-1.68,1.7-2.49,2.57-.28.3-.73,1-1.12,1.06-.23.06-.45-.13-.64-.23a6,6,0,0,0-1.21-.56c-.2-.06-.6-.15-.68.13s.33.76.55,1a5.84,5.84,0,0,1,1.71,1.91c.42,1.08-.25,2.24.15,3.32a6.55,6.55,0,0,0,1.59,1.94q1.94,2.08,4,4a6.09,6.09,0,0,0,2.21,1.74A7.62,7.62,0,0,0,20,77.13a20.83,20.83,0,0,0-1.15-3.35c1.36,1.27,2.18,3.06,3.83,4a6,6,0,0,0,2.24.69c-.43-.65-1-1.2-1.46-1.84-1.05-1.51-2-3.66-1.57-5.54a5.6,5.6,0,0,1,2.24-3.75c.27-.2,1.2-.68,1-1.14-.15-.27-.51-.2-.74-.1A4.75,4.75,0,0,0,23,67.19c-1.21,1.23-2.25,2.65-3.36,4-.53.62-1.2,1.19-1.25,2-.43-.35-.75-1-1.28-1.24s-1.55.24-2.08.38c0-.5,0-1,0-1.51,0-.23,0-.51.24-.65s1.07-.06,1.48-.05c.19-.58.72-.64,1.25-.81a17.61,17.61,0,0,0,3.14-1c.77-.4.68-1.27,1.17-1.92.73-1,1.86-1.49,2.64-2.38a7.34,7.34,0,0,0-3.41.76c-.71.44-1.15,1.21-1.93,1.55a11.65,11.65,0,0,1-4.45.61,7,7,0,0,1,.84-2.72,2.55,2.55,0,0,0,.34-1.69"/><path class="cls-7" d="M32.79,83.68c-.64,1.51-2,3.92-4.05,3.19-1-.38-1.54-1.25-2.39-1.78,0,.51.14,1.53-.16,2s-1,.2-1.32.18c-1.25-.1-2.41-.59-3.65-.68A2.06,2.06,0,0,0,21,85.22c-.16-.21-.49-.37-.68-.1s-.12.72-.13,1l-.08,2.46c0,.32-.08.81.21,1,.63.48,1-.42,1.48-.69a4.4,4.4,0,0,1,2.66-.66,4.66,4.66,0,0,1,1.68.48c1.11.63,1.87,1.6,3.24,1.7,2.41.2,3-3.21,3.28-5a5.14,5.14,0,0,0,.13-1.79"/><path class="cls-8" d="M22.79,90.37a6.35,6.35,0,0,0,.07,1.9,3.07,3.07,0,0,0,.7,1.06,4,4,0,0,0,1.73,1.35c1.68.5,3.86-.29,5.34.91a21,21,0,0,1,2.7,3.16c.43.53.77,1.2,1.49,1.28a13.41,13.41,0,0,0-.37-2c-.14-.82-.18-1.66-.34-2.47a21.45,21.45,0,0,1,2.81.52c1.43.29,2.87.51,4.31.71a3.84,3.84,0,0,0,1.7-.09c.21-.07.48-.19.38-.47-.17-.43-.91-.49-1.28-.56-1.34-.26-2.7-.44-4-.77-.42-.1-1.65-.28-1.41-1s1.31-.42,1.83-.42a8.34,8.34,0,0,0,2.26-.14,6,6,0,0,0,1-.57c.32-.18.87-.29,1-.66s-.65-.53-.91-.57c-.77-.12-1.57-.05-2.35-.1-.38,0-.77-.12-.75-.59a5.34,5.34,0,0,1,2.09-3.47c.85-.57,2-.54,2-1.8-1.2,0-1.86.89-2.87,1.4-.7.35-1.53.42-2,1.11a6.62,6.62,0,0,0-.71,1.68,2,2,0,0,1-.36.81c-.24.23-.52.13-.8.14a3,3,0,0,0-1.14.31c-1.35.62-2.32,2-3.75,2.41S28.32,93,27.26,92A8,8,0,0,0,26,90.79a6.81,6.81,0,0,0-3.19-.42"/><path class="cls-9" d="M37.55,39.24c.73.46,1.79.91,2,1.86a1.22,1.22,0,0,1-.46,1,6.88,6.88,0,0,1-2,1.43,20.36,20.36,0,0,1-4.95,1.61c-1.69.33-3.48.49-4.85,1.63s-1.71,2.53-2.5,3.88a10.29,10.29,0,0,1-3,3.23,47.12,47.12,0,0,1-4.6,2.5c-.62.34-1.47.59-1.55,1.37,1.56,0,2.89-1.09,4.11-1.94A7.57,7.57,0,0,1,21,55a5.73,5.73,0,0,0,1.24-.59,16.59,16.59,0,0,0,1.58-1.63c.85-.92,1.72-1.83,2.56-2.76.65-.71,1.31-1.41,2-2.12.28-.3.62-.83,1-1s1.41.35,1.95.42V46.9l3.86.12c0,1.39,2.5.84,2.66,2.16a4.49,4.49,0,0,1,2.05.25c.27.17.53.61.35.92-.36.62-1.25.25-1.35,1.13-1.52-.33-3-.82-4.48-1.26a8,8,0,0,0-2.9-.55A8.69,8.69,0,0,0,28,51.16a27.76,27.76,0,0,0-2.79,1.93c-.22.17-.89.58-.55.92s.69.2,1,.21c.69,0,1.38.11,2.07.16a19.23,19.23,0,0,1,2.44.38,4.49,4.49,0,0,0,2,.15c1.48-.35,2.79-1.18,4.29-1.55a3.83,3.83,0,0,1,1.89-.17c-.7,1.09-2.22,1.65-3.27,2.33A3,3,0,0,0,33.6,57.2a32.13,32.13,0,0,1,3.88-.64A3.41,3.41,0,0,1,39,56.48c.64.22,1.07.92,1.46,1.4a23.06,23.06,0,0,1,2.81,3.68c.23-.59-.16-1.65-.27-2.28a37.77,37.77,0,0,1-.9-5.61,10.47,10.47,0,0,0,4.08-.92,12.07,12.07,0,0,0-1.59-.43c-.79-.27-1.53-.68-2.33-.92a19.34,19.34,0,0,0,.91-5.08,25.26,25.26,0,0,0-3.14.91,7.6,7.6,0,0,1-2.45-.06c-.66-.09-2.06-.39-1.52-1.36,1-1.88,4.07-1.22,5-3.35.56-1.28-.67-2.44-1.65-3a1.73,1.73,0,0,0-1.88-.19"/><path class="cls-10" d="M62.25,41.52a18.27,18.27,0,0,0,3.08,1,19.24,19.24,0,0,1,4.54,2.36c5.23,3.66,8,9.58,9.14,15.74a26,26,0,0,1,.59,4.75,8.55,8.55,0,0,0,.47-3.11,42.36,42.36,0,0,0-.2-7.86c-.14-1.27-.69-3.43,1-3.87a3.53,3.53,0,0,1,1.78.24c1.18.37,2.26,1,3.44,1.36a11.43,11.43,0,0,0-2.18-2.46,22.94,22.94,0,0,0-5.72-3.94,17.85,17.85,0,0,1-2.23-1c-.24-.17-.51-.45-.36-.76.31-.64,1.5-.8,2.11-1,1.5-.55,3.45-1.08,4.41-2.47a25,25,0,0,0-2.74.35c-2,.25-4,.54-6,.71-2.22.15-4.47.37-6.7.36-1.51,0-3-.28-4.51-.33"/><path class="cls-11" d="M61.94,45.29c.5.61,1.17,1.11,1.71,1.69a11.45,11.45,0,0,1,2.91,5c.81,3.35-.74,6.62-1.86,9.69A45.62,45.62,0,0,0,62,70.28a31.49,31.49,0,0,0-.24,3.87,20.84,20.84,0,0,0,1.43-3.74A43.72,43.72,0,0,1,66.82,63c.87-1.35,2.16-3,3.73-3.58a10.86,10.86,0,0,0,.94,1.73A31.28,31.28,0,0,1,73,64.28a47.74,47.74,0,0,1,2.41,8.21,5.23,5.23,0,0,0,.07-2.17c0-1.66-.12-3.27-.29-4.93-.54-5.3-2.2-10.8-5.5-15a12.53,12.53,0,0,0-7.75-5.07"/><path class="cls-12" d="M59.29,52a6.63,6.63,0,0,0-.36,2.54c0,.73-.1,1.44-.16,2.17a5.24,5.24,0,0,1-.26,1.7,5.06,5.06,0,0,1-1.14,1.38c-1,1-2.38,2.2-2.76,3.61,1.19,0,2.44-1.05,3.44-1.64.25-.14,1-.71,1.26-.41s-.08.68-.18.87a11,11,0,0,1-1.49,2.13c-1.72,2.08-3.44,4.15-5.21,6.18a13.33,13.33,0,0,1-2,2.4A13.15,13.15,0,0,1,51.2,67c.5-1.66,1-3.32,1.47-5a11.42,11.42,0,0,0,.82-5.28H53a14.49,14.49,0,0,1-1.81,5.81c-.78,1.45-1.76,2.77-2.42,4.28a17.75,17.75,0,0,0-.59,11.81A7,7,0,0,0,52,83.28a6.72,6.72,0,0,0,2.06.4A9,9,0,0,0,61,81.61a7.9,7.9,0,0,0,1.31-2,6,6,0,0,0,.79-2c-1.26.53-2,1.88-3.37,2.27s-2.86.91-4.25.47c-2.67-.82-2.5-4.34-1.75-6.44,1-3,3.42-5.14,5.12-7.7A14.52,14.52,0,0,0,61,61.54,13.49,13.49,0,0,0,59.48,52h-.19"/><path class="cls-13" d="M83.43,54.1a28.76,28.76,0,0,1,0,8.24c-.28,2.83-.42,5.67-.83,8.49a30.09,30.09,0,0,1-.56,4c-.09.32-.32,1.07-.73,1.08s-.92-.93-1.1-1.33c-.72-1.54-1.41-3.11-2-4.7a1.94,1.94,0,0,0,0,1l.22,2c.18,1.75.48,3.49.78,5.23a26.91,26.91,0,0,1,.46,3.14A10.77,10.77,0,0,1,79.25,84c-.46,2-1.15,3.89-1.76,5.81a19.34,19.34,0,0,0-.79,2.63c2.48-1,4.54-3.67,5.55-6.08a6.84,6.84,0,0,0,.55-2.44c0-.35,0-.92.36-1.12.59-.36,1.3,1,1.55,1.37A11.61,11.61,0,0,1,87,90a3.66,3.66,0,0,0,.05-1.7c-.05-1.42-.19-2.84-.31-4.27-.42-4.6-1.08-9.24-1.3-13.86a5.71,5.71,0,0,1,3.22,3.22c.33.78.54,1.64.94,2.4a3.46,3.46,0,0,0,0-1.13,24.6,24.6,0,0,0-.49-3.52,71.4,71.4,0,0,0-3.06-12.49,19.47,19.47,0,0,0-1.5-3.36,2.42,2.42,0,0,0-1.19-1.17"/><path class="cls-14" d="M39.73,60.13a5,5,0,0,0,0,1.42c.07.24.31.36.39.6s-.14.66-.25.92c-1.29,2.89-5,2.23-7.54,2-.91-.07-1.82-.1-2.73-.18-1.37-.14-3.6-.39-4.37,1.1,1.35,0,2.62-.86,4-.53,1.77.43,3.18,1.8,4.92,2.34a8,8,0,0,0,4.63-.34c2.16-.78,2.77-2.72,2.6-4.85-.07-1.1-.33-2.35-1.62-2.51"/><path class="cls-15" d="M51.49,127.7a1.94,1.94,0,0,0,0-.95c-.11-.67-.24-1.33-.37-2a46.51,46.51,0,0,1-.71-5.89c-.42-6.41.48-13.19,3.56-18.92,1.1-2,2.56-4.51,4.54-5.82a48.51,48.51,0,0,0,.3,5.12,60.2,60.2,0,0,0,1,8.17c.31,1.38.46,3.57,1.75,4.41.07-2.33-.1-4.66,0-7,.36-6.56,1.64-13.48,4.76-19.35A31.87,31.87,0,0,1,69.94,80c.34-.41,1.16-1.56,1.8-1.26s.82,1.6,1,2.2a54.78,54.78,0,0,0,2,6,4.23,4.23,0,0,0,0-1.8c-.08-1.3-.22-2.59-.35-3.89a116.25,116.25,0,0,0-1.86-14.54c-.14-.65-.39-1.27-.56-1.91-.48.14-.46.59-.52,1-.14,1-.15,2-.28,3-.48,3.81-2.31,7-4.5,10.08C63.77,83,60.21,86.7,56.93,90.48a58.94,58.94,0,0,0-4.2,5.08,28.87,28.87,0,0,0-4.79,20.3,42.82,42.82,0,0,0,2.2,8.68c.38,1.08.95,2.09,1.35,3.17"/><path class="cls-16" d="M24.77,68.66v.19c1.22.62,2.5.83,3.51,1.84,2.65,2.65,1.81,6.63-.92,8.8a9.07,9.07,0,0,1-2.59,1.4,11.2,11.2,0,0,0-2.29.88,1.32,1.32,0,0,0-.53,2c.57.73,1.51.52,2.25.18s1.72-.89,2.58-1.33a9.11,9.11,0,0,0,3-2c.53-.64.86-2,1.81-2.18.35-.08.45.4.51.65.15.63.13,1.59.84,1.82A57.15,57.15,0,0,0,33,73a4.66,4.66,0,0,0-2.61-4,8.13,8.13,0,0,0-2.9-.51,6.8,6.8,0,0,0-2.74.2"/><path class="cls-17" d="M69.49,121.44a5.53,5.53,0,0,0-.18-2.18c-.21-1.45-.42-2.91-.56-4.37-.45-5.17-.74-10.39.31-15.51a14,14,0,0,1,1.1-3.66c.21-.41.6-1,1.09-1.1.68-.12,1.24,1.08,1.48,1.56,1,2,2,4.14,2.8,6.24a2,2,0,0,0,0-1c0-.73-.11-1.45-.19-2.18a30.65,30.65,0,0,0-2.05-8.87,12.41,12.41,0,0,0-1.46-2.51c-.18-.23-.5-.74-.85-.66s-.33.28-.44.43c-.3.42-.57.86-.83,1.3a26.35,26.35,0,0,0-2.47,6,39,39,0,0,0,0,19.12c.34,1.47.73,3,1.19,4.39.34,1,.79,2,1,3.06"/><path class="cls-18" d="M55.84,106c-.33,10.62,1.53,21.19,3.77,31.54.5,2.33,1.08,4.65,1.67,7,.3,1.17.68,2.34.89,3.53a5.24,5.24,0,0,0,.11-2.55c-.12-1.35-.16-2.72-.28-4.08-.28-3.93-.67-7.85-1.12-11.77a55.06,55.06,0,0,0-1-6.94,50.18,50.18,0,0,0,8.35,7.08c1.41,1,3,2.12,4.73,2.32a24.33,24.33,0,0,0-3.47-3.63,44.45,44.45,0,0,1-3.71-4.17,46.36,46.36,0,0,1-7.44-13.58A45.11,45.11,0,0,1,56.78,106l-.94,0"/><path class="cls-19" d="M48.25,58.78c.29-1.59,1.87-2.5,2.2-4a4.84,4.84,0,0,0-4.08,5.08c.05,1.09.72,2.25.39,3.32s-1.27,1.11-2.07,1.49A3.87,3.87,0,0,0,43,66.1a6.76,6.76,0,0,0-.77,3.67c0,.38.42.83.28,1.17-.25.61-1.28.93-1.85,1.12a10.17,10.17,0,0,1-5.74,0c.2,2.09.34,4.18.48,6.26a13.09,13.09,0,0,1,.1,3.51,18.61,18.61,0,0,1-1.58,4.4,9.4,9.4,0,0,0-1.24,3.56c1.12-.19,1.51-1.49,1.92-2.4.17-.37.34-.86.73-1.06a2.72,2.72,0,0,1,.95-.15c.54-.05,1.07-.15,1.61-.25a12,12,0,0,0,5.43-2c1.54-1.25,1.61-3.28,1.67-5.1.08-2.52,0-5.06-.05-7.57A15.28,15.28,0,0,1,45,67.58c.39-1.78,2.54-1.91,3.26-3.4C49.07,62.53,48,60.51,48.25,58.78ZM43,81.12s-1.53,2.92-5.93,3l.3-9.77,5.87-.83Z"/></g><path class="cls-20" d="M50.48,3.85c24.84,0,46.64,7.9,46.64,7.9V61.26c0,42.9-46.64,65.56-46.64,65.56S3.85,104.17,3.85,61.26V11.75s21.79-7.9,46.64-7.9m0-3.85A153.12,153.12,0,0,0,17,4,136.19,136.19,0,0,0,2.54,8.13L0,9V61.26A63.29,63.29,0,0,0,7.74,91.42a85.35,85.35,0,0,0,16.78,21.5A107.67,107.67,0,0,0,48.8,130.28l1.68.82,1.68-.82a107.67,107.67,0,0,0,24.28-17.35,85.35,85.35,0,0,0,16.78-21.5A63.29,63.29,0,0,0,101,61.26V9l-2.54-.92A136.19,136.19,0,0,0,84,4a153.12,153.12,0,0,0-33.5-4Z"/><path class="cls-21" d="M97.53,10.62c-.22-.08-22.28-8-47-8s-46.83,7.89-47,8l-.79.29V61.26a60.68,60.68,0,0,0,7.43,28.91A82.72,82.72,0,0,0,26.34,111,104.73,104.73,0,0,0,50,127.9l.53.26.53-.26A104.73,104.73,0,0,0,74.63,111,82.72,82.72,0,0,0,90.89,90.17a60.68,60.68,0,0,0,7.43-28.91V10.9Zm-47-5.56c21.71,0,41.31,6.17,45.43,7.55V32.06c-5.39-1.71-25.1-7.47-45.43-7.47s-40,5.76-45.43,7.47V12.6C9.17,11.22,28.77,5.05,50.48,5.05ZM73,109.21a106.09,106.09,0,0,1-22.54,16.26,106.09,106.09,0,0,1-22.54-16.26C17.5,99.32,5.05,83,5.05,61.26V33.58C9.62,32.11,29.73,26,50.48,26s40.86,6.07,45.43,7.54V61.26C95.92,83,83.47,99.32,73,109.21Z"/><path class="cls-22" d="M10.93,26.47c0-4.77,0-7.16,0-11.94,1.56-.45,2.34-.67,3.91-1.08a3.2,3.2,0,0,1,2.57.09,2.54,2.54,0,0,1,.79,2.21,4,4,0,0,1-.42,1.93,2.34,2.34,0,0,1-1.24,1.09c1,0,1.59.79,1.63,2.28v.16l.06,1.57a3.59,3.59,0,0,0,.17,1,1.33,1.33,0,0,0,.43.6c-1,.24-1.57.36-2.61.62a3.48,3.48,0,0,1-.14-.68Q16,24,16,23.23L16,22v-.32q0-1-.44-1.32a2.54,2.54,0,0,0-1.77.08l-.75.2c0,2.1,0,3.14,0,5.24ZM13,19l1.26-.34a2.4,2.4,0,0,0,1.33-.73A2.42,2.42,0,0,0,16,16.43q0-.89-.41-1.15a2,2,0,0,0-1.47,0L13,15.6Z"/><path class="cls-23" d="M22.68,23.59c1.07-5,1.61-7.48,2.68-12.45,1.19-.22,1.79-.32,3-.51l2.72,11.53-2.4.35-.59-2.91-2.56.44-.57,3.1Zm3.18-5.39,1.89-.32L26.8,13Z"/><path class="cls-24" d="M35.27,21.64c1.08-4.89,1.62-7.33,2.71-12.21,1.2-.11,1.8-.16,3-.24L43.72,21l-2.42.14-.59-3-2.58.21-.58,3.05Zm3.21-5.1,1.91-.15-1-4.93Z"/><path class="cls-25" d="M48.54,20.82c0-4.77,0-7.16,0-11.94l2.25,0c0,4,0,5.94,0,9.91,1.62,0,2.43,0,4.06.06,0,.81,0,1.22,0,2C52.32,20.79,51.06,20.78,48.54,20.82Z"/><path class="cls-26" d="M60,21.1c0-4.77,0-7.16,0-11.94,2.47.16,3.71.27,6.18.54,0,.79,0,1.19,0,2-1.58-.17-2.37-.25-3.95-.37,0,1.1,0,1.66,0,2.76,1.47.12,2.21.19,3.68.34v1.89c-1.47-.16-2.2-.23-3.68-.34,0,1.31,0,2,0,3.29,1.62.13,2.43.21,4,.38,0,.81,0,1.21,0,2C63.76,21.38,62.51,21.27,60,21.1Z"/><path class="cls-27" d="M71.53,22.33c0-4.77,0-7.16,0-11.94l2.18.34c0,2,0,3,0,5l2.71-4.52,2.46.47c-1.2,1.74-1.8,2.62-3,4.38,1.28,3,1.92,4.54,3.2,7.59l-2.43-.47L74.5,17.86,73.71,19c0,1.45,0,2.17,0,3.62Z"/><path class="cls-28" d="M83.53,20.43l2.2.54v.77A3.32,3.32,0,0,0,86,23.3a1.44,1.44,0,0,0,.94.64A1.25,1.25,0,0,0,88,23.87a1.1,1.1,0,0,0,.36-1,2,2,0,0,0-.25-1A6.66,6.66,0,0,0,87,20.65l-1.12-1.1A9.92,9.92,0,0,1,84,17.4a3.79,3.79,0,0,1-.39-1.77,2.47,2.47,0,0,1,.88-2.14,2.8,2.8,0,0,1,2.42-.24,4.41,4.41,0,0,1,2.5,1.59,4.61,4.61,0,0,1,.87,2.85q0,.17,0,.26c0,.06,0,.11,0,.16l-2.07-.58v-.32a2.81,2.81,0,0,0-.31-1.47,1.64,1.64,0,0,0-1-.69.91.91,0,0,0-.83.1,1,1,0,0,0-.3.8c0,.5.45,1.17,1.35,2l0,0,1.21,1.15a8.45,8.45,0,0,1,1.74,2.13,4.59,4.59,0,0,1,.46,2.1,2.53,2.53,0,0,1-.91,2.25,3.15,3.15,0,0,1-2.61.17,4.67,4.67,0,0,1-2.64-1.6,4.89,4.89,0,0,1-.87-3q0-.2,0-.66Z"/></g></g></svg>