<svg xmlns="http://www.w3.org/2000/svg" xmlns:xlink="http://www.w3.org/1999/xlink" viewBox="0 0 49.82 49.82"><defs><style>.cls-1{fill:url(#linear-gradient);}.cls-2{fill:#282828;}</style><linearGradient id="linear-gradient" y1="24.91" x2="49.82" y2="24.91" gradientUnits="userSpaceOnUse"><stop offset="0" stop-color="#facf11"/><stop offset="1" stop-color="#cf982a"/></linearGradient></defs><title>mail icon</title><g id="Layer_2" data-name="Layer 2"><g id="Layer_1-2" data-name="Layer 1"><circle class="cls-1" cx="24.91" cy="24.91" r="24.91"/><polygon class="cls-2" points="34.01 29.85 34.01 19.98 28.4 24.91 34.01 29.85"/><polygon class="cls-2" points="24.91 28 23.31 26.64 17.76 31.49 32.07 31.49 26.55 26.64 24.91 28"/><polygon class="cls-2" points="32.07 18.33 17.76 18.33 24.93 24.61 32.07 18.33"/><polygon class="cls-2" points="15.81 19.97 15.81 29.85 21.46 24.91 15.81 19.97"/><path class="cls-2" d="M24.91,4.22A20.69,20.69,0,1,0,45.6,24.91,20.69,20.69,0,0,0,24.91,4.22ZM36.5,33.57H13.32V16.25H36.5Z"/></g></g></svg>