<svg xmlns="http://www.w3.org/2000/svg" viewBox="0 0 144.46 144.17"><defs><style>.cls-1{fill:#fff;}.cls-2{fill:#d52d27;}.cls-3{fill:#4d4c4d;}</style></defs><title>minibrocki</title><g id="Layer_2" data-name="Layer 2"><g id="Layer_1-2" data-name="Layer 1"><path class="cls-1" d="M72.38,0A72.12,72.12,0,0,0,4.57,96.59L0,107.65l11.66,3.27A72.08,72.08,0,1,0,72.38,0Z"/><path class="cls-2" d="M64.05,84.8a3.88,3.88,0,0,1,1-1.51,4.82,4.82,0,0,1,1.19-.78,4.88,4.88,0,0,1,1.41-.35,5.38,5.38,0,0,1,2.58.7,4.73,4.73,0,0,1,.95.73A4.63,4.63,0,0,1,72,84.69a6.58,6.58,0,0,1,.59,1.58,9.07,9.07,0,0,1,.22,2.13,8.23,8.23,0,0,1-.25,2.13,6.32,6.32,0,0,1-.63,1.57A4.29,4.29,0,0,1,71,93.19a5.89,5.89,0,0,1-1,.71,6.12,6.12,0,0,1-2.76.66,6,6,0,0,1-2.74-.66,5.52,5.52,0,0,1-1-.71,4.35,4.35,0,0,1-.88-1.1A6.24,6.24,0,0,1,62,90.51a8.63,8.63,0,0,1-.23-2.13V78.52h2.79v5.6Zm3.21,7.1a2.48,2.48,0,0,0,1.39-.35,2.41,2.41,0,0,0,.81-.88,3.55,3.55,0,0,0,.37-1.14,6.79,6.79,0,0,0,0-2.25,3.55,3.55,0,0,0-.37-1.14,2.41,2.41,0,0,0-.81-.88,2.94,2.94,0,0,0-2.79,0,2.51,2.51,0,0,0-.82.88,3.37,3.37,0,0,0-.39,1.14,6.79,6.79,0,0,0,0,2.25A3.37,3.37,0,0,0,65,90.66a2.51,2.51,0,0,0,.82.88A2.47,2.47,0,0,0,67.26,91.89Z"/><path class="cls-2" d="M74.27,85.92A3.13,3.13,0,0,1,74.78,84a3.78,3.78,0,0,1,1.12-1,4,4,0,0,1,1.64-.52h3.28v2.83h-2.2a1.55,1.55,0,0,0-.76.16,1.71,1.71,0,0,0-.46.35,1.34,1.34,0,0,0-.26.52v8H74.27Z"/><path class="cls-2" d="M82.07,88.4a8.65,8.65,0,0,1,.23-2.13,6.24,6.24,0,0,1,.62-1.58,4.42,4.42,0,0,1,.89-1.11,5.57,5.57,0,0,1,1-.73,5.83,5.83,0,0,1,5.55,0,5.62,5.62,0,0,1,1,.73,4.43,4.43,0,0,1,.89,1.11,6.54,6.54,0,0,1,.63,1.58,9.36,9.36,0,0,1,0,4.26,6.32,6.32,0,0,1-.63,1.57,4.3,4.3,0,0,1-.89,1.09,5.92,5.92,0,0,1-1,.71,6.2,6.2,0,0,1-5.55,0,5.87,5.87,0,0,1-1-.71,4.28,4.28,0,0,1-.89-1.09,6,6,0,0,1-.62-1.57A8.64,8.64,0,0,1,82.07,88.4Zm5.55-3.49a2.47,2.47,0,0,0-1.39.35,2.41,2.41,0,0,0-.81.88A3.53,3.53,0,0,0,85,87.28a6.79,6.79,0,0,0,0,2.25,3.52,3.52,0,0,0,.37,1.14,2.41,2.41,0,0,0,.81.88,2.94,2.94,0,0,0,2.79,0,2.41,2.41,0,0,0,.81-.88,3.54,3.54,0,0,0,.37-1.14,6.79,6.79,0,0,0,0-2.25,3.54,3.54,0,0,0-.37-1.14,2.41,2.41,0,0,0-.81-.88A2.47,2.47,0,0,0,87.62,84.91Z"/><path class="cls-2" d="M105.46,86.9h-2.9a5.43,5.43,0,0,0-.29-.74,2.24,2.24,0,0,0-.47-.64,2.14,2.14,0,0,0-.71-.45,2.78,2.78,0,0,0-1-.16,2.47,2.47,0,0,0-1.39.35,2.41,2.41,0,0,0-.81.88,3.53,3.53,0,0,0-.37,1.14,6.79,6.79,0,0,0,0,2.25,3.53,3.53,0,0,0,.37,1.14,2.41,2.41,0,0,0,.81.88,2.47,2.47,0,0,0,1.39.35,2.26,2.26,0,0,0,1.72-.61,3.22,3.22,0,0,0,.78-1.41h2.88a6.07,6.07,0,0,1-.46,1.63,5.82,5.82,0,0,1-.71,1.19,4.12,4.12,0,0,1-.87.83,5.76,5.76,0,0,1-.94.54,5.85,5.85,0,0,1-2.41.49,6.17,6.17,0,0,1-2.79-.66,5.89,5.89,0,0,1-1-.71,4.29,4.29,0,0,1-.89-1.09,6,6,0,0,1-.62-1.57,9.82,9.82,0,0,1,0-4.26,6,6,0,0,1,.63-1.58,4.8,4.8,0,0,1,.89-1.11,5,5,0,0,1,1-.73,6.19,6.19,0,0,1,2.79-.7,6.37,6.37,0,0,1,2.39.54,5.35,5.35,0,0,1,.94.55,4.28,4.28,0,0,1,.87.85A6.16,6.16,0,0,1,105,85.3,6.06,6.06,0,0,1,105.46,86.9Z"/><path class="cls-2" d="M109.84,94.33H107V78.52h2.86v8.67l3.49-4.73h3.16l-3.61,4.94,5,6.93h-3.16l-3.49-4.78-1.43,1.85Z"/><path class="cls-2" d="M119.19,79.81q0-.51,0-.77a.52.52,0,0,1,.14-.37.66.66,0,0,1,.42-.13h1.71a.66.66,0,0,1,.42.13A.52.52,0,0,1,122,79q0,.26,0,.77t0,.77a.52.52,0,0,1-.14.37.66.66,0,0,1-.42.13h-1.71a.66.66,0,0,1-.42-.13.52.52,0,0,1-.14-.37Q119.19,80.32,119.19,79.81ZM122,82.45V94.33h-2.86V82.45Z"/><path class="cls-3" d="M28.54,88.4a9.83,9.83,0,0,0-.06-1.05,2.73,2.73,0,0,0-.29-1,1.9,1.9,0,0,0-.71-.74,2.6,2.6,0,0,0-1.35-.29,2.59,2.59,0,0,0-1.35.29,1.9,1.9,0,0,0-.71.74,2.72,2.72,0,0,0-.29,1,9.67,9.67,0,0,0-.06,1.05v5.93H20.86V88.4a9.06,9.06,0,0,1,.22-2.13,6.23,6.23,0,0,1,.6-1.58,4.67,4.67,0,0,1,.84-1.11,5,5,0,0,1,1-.73,5.29,5.29,0,0,1,5.27,0,5.34,5.34,0,0,1,1,.73,4.32,4.32,0,0,1,.84,1.11,6.91,6.91,0,0,1,.6,1.58,8.65,8.65,0,0,1,.23,2.13v5.93H28.54Zm7.68,0a9.83,9.83,0,0,0-.06-1.05,2.73,2.73,0,0,0-.29-1,1.91,1.91,0,0,0-.71-.74,3.24,3.24,0,0,0-2.69,0,1.9,1.9,0,0,0-.71.74,2.72,2.72,0,0,0-.29,1,9.67,9.67,0,0,0-.06,1.05v5.93H28.54V88.4a9.05,9.05,0,0,1,.22-2.13,6.22,6.22,0,0,1,.6-1.58,4.67,4.67,0,0,1,.84-1.11,5,5,0,0,1,1-.73,5.29,5.29,0,0,1,5.27,0,5.34,5.34,0,0,1,1,.73,4.31,4.31,0,0,1,.84,1.11,6.91,6.91,0,0,1,.6,1.58,8.66,8.66,0,0,1,.23,2.13v5.93H36.22Z"/><path class="cls-3" d="M40.58,79.81q0-.51,0-.77a.52.52,0,0,1,.14-.37.66.66,0,0,1,.42-.13h1.71a.66.66,0,0,1,.42.13.52.52,0,0,1,.14.37q0,.26,0,.77t0,.77a.52.52,0,0,1-.14.37.66.66,0,0,1-.42.13H41.15a.66.66,0,0,1-.42-.13.52.52,0,0,1-.14-.37Q40.58,80.32,40.58,79.81Zm2.86,2.65V94.33H40.58V82.45Z"/><path class="cls-3" d="M50.2,82.15l.5,0a4.47,4.47,0,0,1,1,.2,6,6,0,0,1,1.24.55A4.33,4.33,0,0,1,54.19,84a5.8,5.8,0,0,1,.93,1.77,8.25,8.25,0,0,1,.36,2.63v5.93H52.62V88.4a6.17,6.17,0,0,0-.09-1.05,3,3,0,0,0-.35-1,2.12,2.12,0,0,0-.73-.74,2.78,2.78,0,0,0-2.48,0,2.12,2.12,0,0,0-.73.74,3,3,0,0,0-.35,1,6.14,6.14,0,0,0-.09,1.05v5.93H44.93V88.4a8.25,8.25,0,0,1,.36-2.63A5.8,5.8,0,0,1,46.22,84a4.33,4.33,0,0,1,1.22-1.08,6,6,0,0,1,1.24-.55,4.46,4.46,0,0,1,1-.2Z"/><path class="cls-3" d="M57,79.81q0-.51,0-.77a.52.52,0,0,1,.14-.37.66.66,0,0,1,.42-.13h1.71a.66.66,0,0,1,.42.13.52.52,0,0,1,.14.37q0,.26,0,.77t0,.77a.52.52,0,0,1-.14.37.66.66,0,0,1-.42.13H57.55a.66.66,0,0,1-.42-.13.52.52,0,0,1-.14-.37Q57,80.32,57,79.81Zm2.86,2.65V94.33H57V82.45Z"/><rect class="cls-2" x="55.84" y="42.24" width="31.22" height="31.22" rx="6.41" ry="6.41"/><path class="cls-1" d="M77.22,48.16,76,46.94a10.45,10.45,0,0,0-2-1.62,8.34,8.34,0,0,0-1.86-.84,5.2,5.2,0,0,0-1.67-.23,6.43,6.43,0,0,0-1.45.21,6.38,6.38,0,0,0-4.5,4.5,6,6,0,0,0-.2,1.44c0,.14,0,.27,0,.41H63.9a6.44,6.44,0,0,0-1.45.21,6.38,6.38,0,0,0-4.5,4.5,6.05,6.05,0,0,0-.2,1.44A5.63,5.63,0,0,0,58,58.62a7.52,7.52,0,0,0,.84,1.86,10.92,10.92,0,0,0,1.63,2l1.22,1.22.19.19,3-1.91-.72-.72h0L62.89,60a11.67,11.67,0,0,1-.85-.95A3.28,3.28,0,0,1,61.45,58a2.29,2.29,0,0,1,0-1.24,3.91,3.91,0,0,1,2.3-2.3,2.3,2.3,0,0,1,1.24,0,3.29,3.29,0,0,1,1.09.59l.23.2h2.48V52.76l-.18-.21A3.28,3.28,0,0,1,68,51.45a2.29,2.29,0,0,1,0-1.24,3.91,3.91,0,0,1,2.3-2.3,2.3,2.3,0,0,1,1.24,0,3.29,3.29,0,0,1,1.09.59,11.84,11.84,0,0,1,.95.85l4.23,4.23,3-1.91Z"/><polygon class="cls-1" points="72.64 56.57 72.64 53.63 70.07 53.63 70.07 56.57 67.13 56.57 67.13 59.14 70.07 59.14 70.07 62.07 72.64 62.07 72.64 59.14 75.59 59.14 75.59 56.57 72.64 56.57"/><path class="cls-1" d="M82.09,53.87a9.89,9.89,0,0,1,1.31,1.66,7,7,0,0,1,.78,1.71,5.07,5.07,0,0,1,.21,1.49A5.49,5.49,0,0,1,84.2,60a5.8,5.8,0,0,1-4.08,4.08,5.88,5.88,0,0,1-1.32.19h-.36l-.66,0,0,.66c0,.13,0,.25,0,.36a5.49,5.49,0,0,1-.18,1.3,5.8,5.8,0,0,1-4.08,4.08,5.88,5.88,0,0,1-1.32.19h-.14a4.76,4.76,0,0,1-1.34-.21A7.79,7.79,0,0,1,69,69.87a9.91,9.91,0,0,1-1.9-1.53l-1.22-1.22-1.7-1.7,1.95-1.26,2.58,2.58a12.49,12.49,0,0,0,1,.89,3.9,3.9,0,0,0,1.28.69,2.74,2.74,0,0,0,.81.12,3.17,3.17,0,0,0,.74-.09,4.47,4.47,0,0,0,2.73-2.73,2.88,2.88,0,0,0,0-1.55,3.87,3.87,0,0,0-.69-1.28l-.07-.08V61h1.72l.06.05a3.89,3.89,0,0,0,1.28.69,2.73,2.73,0,0,0,.81.12,3.16,3.16,0,0,0,.74-.09,4.46,4.46,0,0,0,2.73-2.73,2.88,2.88,0,0,0,0-1.55,3.88,3.88,0,0,0-.69-1.28,12.28,12.28,0,0,0-.89-1l-.11-.11,1.95-1.26m.08-.75-3,1.91.63.63a11.65,11.65,0,0,1,.85.95,3.28,3.28,0,0,1,.59,1.09,2.29,2.29,0,0,1,0,1.24,3.91,3.91,0,0,1-2.3,2.3,2.56,2.56,0,0,1-.6.07,2.13,2.13,0,0,1-.64-.1,3.29,3.29,0,0,1-1.09-.59l-.21-.18H73.93v2.48l.2.23a3.28,3.28,0,0,1,.59,1.09,2.29,2.29,0,0,1,0,1.24,3.91,3.91,0,0,1-2.3,2.3,2.57,2.57,0,0,1-.6.07,2.14,2.14,0,0,1-.64-.09,3.29,3.29,0,0,1-1.09-.59,11.84,11.84,0,0,1-.95-.85L66.25,63.4l-3,1.91,2.22,2.22,1.22,1.22a10.45,10.45,0,0,0,2,1.62,8.34,8.34,0,0,0,1.86.84,5.32,5.32,0,0,0,1.51.23h.16a6.43,6.43,0,0,0,1.45-.21,6.38,6.38,0,0,0,4.5-4.5,6.05,6.05,0,0,0,.2-1.44c0-.14,0-.27,0-.41h.42a6.44,6.44,0,0,0,1.45-.21,6.38,6.38,0,0,0,4.5-4.5,6.05,6.05,0,0,0,.2-1.44,5.63,5.63,0,0,0-.23-1.67,7.52,7.52,0,0,0-.84-1.86,10.92,10.92,0,0,0-1.63-2l-.1-.1Z"/></g></g></svg>