<svg xmlns="http://www.w3.org/2000/svg" xmlns:xlink="http://www.w3.org/1999/xlink" viewBox="0 0 81.37 33.52"><defs><style>.cls-1{fill:none;clip-rule:evenodd;}.cls-2{fill:url(#linear-gradient);}.cls-3{fill:url(#linear-gradient-2);}.cls-4{fill:url(#linear-gradient-3);}.cls-5{fill:#959795;fill-rule:evenodd;}.cls-6{clip-path:url(#clip-path);}.cls-7{fill:#fff;opacity:0.59;}.cls-8{fill:#616463;}</style><linearGradient id="linear-gradient" x1="35.27" y1="19.63" x2="56.76" y2="19.63" gradientUnits="userSpaceOnUse"><stop offset="0.13" stop-color="#1f4280"/><stop offset="1" stop-color="#bbbdbf"/></linearGradient><linearGradient id="linear-gradient-2" x1="35.27" y1="20.34" x2="56.76" y2="20.34" xlink:href="#linear-gradient"/><linearGradient id="linear-gradient-3" x1="35.27" y1="3.62" x2="56.76" y2="3.62" xlink:href="#linear-gradient"/><clipPath id="clip-path"><path class="cls-1" d="M62.4,33.52A13.53,13.53,0,1,1,75.89,20,13.5,13.5,0,0,1,62.4,33.52"/></clipPath></defs><title>mio logo</title><g id="Layer_2" data-name="Layer 2"><g id="Layer_1-2" data-name="Layer 1"><path class="cls-2" d="M30.48,13.53h0a9.76,9.76,0,0,0-2.08-3,9.91,9.91,0,0,0-3-2,9.56,9.56,0,0,0-7.32,0,9.58,9.58,0,0,0-2.43,1.45,10.16,10.16,0,0,0-2.43-1.44,9.16,9.16,0,0,0-3.57-.7,9.38,9.38,0,0,0-3.73.75,9.92,9.92,0,0,0-3,2,9.74,9.74,0,0,0-2.08,3A9.14,9.14,0,0,0,0,17.27V31.52H7.23V16.89A2.27,2.27,0,0,1,8,15.5a2.36,2.36,0,0,1,1.59-.57,2.24,2.24,0,0,1,1.66.69A2.4,2.4,0,0,1,12,17.29V31.52h7.23V17.12a2.41,2.41,0,0,1,3.95-1.63A2.51,2.51,0,0,1,24,16.9V31.52h7.23V17.27A9.15,9.15,0,0,0,30.48,13.53Z"/><rect class="cls-3" x="36.49" y="9.16" width="7.23" height="22.36"/><circle class="cls-4" cx="40.1" cy="3.62" r="3.62"/><path class="cls-5" d="M62.4,33.52A13.53,13.53,0,1,1,75.89,20,13.5,13.5,0,0,1,62.4,33.52"/><g class="cls-6"><path class="cls-7" d="M60.36,24.05c0,.13,0,.36-.07.47s-.1.2-.25.32-.14.43-.29.54-.05,0-.08,0-.07,0,0,.07,0,.2,0,.39,0,.19,0,.41-.12.12,0,.3-.13.1-.08.3-.19.18-.16.41-.06.1-.12.17-.13.1-.16.08h0a.16.16,0,0,1-.13,0s-.1,0-.13,0-.14.08-.35.29a.29.29,0,0,0-.08.37c0,.16.11.26,0,.33s.08.07-.13.21-.05.19-.13.3,0,.25-.14.36.07.11-.22.31a.3.3,0,0,1-.39.1.09.09,0,0,0-.1,0,.07.07,0,0,1-.08,0c-.05-.06-.25,0-.28-.25-.06.2.12.19,0,.22s.36.09.35.26.06.15.1.15h0c.05.15,0,.12,0,.2s-.15.16-.27.22a.48.48,0,0,1-.35.06h0s0,0,0,0,0,0,0,0-.05.07,0,.08,0,.06.06.07,0,.07,0,.07,0,.12,0,.14-.14.15-.24.09-.15,0-.12,0-.14,0,0,.05,0,.22.16.22c0,0,0,0,.07,0s-.07,0,0,0,0,0,.07.08a0,0,0,1,1-.06,0s-.14,0-.14,0,.12,0,.13,0-.08,0-.06.07,0,0,0,.12-.07.05,0,.13-.09,0-.12.07-.08,0-.1.11.06.1.11.16.09.07.12.06.05,0,.09.05,0,.18,0,.19c-.24-.12-.49-.23-.72-.37s-.43-.23-.67-.39c0,0-.1-.07,0-.28s0-.06,0-.1,0-.07-.07-.11a0,0,0,0,0-.05,0h0s0,0,0,0h0c-.07-.1,0-.12-.08-.23s.13,0,0-.24,0-.16-.08-.18.06,0,0-.09-.1-.09-.08-.15,0,0,0,0,.1.06,0,0,0-.07,0-.11,0,0,0-.13.07,0,0-.15,0-.13,0-.24,0-.11-.09-.28a1.92,1.92,0,0,1-.16-.44s0,0,0,0h0s0,0,0-.06h0s0,0,0,0,0,0-.05-.08-.09,0-.06-.25a3.68,3.68,0,0,0,0-.37c0-.2,0-.19,0-.23s0,0,0-.15,0-.09-.08-.2,0,0,0-.17,0-.09,0-.08,0,0,0-.05,0-.07,0-.19,0-.06,0-.06,0,0,0,0,0-.18-.06-.23,0,0-.05-.13,0-.1-.06-.12-.14-.1-.16-.15-.38-.24-.42-.28-.22-.06-.29-.16-.15-.1-.21-.18-.14-.11-.18-.18,0,0,0,0h0c0-.05-.14-.19-.11-.26s0,0-.05-.14-.09-.09-.13-.24-.15-.3-.2-.47-.09-.09-.11-.16-.1-.08-.13-.16,0,0-.2-.19A.19.19,0,0,1,52,23.7c-.06-.06,0,0-.06-.15s-.05-.08,0-.08,0,0,0,0,0-.07,0-.1.08-.13.1-.12,0,0,.13-.15,0-.06,0-.09-.05,0-.05,0,0,.08,0,0-.07,0,0,0,0,0,0,0-.05,0,0-.08,0-.05,0-.06,0,0,0,0,0-.08.06-.21,0-.05,0-.14,0-.05,0-.05,0,0,0,0,.06,0,.09-.05.08,0,.11-.07,0,0,0,0,0,0,0,0,.07-.06.1-.06h0s-.07-.06,0-.12.19,0,.18-.1a.37.37,0,0,1,.15-.18c-.05,0,0-.05,0-.05s0,0-.07,0,0-.07,0-.1a.66.66,0,0,0,0-.23c0-.05,0-.05,0-.05h0s.09,0,.05-.1,0-.07,0-.07,0,0,0,0,0-.06,0-.08,0,0,0,0h0s0,0,0-.05,0,0,0-.06,0-.08,0-.12,0,0,.06,0,0,0,0-.08,0,.05-.09.09,0-.08,0-.07,0,0,0,0,0,0-.09,0-.12,0-.09,0,0,0-.11.11,0,0,0,.07.06,0,0,.07-.11.05-.13,0,0-.07,0-.09,0,.05-.05.06,0,0-.06-.06,0-.07-.1-.08,0,0-.06,0h0s0,0,0,0,0,0,0,0,0,0,0,0,0,0,0-.05-.07,0,0,0,0,0,0,0,0,0,0-.06,0,0,0-.05a.86.86,0,0,0-.18-.13c-.08,0,0,0,0-.07s-.05,0,0,0,0,.07,0,0-.08,0-.05-.09,0-.06,0-.08-.08,0,0,0,.06,0,0,0,0-.06-.09-.13-.09-.23-.16-.3,0-.07,0-.05l0,0s0-.08-.07,0-.2,0-.31,0-.06,0-.14,0-.19,0-.31-.19a.46.46,0,0,0-.14-.18c-.14-.13-.18-.08-.22-.11s.06-.06,0,0h-.08s.09,0,0,0,0,0-.14,0-.08.09-.21,0a.14.14,0,0,1-.17,0S49,19,49,18.93s-.13,0-.17,0c0-.29.05-.59.1-.88s.09-.57.16-.86.16-.64.22-.85.16-.57.27-.85.2-.56.33-.83.23-.52.37-.78.28-.53.43-.78.31-.51.48-.75.35-.49.54-.72.39-.48.59-.71.48-.48.69-.7.35-.32.57-.52l.1-.07a1,1,0,0,1,.38,0c.06,0,.05,0,.07,0h.06a.07.07,0,0,0,.07,0s0,0,0,0,.09.08.09,0-.06,0-.1-.09.08,0,.09,0,0,0,0,0,.13,0,.06.06,0,0-.08.1c.14,0,.06-.06.15-.11s.05,0,.09,0h.11c.12,0,.2,0,.16-.05s0,0,0,0a0,0,0,0,1,0,0s.08-.08.13-.06.15-.05.13-.06a.21.21,0,0,0-.1,0,.21.21,0,0,1-.13,0,0,0,0,0,0,0,0s0,0-.08,0,.17-.08.14-.13.06,0,.12-.09,0,0,0,0h.05c.07,0-.13,0,.07-.07s.19,0,.16.06.1.09,0,.12-.05,0-.06,0,0,0,0,0,.08,0,0,.1c.07,0,.17,0,.05.09a.24.24,0,0,0,.18-.06c.06-.06.18,0,.1.08s0,.08,0,.15c.19-.15.28-.12.34-.17s.07-.06.12-.07c-.12,0,.05-.13.15-.1s.16,0,.22,0,.15.07.09.08,0,.05-.1,0,0,0,0,0,.08.06-.06.14a.19.19,0,0,1-.15,0,.13.13,0,0,0-.09,0,.19.19,0,0,1-.09,0l-.07,0c-.06,0-.08-.06-.15-.06s0,0,0,0h0a.1.1,0,0,1,.05,0s0,0,0,0h-.07c-.06,0-.07,0-.07,0s0,0-.14,0,.22,0-.1.11-.13.07-.27.06,0-.1-.22-.09c.15,0,.08.08.19.1h.11s.06,0,0,0-.18.12-.26.12h-.07s-.08,0-.11,0,0,0-.11.06a.18.18,0,0,1-.09,0,.84.84,0,0,0-.28,0c.13,0,.15,0,.08,0,.14,0,.17,0,.19,0s0,.07-.14.06,0,0-.09.05-.13.07-.2.08-.2.11-.25.11.06,0-.18.1,0,0-.08.05,0,0-.08.07,0,.11-.17.18c.06,0,.06,0,.05.05s.05,0,.11,0,.07.06.05.08,0,.09,0,.11-.07,0-.09,0,0,0-.07,0,0,0,.05,0h0c.07,0,.25-.11.28,0s.24,0,.26.11,0,0,0,0h.06c.1.06.16,0,.13.08s.06,0,.13,0,.12,0,.13,0,0,0,.07,0,.06,0,0,0,0,0,0,.1,0,0,0,0h0s0,0-.12,0,.15,0,.14.08,0,.05-.1.07c.19,0,.06.16.12.19s0,0-.08.08l.11-.05s0,0,0,0,0,.06,0,.05h0s0,0,0,0,.06,0,.12-.06,0,.06.09.11c-.07-.06,0-.07,0-.07s-.06,0-.05-.08.18,0,.17-.15,0-.06,0-.1,0-.14,0-.14h0c0-.05-.07,0,0-.06a1.22,1.22,0,0,0,.63-.27c.32-.32,0-.34,0-.38s-.07,0,.12-.1,0,0,.1,0-.06,0,.07-.1-.08,0,.07-.12,0-.17.14-.21a.43.43,0,0,1,.32,0,.17.17,0,0,0,.16,0s.09-.06.21.05,0,.07.08.1,0,0,.06,0a0,0,0,0,1,0,0s0,0,0,.06,0,0,.06,0,0,0,0,0,0,0-.07.06.12.07-.13.1c0,0,.07,0,.07,0s-.18.08-.17.15.21,0,.15,0-.12.06-.12,0,0,.05-.09.07.1,0,.07.05c.11-.11.27-.15.25-.09s0,0,0,0h0c0-.07.12-.08.18-.14s0,0,0,0,0,0,0,0,0-.07.09-.09,0-.09.08-.12.1-.15.14-.09.08,0,.07.08,0,0,0,.07.06,0,0,.08.09.06,0,.13c.12,0,.06.12-.1.14,0,0,.07,0,.16,0s-.07.07,0,.12,0,.18,0,.13,0,0,0,0,0,0,0,0,0,0,0,0,0,0,0,0,0,0,0,0,0,0,0,0,.19,0,.07,0a1.57,1.57,0,0,1-.3.06c-.17,0,0,0-.15.07a.74.74,0,0,0,.32-.06c.09,0,.13-.06.18,0s0,0,0,.05,0,0,.09,0,.1.07,0,.09.05.06,0,.06.12.05-.06.13-.1,0-.11,0,0,0-.12,0-.12,0-.11.06h0s0,0-.07,0l0,0s0,0-.18,0-.16,0-.19,0,0,0-.15,0-.08,0-.11,0a.8.8,0,0,0-.29,0c-.31,0-.39,0-.39.09s-.08.06-.18.08-.09.09-.15.06,0,0-.08,0-.32.22-.4.25,0,.05-.16.12a.49.49,0,0,0,.19-.1,3.06,3.06,0,0,1,.78-.32c.18,0,.27,0,.26,0s0,0,0,0h0s0,0,0,0-.05,0-.16.06-.07,0-.09,0a.14.14,0,0,0-.09,0c.05,0,.06,0,.07,0h0s0,0,0,0,0,.07-.1.1.09.08.1.18,0,.07.17.07,0,.09.11,0,.06,0,.05,0,0,0,0,0,.05,0,.05,0A.14.14,0,0,1,57,13c-.07,0-.13.11-.21.08s0,0,0,0,0,0-.07,0,0,0-.14,0,0,0-.06.07-.15.1-.18.07,0,0,0,0,0-.06,0-.07,0-.08.13-.18a.28.28,0,0,1,.2-.06h0s0,0,.17,0a.34.34,0,0,1-.16,0,.15.15,0,0,0-.09,0h-.06s.18-.07.07-.13,0,0-.11.12a.21.21,0,0,1-.14,0s0,0,0,0-.2.12-.2.12-.1-.06-.13,0,0,0,0,0,0,0,0,0-.06.09-.08.08a0,0,0,0,0-.05,0c-.06,0-.13,0-.19.1s0,0-.1.1-.07.07,0,.14,0,0,0,0,0,0,0,0-.15,0-.15,0-.08.09-.13.07,0,0-.13,0-.14.08-.2.1,0,0,0,0,.05,0,0,.07-.06,0-.09.08,0,0-.09,0,0,0,.05.06,0,0,0,0,0,0,0,0,0,0-.1.08,0,.08,0,0,0,0-.07-.11,0,0,0,.07,0,0,0,.07,0,.14-.08.18l0-.05s0-.07,0,0-.08.16-.14.19,0,0,0-.06,0-.07,0-.11,0,0,0-.09,0,0,0-.07,0,0-.07,0,0,.13-.06.09,0,.06,0,0,0,0,.07.1H54s.1,0,0,.09,0,.08,0,.14,0,.15,0,.15h0s-.06,0-.07,0,0,.05,0,0,0,0,0,0,0,0,0,0,.05,0,0,0,0,0-.11,0,0,0,0,0,0,0,0,0h0s0,.08-.11.09-.12.1-.15.09,0,0-.08.06-.07.07-.1.06-.14.05-.16.08-.05,0-.1.09-.11.07-.12.05h0a.06.06,0,0,1-.09,0s0,0,0,0,0,.05,0,.07,0,0-.08.07c-.21.26-.13.25-.17.3s0,.2,0,.3,0,0,0,0,0,0,0,0,0,.2,0,.2,0,0,0-.06,0-.1,0,0,.06.18.05.22,0,.15-.06.26,0,0,0,.09,0,0,0,0h0s0,0,0,0h0a.06.06,0,0,1-.08,0s0,0,0,0,0,0,0,0,0,0-.06-.07-.08,0-.07-.11,0-.06,0-.1,0,0,0,0c-.07-.18,0-.16,0-.21s.14-.22.07-.26,0-.1-.08-.11,0-.1-.14,0-.09,0-.1,0h0s-.08,0,0,0,0,0-.19-.07.11,0,.07,0-.2,0-.16,0-.12,0-.16,0,0,0-.07,0,0-.05,0-.05,0,0,0,.05,0,0-.08,0h-.05a.12.12,0,0,1-.11,0s0,0-.06,0,.14,0,.09.09.06,0,0,.06.09,0,0,.06,0,0-.08,0h0s0,0-.05,0-.14,0-.16,0h0s0,0,0,0,0,0-.08,0a.12.12,0,0,1-.11,0s-.1-.06-.22,0-.16.12-.13.07,0,0,0-.1c-.12.06,0,.06-.08.09s.07,0-.05.07-.1.1-.13.07h-.08s0,0,0,0h0v0s0,0-.06,0,0,.09-.08.1-.05.08-.08.07,0,0,0,0,0,0,0,.08-.08.08-.05.12,0,0,0,.12a.23.23,0,0,1-.08.18c-.12.14-.06.38-.15.5s.06.19,0,.27,0,.21.09.31,0,.11,0,.12,0,.11.07.1.05,0,.09,0,.08.08.16,0,.14,0,.23-.07.11,0,.17,0,.1,0,0,0-.05.06,0,0-.06,0,.08-.09,0-.13.09-.15,0-.1,0-.2.27-.13.29-.12,0,0,.09,0a.32.32,0,0,1,.13,0h.08s0,0,0,0,0,0,0,0,0,0,0,0-.06.09-.09.15,0,.11-.08.1h0s.06,0,0,.07-.08.2-.11.23,0,.11,0,.13,0-.07,0-.16-.06.05-.05.07,0,.12,0,.19,0,.13-.09.19-.08,0-.07.11,0,0,0,0,0,0,.05,0,0,0,.1,0,0-.06.08,0a.36.36,0,0,0,.19,0,.37.37,0,0,1,.19,0s0,0,0,0h0a.2.2,0,0,1,.11,0c.11,0,0,0,0,0h0a.15.15,0,0,1,.08,0c.05,0,0,0,0,0s0,0,0,0,.07.08.1.1-.09.06,0,.08,0,.15-.05.15,0,0,0,.12a.33.33,0,0,0,0,.13s-.06.07,0,.05,0,0,0,0,0,.08,0,.05,0,0,0,0l0,0s0,.07,0,.09,0,.14,0,.17,0,0,0,.05.08.16.12.19.07,0,.05.05,0,0,0,0-.06,0,0,.05,0,0,0,0a.33.33,0,0,1,.07.06.26.26,0,0,0,.18,0s.11,0,.14,0,0,0,0,0l0,0,.06,0c.09,0,0,0,0,0s0-.06.05-.08a.11.11,0,0,1,.1,0h0s0,0,.09,0,0,0,0,.06,0,0,.09.07.05,0,.13.13c0,0,0,0,0,0s0,0,0,0-.06,0,0-.06.05,0,.1-.09.07-.07.09-.06h0c.08-.07,0-.05,0-.1s0-.13,0-.15.05-.08.15-.12,0,0,.08,0,.06-.11.11-.11.07,0,.24-.11,0-.12.1-.12,0,0,.11,0,.08.06,0,.11,0,0-.05,0,0,.12,0,.14,0,.05,0,0,0,0,0,0-.1.06-.12.14.09.07.09.11.14,0,.14,0a.28.28,0,0,0,0-.17s-.06,0,0-.06,0,0,0-.1A.23.23,0,0,1,54,20c.08,0,0-.06.07,0s0,0,0,0,0,0,0,0,0,0,0-.05.1-.06.1,0,0,0,.1.07h.1s.11.08.06.1,0,.08.17.06.3,0,.27,0,0,.07.21.05,0-.07.18-.09c-.15,0-.08,0,0,0h.28s-.07,0-.17,0-.07,0,0,0,0,0,.1.13c0,0,.09,0,.12,0s.13.06.12.14.06,0,0,0,0,0,0,0,0,.07-.09.06c.07,0,.09,0,.11,0s0,0,.09.06.1,0,.22.1.12.1.06.22,0-.05.11,0,0,.09.09.11,0,.18,0,.19l.08-.1s.08,0,.13,0,.08,0,.11,0a.07.07,0,0,1,.07,0h0a.09.09,0,0,1,.07,0h0s.15,0,.15.05,0,0,.07,0,.1,0,.15.09,0,0,0,0,0,0,0,0,.05,0,.06.07,0,0,.06.1,0,0,.08.07,0,0,0,0,0,0,0,0a3.62,3.62,0,0,0,.14.43.1.1,0,0,1,0,.19c-.08.06,0,.1-.12.16s-.08.13-.1.25a.21.21,0,0,1-.09.13h0s0,0,0,0,.1.15.1.15,0-.06,0-.14.11-.05.14-.13,0-.06,0-.16.06-.06.11,0h.09c.12,0,.27,0,.21,0s0,.06-.07.14,0,.09-.05.13a.09.09,0,0,1-.07,0,.15.15,0,0,0-.09,0s-.05,0-.07,0,0,0-.09,0a.08.08,0,0,1,.07,0s0,0,.11,0,0,0,.08.16c0-.16,0-.21.1-.21s0-.14.16-.18.17.06.4.17.18.13.13.16.09,0,0,.14c.09-.08.07-.09.19,0a.79.79,0,0,0,.39.12c.12,0,.2,0,.34.1s.27.15.36.24a.19.19,0,0,0,.16,0c.08,0,.16,0,.19.08a.82.82,0,0,1,.11.37M63.51,9.33s.17,0,.14,0,.15,0,.12-.06h-.09c-.1,0-.22-.06-.25,0a.38.38,0,0,1-.15.06s0,0,0,0,0,0,0,0,0,0,0-.07.18,0,.11-.06-.26,0-.15,0a.36.36,0,0,1,.21,0c.07,0,.16,0,.2,0s.19.11.21.06.08,0,.08-.07,0-.11-.06-.08h0s0,0-.06,0,0,0-.09,0,0,0-.08,0,0,0,0,0,0,0,0,0-.09,0,0,0,.06,0,.17,0a.18.18,0,0,0,.11,0,.14.14,0,0,1,.09,0c.08,0,.25,0,.2,0s0,0,0,0a.07.07,0,0,0,.08,0c.05,0,.07,0,0-.06s.12,0,0-.09-.1-.07,0-.09,0,0,.05,0,0,0,.08,0,.23-.07.12-.06h-.09s-.05,0-.09,0,0,0,0-.06.06,0,.08,0,0,0,.07,0,0-.05,0-.08-.06,0,0-.08,0-.05-.07,0h-.09a.17.17,0,0,0-.16,0c-.07.07,0,.07,0,.12s-.18.11-.11.05.14-.11.07-.13a.22.22,0,0,0-.15,0s0,0,.09-.07,0,0,0,0a.23.23,0,0,0-.14,0s0,.07,0,.05-.06-.05-.15,0h-.11a.23.23,0,0,0-.15,0,.09.09,0,0,1-.11,0,.16.16,0,0,0-.12,0,.27.27,0,0,1-.13,0,.21.21,0,0,0-.13,0,.13.13,0,0,1-.11,0s-.07,0-.18,0-.2.08-.15,0-.08,0-.26,0h-.19a.1.1,0,0,1-.09,0,.1.1,0,0,0-.08,0,.15.15,0,0,1-.1,0,.16.16,0,0,0-.1,0c-.09,0-.14.07-.26,0s-.19,0-.17,0,0,0-.09,0a.41.41,0,0,0-.19,0,.15.15,0,0,1-.12,0,.09.09,0,0,0-.09,0,.13.13,0,0,1-.11,0,.18.18,0,0,0-.12,0h-.3a.21.21,0,0,0-.11,0,.21.21,0,0,1-.12,0,.29.29,0,0,0-.12,0,.49.49,0,0,1-.17,0h-.18c-.19,0,0,0-.14.07s0,0-.13.07a.14.14,0,0,1-.09,0h-.15a.42.42,0,0,0-.21,0c-.15.06,0,0,0,.05a.61.61,0,0,0,.28,0c.09,0-.07,0,.07,0s.09,0-.08,0-.1,0-.22.06-.14,0,0,.07.08,0,.15,0h.16a.13.13,0,0,1,.08,0h.09a.43.43,0,0,1,.15,0,.32.32,0,0,0,.12,0h.11c.08,0,.16,0,.1.06s.11,0,.06.06.11,0,.06.06,0,.05,0,.07S60,9,60,9s-.06,0,0,0,0,0,.09,0l.08,0h0s0,0,0,0,.05,0,.1,0,.12,0,.05,0,0,0,0,0,.05,0,0,0,.08,0,0,0a.21.21,0,0,1-.12,0h-.14a.11.11,0,0,0-.08,0c-.07,0,0,0,0,.05s.1,0,.13,0,.11,0,.14,0,0,.05,0,.07-.09,0-.07,0,0,0,0,0a.19.19,0,0,0-.12,0c-.05,0,.14,0,.07.06s-.05,0-.07,0a.08.08,0,0,0-.09,0c-.08,0-.17,0-.11.07s-.15,0-.08.07-.1,0,0,.08.06.06,0,.06-.1,0,0,.07,0,.19.06.16.12-.09.16,0-.08,0-.09.06-.07,0-.06.06,0,.1,0,.12,0,.06.08.07,0,.09.07.1,0,.08.11.1,0,0,.1,0l.13-.05c.07,0,0,0,0,.05s0,0,.07.06,0,.06.07,0h.09c.05,0,.08,0,.06-.06s.17-.08.1-.1.14,0,.08-.08.13,0,0-.11.12-.07.09-.1.15,0,.12-.05.14,0,.09-.08.16,0,.09-.07-.08-.1,0-.08.19,0,.14,0,0-.07.09-.08h.07c.06,0,.12,0,.1,0s.11-.06.13,0l0,0s.18,0,.15,0,.08-.07.15,0,.06,0,.08,0,.05,0,.09,0,.05,0,.07-.05,0-.07.08-.06.05,0,.05,0,0,0,0,0,0,.1.13.07a.17.17,0,0,1,.1,0,.11.11,0,0,0,.08,0,.09.09,0,0,1,.07,0H63a.37.37,0,0,1,.14,0s.06,0,.06,0,.2,0,.16-.05,0,0,.08,0,.1,0,.08,0M52,17.74h0l0,0v0h0s0,0,0,0h.06v0h0M60,9.35h.11c.05,0,0,0,0-.06a.1.1,0,0,0-.08,0h-.14a0,0,0,0,0,0,0,0,0,0,0,0,0,0h.06s0,0,.07,0m-6.73,8.73c.05,0,.08,0,.1,0h0s0,0,.08,0a.17.17,0,0,0,.09,0s0,0,0,0,0,0-.06,0l0,0h0l-.06,0H53.3s-.06,0,0,0,.06,0,0,0,0,0,0,0H53.2s-.05,0-.08,0-.1-.07-.13-.07h0s0,0,0,0,0,0,0,0l0,0h0l-.06,0c-.08,0,0,0-.08-.06s0,0-.07,0-.06,0-.07,0,0,0,0,0,0,0-.08,0h0s0,0-.09,0-.14,0-.16,0h0a.17.17,0,0,0-.09,0c-.11,0-.05,0-.08,0s-.13,0-.14,0h0s0,0,0,.06,0,0,0,0h0a.11.11,0,0,1-.07,0s0,0,0,0,.07,0,.05,0,0,0,0,0l0,0,0,0s0,0,0,0H52s0,0,.05,0,0,0,0,0a.74.74,0,0,1,.21,0s0,0,0,0h-.13l0,0s.06,0,.09,0h.19s0,0,0,0l.07,0c.05,0,.09,0,.11,0h.08s0,0,0,0,0,.05,0,.07,0,0,0,0a.06.06,0,0,0,.07,0h.05s.06,0,0,0,0,0,0,0,0,0,0,0l-.06,0-.06,0s0,0,0,0,.05,0,.09,0h.21m1.48.41h.15a.07.07,0,0,0,.07,0s0,0,0,0,0,0,0,0h-.08a.38.38,0,0,0-.14,0s0,0,0,0,0,0,0,0,0,0,0,.05m-1.75,0a.11.11,0,0,0,.09,0s.06,0,0,0,0,0-.06,0-.06,0-.08-.05l-.1,0h-.09a.16.16,0,0,0-.09,0s0,0,0,0,0,0,0,0,0,0,.05.05,0,0,.06,0h0a0,0,0,0,0,0,0s0,0,0,0m1.52-.12s.07-.06,0-.07l-.1-.07a.19.19,0,0,0-.13,0h-.06a.09.09,0,0,1,.08,0s.06,0,0,0h-.1s0,0,0,0h-.07s0,0,0,0,0,0-.07,0h-.19s0,0,0,0l-.06,0h-.13s0,0,0,0,.07,0,0,0,0,0,0,0,0,0,0,0,0,0,0,0l.05,0h-.07a.14.14,0,0,1-.08,0h-.14s-.07,0-.07,0,0,0,0,0l.07,0h0s0,0,.07,0,.05,0,.1,0a.3.3,0,0,1,.13,0l0,0v0s0,0,0,0,.05,0,.05,0,0,0,.05,0a.1.1,0,0,1,.06,0s0,0,0,0h0s0,0,0,0,.05,0,.06,0h.06s0,0,.08,0,.05,0,.08.06,0,0,0,0,0,0,0,0m10.76-6.68h0l-.07,0s0,0,0,0h.1l-.08,0s0,0,0,0h0a.09.09,0,0,1,.07,0h.33v0h.09s0,0,0,0l0,0s0,0,0,0v-.07s0,0,0,0,0,0,0,0,0,0,0,0v0s0,0,0,0h0l0,0h0l0,0v0h-.05l0,0v0l0,0v0h-.15l0,0s0,0,0,0,0,0,0,0,0,0,0,0,0,0,0,0h-.08s0,0,0,0,0,0,0,0,0,0,0,0,0,0,0,0,0,0,.06,0,0,0,0,0,0,0,0,0,0,0,0,0,0,0,0,0h-.14v.05a.06.06,0,0,0-.05,0h.06s0,0,0,0,0,0,0,0h0s0,0,0,0,0,0,0,0h0l0,0s0,0,.07,0,0,0,0,0,0,0,0,0h0l0,0s0,0,0,0,0,0,0,0h0a.07.07,0,0,0,.06,0h0s0,0,0,0h-.12s0,0,0,0,0,0,0,0v0h-.08s0,0,0,0h0m.51-.3,0,0,0,0M57,12.77s0,0-.06,0a.16.16,0,0,1-.09,0h0s0,0-.07,0,0,0,0,0,0,0,0,0v0s0,0,0,0,0,0,0,0h.05s0,0,0,0h.05s0,0,0,0,0,0,0,0,0,0,.05,0M63.69,10h0c.08,0,.1,0,.16,0H64l.1,0,0,0,.12,0h.07l.07,0,.09,0h0l.05,0h0s0,0,0,0h0l0,0h0s0,0,0,0h-.05l0,0,0,0h-.09s0,0,0,0h0s0,0,0,0h0a.13.13,0,0,0-.09,0h0s0,0,0,0h-.07v0h-.06s0,0-.05,0-.05,0-.09,0,.05,0,0,0,0,0-.05,0l0,0h0l-.07,0v0h0s0,0,0,0h0s0,0-.05,0l0,0,0,0v0h0s0,0,0,0l0,0h0v0l0,0h0s0,0,0,0h0l0,0h0s0,0,0,0h0l0,0s0,0,0,0l-.09,0h-.07l0,0h-.07a.08.08,0,0,0-.06,0h0s0,0,.08,0l.09,0h.12s-.08,0-.09,0h0a.69.69,0,0,0-.15,0h0a.34.34,0,0,1,.13,0h0v0h.06l0,0h0s-.07,0-.12,0v0h.15M53.88,9.5l-.07.07a.21.21,0,0,0,.14-.05s0,0-.06,0m1.7-.6a.43.43,0,0,0,.19,0s.05-.07,0-.08a.25.25,0,0,0-.17,0s0,0,.05,0h.05s-.07,0-.16,0,0,0,.07,0m.22-.13s.1,0,.15,0,0,0,0,.06-.07.1.08.08.14-.06.16,0,0,0,.11,0,.13-.06.18-.06,0,0,0,0,0,0,0,0,.12,0,.19,0a.6.6,0,0,0,.21,0,.14.14,0,0,1,.09,0H57c.06,0,0-.09,0,0s.05,0,.14,0,.21,0,.13,0-.05-.09-.16-.09-.07,0-.11,0h-.29a.21.21,0,0,1-.12,0,.32.32,0,0,0-.15,0h-.17s-.07,0-.08,0H56.2s0,0,0,0-.15,0-.08,0,.17-.08.06-.07-.06,0-.08,0,0,0-.07,0a1.38,1.38,0,0,0-.22,0c-.06,0,.06.05,0,.08m-.26-.24c-.05,0-.09,0,0,.06s.14,0,.19-.06.15,0,.14-.06.06-.08-.08,0-.29.06-.26.09h.06s0,0,0,0M57.13,9a.25.25,0,0,0,.15,0s.09,0,.14,0-.05,0-.12-.06-.09,0-.17,0-.07,0,0,.05,0,0,0,.06m-.8-.42s.05,0,.06,0,0,0,.08,0,.1,0,.08,0,0,0,.11,0h.08A.82.82,0,0,0,57,8.42c.08,0,.16,0,.11,0s0,0,.06-.06-.06,0-.13,0-.11,0-.07,0,0,0-.11,0a.41.41,0,0,0-.17.06c-.05,0-.13,0-.23.06s.06.08-.06.1,0,0-.09,0,0,0,0,0m2.18,3.93s0,0-.06,0,0,0,0,0,0,0,0,0l-.08,0h-.06s0,0,0,0,0,.06,0,.1,0,0,0,0,0-.07,0,0a.1.1,0,0,0,0,.08s0,0,0,0h0l.05,0s0-.05,0-.07,0,0,0-.08m0-.16s0,0,0,0h-.11s0,0,.05,0h0s0,0,0,0-.06,0-.1,0h-.05s-.07,0-.06,0h0s0,0,0,0,0,0-.06,0,.09,0,.11,0,0,0,0,0h-.06a.43.43,0,0,0-.1.07s.05-.06.08-.08,0,0,0,0l0,0,0,0h.05l0,0s0,0,0,0,0,0,0,0,0,0,0,0,0,0,0,0h-.09s0,0-.06.06-.05,0,0,0,0,0-.06,0l-.12.14s0,.06-.06.07,0,0-.06,0,0,0,0,0,0,0,0,0-.06,0-.1,0,0,0-.06.06h-.06s0,0,.07,0,0,0,0,0a.31.31,0,0,0-.1,0s0,0,0,.06,0,0,0,0a.22.22,0,0,1,.11,0H58s0,0,.06,0,0,0,0,0v0s0,0,0,0,0,0,0,0h0s-.06,0-.06,0-.05,0-.08,0,0,0,0,0h0l.08,0s0,0,0,0,0,0,0-.05h.06s0,0,.06-.05,0,0,0,0,0,0,.07,0-.07,0,0,0a.1.1,0,0,0,.08,0s0,0,0,0M55.4,9c.1,0,.18,0,.21,0A.5.5,0,0,1,55.8,9c.06,0,0,0-.12,0h-.08a.45.45,0,0,0-.18,0c-.05,0-.13,0-.12.08s-.08.05,0,.07.06,0,.08,0,.09,0,.06,0-.09,0,0,0m.21,1.09s0,0,.08,0,0,0,.11,0-.06,0,0,0,0,0-.05-.06-.07,0-.06-.06-.11,0-.1-.06-.07,0-.1,0,0,0,0,0,0,0-.05,0a1,1,0,0,0-.16.09c-.06,0-.15.08-.13.13-.17,0-.2.06-.21.08s.07,0,.12,0,.06,0,0,0-.06,0,0,0a.28.28,0,0,0,.14,0c.05,0,.06-.07.11-.07s.1,0,.13-.05,0,0,0,0a.09.09,0,0,0,.06,0c.06,0,0,0,0,0h0s.11,0,0,0m3.17-.58c-.09,0,0-.09-.1,0s-.09,0-.08,0,0,0-.05,0,0,0,0,0,0,0,0,0,0,0,0,0,0,0,0,0,0,0,0,0,0,0,0,0-.06,0-.07,0,0,0-.06,0,.14,0,.1-.06-.07,0-.12,0a.21.21,0,0,1-.1,0s.25,0,.2-.08,0,0-.06-.08-.08,0-.16,0-.07,0,0,0,.15-.06.1-.08a.12.12,0,0,0-.12,0s0,0,0,0,0-.06,0,0,0,0-.05,0a.12.12,0,0,0-.11,0h-.14s0,0,0,0a.11.11,0,0,0-.1,0c-.12,0-.23,0-.14.07s-.08,0,0,.07,0,0,0,0h0s-.09-.07-.1-.05,0,0,0,0,0-.06-.06,0,0,0-.06,0,0,0,0,0-.15.09-.11,0,.09-.08,0-.08,0,0,0-.05,0-.07,0-.06a2,2,0,0,0-.27,0,.82.82,0,0,0-.15,0c-.07,0-.23,0-.12,0s-.26,0-.1.1-.2,0-.18.11a.07.07,0,0,1,0-.12c.07,0,.06-.07.11-.1s.1-.08,0-.07A.94.94,0,0,0,56,9l-.12,0c-.07,0,0,.06-.16.1s0,.08,0,.09,0,.15.14.12.08,0,.16,0,0,0,.11,0,.09,0,.13,0l.08,0s-.06.05,0,0h0s0,0,0,0,0,0,0,0,0,0,0,0,0-.1,0-.06,0,.08.11.06-.1-.06,0-.07a.08.08,0,0,1,.06,0,.08.08,0,0,0,.08,0c.06,0,0-.11,0-.11s.11.09.12,0,0,0,0,0h.05a.06.06,0,0,1,.06,0s0,0,0,0,0,0,0,0,0,0,0,0,.12,0,.06,0-.11.06,0,.06,0,0,.05,0,0,0,0,0h0s.05,0,.07,0,.08,0,.08,0,.08.08,0,.1-.08,0-.15,0-.18.06-.11.07.12.05.17,0,.12-.1.12-.05,0,.07.08.07,0,0,0,0h-.06s0,0-.08,0-.11.07-.1,0,0,0,0-.06,0,0,0,0-.13-.05-.16,0-.11,0-.13.05.11,0,.12.09-.18,0-.15,0,0,0-.07,0-.07,0,0,0,0,0-.07,0-.1,0-.07,0,0,0-.09,0-.18,0-.12,0,0,0-.07,0-.11,0-.06,0,0,0,0,.09,0,0,0,.06,0,0,.07,0h0s.07,0,0,0,.06,0,0,0h0s.06,0,0,0,0,0,.07,0,.11,0,.09,0-.08-.1,0-.07.07.07.12,0-.09.05,0,.06.16,0,.2.05.07.05.1,0,0,.05.05.05.15.05.16,0,0,0,0,0h.08s.18.09.22.05,0,0,.07,0a.09.09,0,0,0,.08,0c.05,0,0,0,0-.06s0,0,0,0,0-.06-.1-.06,0-.05-.11-.08c.13,0,.19,0,.21,0s0,0,.06,0,0,0,.05,0,0,0,.05,0,0,0,.05,0,0,0,0,0,.06,0,0-.06.07,0,0-.06,0-.07-.11-.06-.09,0,0,0-.05-.09,0-.06.07,0,.05,0,0-.05,0,0,0,0,.08,0,.08,0,.09,0,0,0,0,0h0s0,0,.08,0-.06.07,0,.08,0,.06,0,0,0,0,0,0,0,0,0,0,0,0,0-.07h0s0,0,0,0h0s.05,0,0,0,0,0,0,0,.06,0,.05,0,0,0,.06,0,.05,0,0,0,0,0,.05,0,.07,0,.06,0,0,0,.07,0,.08,0,.06,0,.14,0,.05-.05m-4.71-.21h0L54,9.42h0c.07,0,.19-.06.1-.08m3.18,3.39h0s-.1.08-.13.1,0,0,0,.08,0,0,0,0h.1s0,0,.08,0,0,0,0,0,0,0-.06,0,0-.07,0-.06M55.81,8.57H56s0,0,0-.07-.14,0-.24.09,0,0,.1,0M57,8.45c-.12,0-.15,0-.11.06a.22.22,0,0,0,.13,0h.09c.06,0-.08,0-.16,0s.19,0,.12,0a.36.36,0,0,1-.18,0,.36.36,0,0,0-.21,0c-.07,0,0,0-.07,0a.79.79,0,0,0-.2,0c-.07,0,0,0,0,0h.11a.17.17,0,0,1,.11,0,.44.44,0,0,0,.23,0c.08,0,.1-.06.15-.05s.13,0,.18,0a.11.11,0,0,1,.08,0h.08c.08,0,.1-.06.16-.06s.2,0,.14,0-.1-.06,0-.06.17,0,.13,0,0,0,0,0a.2.2,0,0,0,.1,0H58s.22,0,.27,0a.11.11,0,0,1,.14,0,.19.19,0,0,0,.17,0,.19.19,0,0,1,.14,0,.35.35,0,0,0,.2,0,2.9,2.9,0,0,0,.41-.11,1.27,1.27,0,0,1,.34-.09c.1,0,.32-.09,0-.09a.62.62,0,0,1-.2,0,.33.33,0,0,0-.17,0c-.2,0-.28.09-.44.05a.4.4,0,0,0-.23,0,.22.22,0,0,1-.11,0h-.1a1.61,1.61,0,0,0-.27,0,.43.43,0,0,1-.15,0H58l-.19,0a.16.16,0,0,1-.08,0h-.07s-.14,0-.16,0-.21,0-.25.07,0,0,.08,0a.28.28,0,0,1,.12,0s.08,0,.13,0h.08s.07,0,.14,0h.1s.06,0,0,0a.33.33,0,0,1-.18,0c-.06,0-.1,0-.19,0s0,.12-.05.09h-.05s0,0,0,0-.12,0-.17,0c-.21,0,.12,0-.22.06m-2.52.7a.17.17,0,0,1,.12,0,.08.08,0,0,0,.07,0h0c.1,0,.1,0,.15,0s0,0,.08,0l.07,0c.09,0,0,0,0-.06s.09,0,.14,0,0,0,0,0h0s.1,0,.08,0-.06,0-.1,0h-.32s-.11,0-.08,0,.09,0,.09.05,0,0-.08,0a.56.56,0,0,0-.25,0s0,.09.08.08m.36-.34a.14.14,0,0,0,.13,0s.08,0,.08,0,.06,0,.13,0,0,0,.05,0,0,0,.09,0,.06,0,.09-.1.11,0,.19-.08-.14,0-.24,0a.21.21,0,0,0-.16.09s0,0,0-.1-.08,0-.17,0-.06.07-.06.11,0,0,0,0l0,0h-.14l0,0,.07,0c.05,0-.07,0,0,.08m20.94,9.28s-.09,0-.09-.12,0,0,0,0,0,0,0,0,0,0,0,0,0,0-.09,0-.21-.11-.21-.13-.07,0-.14-.13,0-.16-.06-.15,0-.1,0-.11,0,0-.09.09,0,.08-.18.21,0,.07,0,.07,0,0,0,0,0,0,0,0,0,0,0,0h-.14c-.13,0-.15,0-.15,0s0-.13-.08-.11,0,0,0,0h0s0,0,0,0,0-.11,0-.13-.05-.11-.08-.13-.05,0-.07.06h0s0,0,0,.16c-.05-.05-.08-.07-.09-.12s-.06-.09-.05-.14,0-.07,0-.09,0,0-.1-.08-.1-.05-.07-.07,0-.06-.07,0,0-.06-.09-.2-.11-.17-.15-.14.11-.1.07-.12,0-.06-.06-.08,0-.05.05,0,0,0,.08,0,0,0,0-.07,0,0,.07.07a.05.05,0,0,0,.07,0s0,0,.1.07.12.06.13.11.1.06.11.16,0,0,.07.08.07,0,.09,0,0,0,0,0,0,0,0,0,.05,0,.12.11.07.06.11.05a.11.11,0,0,1,.08,0,.14.14,0,0,0,.12,0h.08s.05,0,.07,0a.14.14,0,0,1,.15,0c.15,0,.08.1.14.17s.06.15.14.14l.07,0a.19.19,0,0,0,.13,0,.22.22,0,0,1,.16,0s0,0,.06,0,.06,0,.09,0c-.07-.28-.11-.57-.19-.85s-.13-.54-.24-.81-.16-.55-.29-.82-.19-.51-.33-.77-.26-.56-.41-.81-.27-.49-.44-.73-.32-.49-.5-.73-.36-.48-.55-.7-.35-.42-.56-.64-.46-.45-.68-.65a2.86,2.86,0,0,0-.44.07h0s0,0,0,0,0,0,0,.07,0,0,0,0h0a0,0,0,0,1,0,0H71s-.07,0-.11,0-.13-.08,0-.06,0,0,0-.06,0,0,0,0a1.6,1.6,0,0,0-.24-.06s0,0,.11.11,0,.1.06.1.05,0,.06,0,0,.14,0,.09,0,0-.06,0,0,0,0,0-.05,0-.11,0h0s0,0-.13,0-.09,0-.13,0-.05,0-.07,0,.23.07.21.13h-.1a.11.11,0,0,1-.08,0,.24.24,0,0,0-.15,0s0,0,0,0,0,0,0,0H70s0,0,0,0-.06,0,0,0,0,0,.12.05.12,0,.09,0,0,.05,0,0-.18,0-.21-.05-.06,0-.14,0,0,0,0,0,0,0,0,0,0,0,0,0,0,0,0-.05,0,0,0,0a.06.06,0,0,1-.05,0,.1.1,0,0,0-.08,0h-.08c-.1,0,.06,0,0,0s0,0,0,0-.15,0-.15,0,0,0,0,0h.14s0,0,0,0h.07s0,0,0,0-.06.05.35.08a3.34,3.34,0,0,1,.37,0,.52.52,0,0,0,.17-.08s0,0,0,0-.09-.09-.09-.09h-.06l-.09,0a.23.23,0,0,0-.15,0,.32.32,0,0,1-.18,0c-.07,0-.14-.05-.16,0s-.1,0-.17,0a.48.48,0,0,0-.16,0H69.1l-.14,0h.09s-.15-.07-.13,0,0,0,0,0a.14.14,0,0,0-.08,0l-.12,0s.18,0,.14,0a.11.11,0,0,0-.12,0l0,0s0,0-.05,0h-.06s.06,0,0-.06,0,0-.06.07,0,0,0,0,0,0,0,0,0,.06-.09.1,0,0,0-.05,0-.07,0-.06,0,0,0,0,0,0-.07,0,.05,0,0,.11c0-.1-.08-.09-.11,0s0,0-.07,0a.08.08,0,0,1-.07,0h-.11s0,0,0,0,0,0,0,0,0,0,0,0,0,0,0,0h-.07a.06.06,0,0,1-.06,0,.08.08,0,0,0-.06,0h0l-.08,0a.14.14,0,0,1-.08,0s0,0-.06,0,0,0-.09,0,0,0-.08.06,0,0-.08,0-.05,0-.09,0,0,0-.08,0,0,0-.05.06,0,0,0,0,0,.06-.1.07,0,0-.07.07,0,0-.07.05,0,0-.08.05,0,0,0,0,.06,0,.15,0-.06,0,0,0-.06,0-.07,0h-.06c-.08,0,0,0,0,0s-.09,0-.09,0a.08.08,0,0,0-.11,0s0,0-.08,0-.05,0,0,.06-.06,0-.09,0-.07,0-.13.06h-.07s0,0,0,.06c-.1,0-.09.06,0,.06h0a.1.1,0,0,1,.07,0h.09c.07,0,.08,0,.08,0s0,0-.06,0h-.23c-.07,0,0,0,0,0s0,0,.06,0-.07,0-.06,0,0,0,0,0h0s0,0,0,0,0,0,0,0,0,0,0,0h0s0,0-.05,0,0,0,0,.11,0,0,0,0h0s0,0,.1-.06c-.08.08-.08.06,0,.12h0s0,0-.06,0,0,.05.06.09,0,.05.12,0c-.09,0,0,0,.05,0s0,0,0,0a.09.09,0,0,1,.07,0s0,0,.12,0,.07,0,.12-.06.07,0,.05-.11,0,0,.09,0,0,0,0-.1,0,0,0-.06a.26.26,0,0,0,0,.11s0,0,0,0h.05c-.07,0,0,0,0,.07s0,0,0,.06,0,0,0,0,0,0,0,0,0,0,0,0,0,0,0,0,0,.09.08.12,0,0,.05,0,0,.06,0,0,0,0,.05.07,0,.12.12.08a.12.12,0,0,1,.09,0s.05,0,.06,0,0,0,0-.07,0,0,0,0h0s.05,0,.12,0,.07-.07.07-.08,0-.1,0-.14,0-.08,0-.11,0,0,0-.06,0,0-.07,0h.06s.1,0,.07,0,.05.06.07,0h0s0,0,.07-.07-.05,0-.18,0a.12.12,0,0,1,.1,0s0,0,.08,0,0,0,0-.06,0,0-.09,0,0,0,0,0,0,0-.05,0,0-.12,0-.16,0-.06,0-.13,0,0,0,0,0,0,0,0,0,0,0,0,0,0,0,0a.06.06,0,0,1,.06,0s0,0,.06,0h0s0,0,0,0a0,0,0,0,1,.05,0,0,0,0,0,0,.05,0c0-.06,0,0,.07-.08s0,0,0-.09,0,0,.06,0h0s0,0,0,0h0a.07.07,0,0,1,.06,0s0,0,0,0h0s0,0,0,0,0,0,0,0,.16,0,.17.07,0,0,0,.06h-.06s0,0-.06,0,0,0-.07,0h-.09s0,0,0,0l0,0s0,0,0,0l0,0s0,0,0,0,0,0,0,0,0,0,0,0-.06,0,0,0,0,0,0,0,0,0,0,0,0,0,0,0,0,0,0,0,0,0,0,.06,0,.07.05,0,0,0,0,0,0,0,.07,0,0,.07,0,.06,0,0,0,.05h0l.06,0c.05,0,0,0,.08,0a.09.09,0,0,1,.08,0s0,0,0,0h0a.06.06,0,0,0,.07,0s0,0,.06,0a.18.18,0,0,0,.12,0s0,0,.05,0a.22.22,0,0,0,.13,0c.1,0,.07,0,0,0s.06,0,.09,0a.06.06,0,0,1,.06,0,.06.06,0,0,0,.07,0,.06.06,0,0,1,.06,0h0v0l0,0c-.06,0-.11,0-.12,0s0,0,0,0,0,0,0,0,0,0,0,0h0s0,0,0,0,0,0-.07,0h-.07a.09.09,0,0,1-.09,0s0,0,0,0,0,0,0,0,0,0,0,0h0s0,0,0,0,0,0,0,0,0,0,0,0h0s0,0-.08,0,0,0,0,0,.06,0,.06,0h0s0,0,.05.06,0,0,0,0,0,0,0,0,0,.07,0,.1,0,0-.07,0,0,0-.07,0,0-.06-.06-.06,0,0-.07-.05,0,0-.06,0-.05,0-.09.07,0,.08,0,.11,0,.07,0,.12,0,.08,0,.11,0,0,0,0,0,0,0,0a.1.1,0,0,1-.07,0h0s0,0,0,0l0,0h0l0,0h0l0,0h0l0,0s0,0-.06,0,0,0,0,0,0,0,0,0h0a.18.18,0,0,0-.06,0h-.16a.22.22,0,0,0-.12,0,.12.12,0,0,1-.08,0h-.06l-.14,0c-.09,0,0,.06-.07.06h0s0,0-.05,0,0,0,0-.05,0,0,0,0h0s0,0,0,0l-.06,0s0,0,0,0h0s0,0,0,0,0,0-.07,0-.05,0-.08,0,0,0-.06,0,0,0-.07,0h-.06s.07,0,0-.06h0s0,0,0,0,0,0,0,0,0,0,0,0h0l0,0s0-.06,0-.06,0,0,0,0,0-.05,0,0,0,0,0,0l0,0s.05,0,0,0,0,0-.07,0h0s0,0,0,0,0,0,0-.05,0,0,0,0h0s0,0,0,.05,0,0,0,0,0,0,0,0,0,0,0,0,0,0,0,0,0,0-.05,0,0,0,0,.06v0a.05.05,0,0,0,0,0h0s0,0,0,0,0,0,0,0l0,0v0h0l0,.05h0s0,0,0,0,0,0,0,0v0s0,0,0,0,0,0,.06,0,0,0-.05,0h-.06s0,0,0,0,0,0,0,0h0v0h0v0s0,0-.06,0h0l-.06,0s0,0,0,0v0a.05.05,0,0,0-.05,0H66l0,0s0,0,0,0,0,0,0,0,0,0,0,0,0,0,0,0h0v0h0s0,0,0,0h0s0,0,0,0a.22.22,0,0,0,0,.08.26.26,0,0,1-.05.08s0,0,0,0,0,0,0,0h0s0,0,0,0h-.09s0,0,0,0l-.1.06a.12.12,0,0,1-.08,0h-.08s0,0,0,0l0,0s0,0,0,0-.05,0-.1,0l-.07,0s0,0-.05,0,0,0,0,0,0,0,0,0l0,0h0s0,0,0,0l0,0s0,0,0,0h0s0,0,0,0,0,0,0,.05a.08.08,0,0,1,0,.06s0,0,0,0,0,0,0,0-.06,0-.07,0h-.1s0,0,0,0,0,0-.05,0,0,0,0,0,0,0-.07,0h-.07v0h0s0,0,0,0-.06,0,0,0,0,0,0,0h.09s.06,0,.07,0,0,0,.07,0h0s.06,0,0,0,0,0,0,0,0,0,0,0v0s0,0,0,.06,0,0,.08,0,0,0,.07,0,0,0,0,.05,0,0,0,0,0,0,0,.12-.06-.09-.07,0a.45.45,0,0,1,0,.15,1.44,1.44,0,0,0,0,.16.05.05,0,0,1,0,0h0s0,0-.06,0h-.07l-.08,0h-.05l-.05,0h-.38a.48.48,0,0,1-.15,0s-.1,0-.09,0h0l-.05,0s0,0,0,0,0,0,0,0h-.06s0,0-.06,0,0,0,0,0,.06,0,0,0,0,0,0,0,0,.05,0,0,0,0,0,0V14s0,0,0,0,0,0,0,.07,0,.09,0,.13l0,.1c0,.05,0,0,0,.07s0,.05,0,0h0s0,.06,0,.09,0,0,0,0,0,0,0,0,0,0,0,0,0,0,.07,0,0,0,0,0,0,.07,0,.1h0s0,0,0,.06,0,0,0,.06,0,0,0,0h.11s0,0,.07,0,0,0,.06,0a.05.05,0,0,0,.05,0H64a.12.12,0,0,1,.08,0s0,0,0,0,0,0,0,0V15s0,0,.05,0h0s0,0,.08,0l.14,0s0,0,.08,0l.1,0h.15s.05-.05,0-.09a.28.28,0,0,1,.08-.06s0,0,.06,0a.05.05,0,0,0,.05,0v-.06s0,0,0,0,0-.07,0-.07.06,0,0,0,0,0-.06,0a.09.09,0,0,1,0-.12.19.19,0,0,1,.06-.06.64.64,0,0,0,.09-.09s0,0,0,0,0,0,0,0a1,1,0,0,1,.19-.08s0,0,.05,0a.14.14,0,0,1,.09,0h0s0,0,0,0,0,0,0,0,0,0,0,0,0,0,0,0l0,0,0,0s0,0,0,0,0,0,0,0,.07-.07.09-.07a.08.08,0,0,0,.06,0s0,0,.08,0,0,0,0,0,.06,0,.07,0,.06,0,.06,0,0,0,.07,0,0,0,0,0,0,0,0,0h.06v0a.82.82,0,0,0,.14-.08s.1,0,.22,0,.09.1.13.13,0,.05,0,.07a.24.24,0,0,1,.1.11s0,0,.06,0,0,0,0,.06.06,0,.06,0a.07.07,0,0,0,0,0l.1.08s.07,0,.1,0,0,.09.09.05l0,0,0,0s.09,0,.07,0,0,0,0,0,0,0,.07,0,0,0,0,0,.05.1.07.13.06,0,0,.07,0,0,0,.1,0,.06,0,.06.07,0,.09-.08.05-.05.07-.08,0,0,0-.07h0s0,0,0-.05a.07.07,0,0,0,0-.05s0,0,0,0v0s0,0,0,0,0,0,0,0H68s0,.05.07.07,0,0,0,0,0,0,0-.06a.33.33,0,0,0-.1,0s0,0-.08-.07a1,1,0,0,0-.16-.06c-.06,0,0,0,0,0s0,0,0,0h-.11s-.05,0-.1,0l-.1-.08a.84.84,0,0,1-.09-.15.43.43,0,0,0-.08-.1s-.08,0-.11,0,0-.07,0-.09,0,0,0,0,0,0,0-.06,0,0,.08,0,0,0,.06,0h0l0,0s0,0,0,0,0,.07,0,.1,0,0,0,0l0-.08s0,0,0,.1,0,0,.1.08.07,0,0,0,0,0,.09.09,0,0,.1.07,0,0,0,0h0l.11.07s0,0,0,0l.12,0h.08s-.06,0,0,0,0,0,.07,0l.05,0,0,0s0,0,0,0,0,0,0,.06,0,.06,0,.06,0,0,0,0,0,0,0,.05,0,0,0,.05,0,0,0,0,0,0,0,0,0,0,0,.06.06,0,.07,0,.07.06.07.06v0s.06,0,.07,0,0,0,0,0,0,0,.05.06,0,0,0,0h0s0,0,0,0,0,0,0,0,0,0,0,0,0,0,0,.05,0,0,0,0h0a0,0,0,0,0,0,0s0,0,.08,0,0,0,.06,0,0,0,0,0l-.06,0h-.07a.05.05,0,0,0-.05,0h-.07l0,0s0,0,0,0a.05.05,0,0,1,0,0s.11.06.06.08.05,0,.09.08,0,0,0,0,0,0,0,0,0,0,0,0,0,0,0,0,0,0,0,0,0,0,0,0,0,0,0-.05,0-.06,0,0,0,0,0,0,0,0,0,0,0,0,0,0,0,0,0,0,0,0,.06,0,0,0,0,0,0,.06,0,0,0,0,0-.07,0,0-.07-.05a.07.07,0,0,1-.06,0,.09.09,0,0,0-.07,0s0-.05,0-.05,0,0,0,0,0,0,0,0,0,0,0,0,0,0,0,0l0,0s0,0,0,0,0,0,0-.07,0,0,0,0,0,0,0-.05,0,0,0-.06,0,0,0,0H69s0,0,0,0,0,0,0,0,0,0,0,0,0,0,0,0,0,0,0,0,0,0,0,0,0,0,0,0,0,0,.05,0h.06s.06,0,.05,0h.16s0,0,0,0,0,.06,0,.05l.09,0s0,0,0,0,0,0-.08.06,0,0,0,0l.1-.06s0,0,0,0,0,0,.06,0h.12s0,0,0,0,0,0-.07,0L69.67,14s0,0,0,0,0,0,0,0-.06,0,0,0l0,0s0,0,0,0h0s0,0,0,0,0-.06,0-.09,0,0,0,0,0,0,0,0,0,0,0-.05a.28.28,0,0,0,0-.06s0,0,0-.06,0,0,0,0,0,0,0,0,0,0,0,0l0,0,0,0v0a0,0,0,0,0,0,0c.06,0,0,0,0-.05s.05,0,.06-.06,0,0,0,0,0,0,0,0,0,0,0,0,.06-.06.12-.06,0,0,.12,0,.09,0,.09,0h-.1s-.05,0,0,0-.09,0,0,0h0l0,0a.13.13,0,0,0,.08,0h0s.05,0,.05,0,0,0,0,0a.44.44,0,0,0-.11.07s0,.05,0,0,.06,0,.12.05,0,.07,0,.09.1,0,.17,0h.05s0,0,0,0,.05,0,.09,0,.05,0,.06,0h0s.07,0,0,0-.09,0-.12,0a.08.08,0,0,1-.08,0h-.07s-.08-.08-.09-.08,0,0-.05,0-.06,0,0,0h0s0,0,.07,0,.09,0,.06,0-.12,0,0,0a.13.13,0,0,0,.09,0,.09.09,0,0,1,.08,0c.07,0,0,0,.09,0s0,0,.05,0,0,0,0,0,0,0,.05,0,0,0,0,0l0,0c.21,0,.21,0,.15,0s-.13.06-.15.05,0,0,.06.06.06.07,0,.07a.07.07,0,0,0-.09.05c0,.07-.06.07-.08.07s0,0,0,0,.23.06.43.23.06,0,.24.11.12,0,.16.09.06,0,.07.12a.31.31,0,0,0,0,.09c-.13.15-.21.13-.29.1a.17.17,0,0,0-.11,0,.31.31,0,0,1-.21,0l0,0c-.07,0,0,0-.11-.05s0-.07-.15-.06a.11.11,0,0,1-.09,0s0,0-.08,0a.19.19,0,0,1-.13,0,.29.29,0,0,0-.18,0c-.1.06-.18,0-.25.1s-.12,0-.19,0-.14,0-.16,0,.09,0,.19.07c-.06,0-.24,0-.16,0s-.15,0-.17,0h0s0,0,0,0-.08,0-.13.05-.09,0-.06,0-.07.07.08.07c-.11,0,0,.06,0,.08s0,0,0,0,.06.07,0,.07h0s0,0,0,0-.07,0,0,0,0,.12,0,.08.05,0,.09,0,0,.11.06.11,0,0,.08,0a0,0,0,0,1,0,0,0,0,0,0,1,0,0s0,0,0,0h.13s-.14,0-.11.06h0s0,0,.06,0L70,15s.13,0,.09,0,.1.13.11.09.17,0,.14-.09.06-.06.13,0,.11,0,.2.12.18,0,.18,0,0,0,.09-.11.07,0,.18,0l0,0s0,0,.05,0-.06,0,0,.11-.07,0,0,.08-.05,0,.07.24-.06.05-.07.12,0,.08,0,.15,0,.06,0,.14,0,0,0,.16a.16.16,0,0,1-.21.07h-.08a.38.38,0,0,1-.22-.05.08.08,0,0,0-.07,0,.07.07,0,0,1-.06,0s-.17,0-.15,0-.06,0-.12.07,0,0-.1,0,0-.07-.09,0-.08,0-.14-.05a.44.44,0,0,0-.27,0c-.07,0-.12,0-.14,0a.94.94,0,0,0,0,.21.94.94,0,0,1,0-.21s0-.05-.07,0-.06,0-.07,0,0,0-.07,0,.05,0-.13-.08-.14,0-.14,0h0c-.1,0,.06,0-.08,0s-.15,0-.23.09-.07.14,0,.15,0,.23-.1.24,0,0-.21-.1-.24-.07-.3-.1h-.07c-.05,0-.11,0-.14-.13s0-.08-.06-.08a.09.09,0,0,1-.08,0,.1.1,0,0,0-.11,0,.11.11,0,0,1-.1,0,.1.1,0,0,0-.11,0,.15.15,0,0,1-.12,0L67,15.67c-.06,0,0,0-.08-.06s.07,0,0,0,0,0,0,0-.16,0-.12-.1.09,0,.16-.11,0-.11,0-.16-.07,0-.09-.14,0,0,0-.1,0,0,0-.06,0,0-.1,0,0,0-.05,0,.05-.05,0-.06,0-.07-.11,0-.06,0-.18.07l-.08,0h0c-.11-.05,0,0-.07,0a0,0,0,0,1,0,0s0,0,0,0,0,0-.11,0,0,0,0,0,0,0-.05,0h-.1a.12.12,0,0,0-.08,0l-.05,0,0,0s0,0-.06,0h-.12c-.17,0-.11,0-.18,0s-.13.11-.19.11,0,.13-.14,0,0,0,0,0,0,0-.05,0-.06,0-.06,0,0,0,0,0,0,0,0,0,0,0,0,0h0s-.06,0-.05,0,0-.05,0,0-.07.06-.09,0h0a.17.17,0,0,1-.1,0l-.07,0a.1.1,0,0,1-.08,0s0-.06-.09,0-.08.05-.16.2c-.18.36-.36.22-.4.37s-.09.09-.19.35.1.12.08.21-.26.22-.31.32-.26,0-.35.17-.06.06-.09.18-.1,0-.21.31-.24.29-.28.51-.1.21-.16.37,0,.07,0,.06,0,0,0,0,0,.13,0,.12.06.1.06.12,0,0,0,.1,0,.07,0,.06,0,0,0,.06a.46.46,0,0,1,.07.36c0,.14-.1.14-.05.28a1.59,1.59,0,0,1-.1.22.53.53,0,0,1-.12.15s-.1,0,0,.06,0,0,.06,0,0,0,0,0,0,0,0,0,0,0,.07,0-.09,0-.05,0,0,0,0,.07,0,.09.06.07-.05,0,.15-.06c-.19,0-.07,0-.14.07h0s0,0,0,0,0,.12,0,.09,0,0,.06,0h.12a.06.06,0,0,1,.06,0h0s0,0-.05,0h0s0,0-.05,0h0c-.09,0,0,0-.07,0s0,0,0,.06,0,0,.08,0-.08,0,0,.05,0,0,0,0h0s0,0,0,0,0,0,.07,0,.07,0,.08,0,0,0-.13,0,0,.05,0,0,0-.06.09-.05,0,.07,0,.05,0,0,0,0,0,0,.05,0,0,.13.08.12.07.07.06.09,0,.11.08.11.06.14.11.13-.07,0,0,.06,0,0,0,0,.05,0,0,0h0s0,0,0,0,0,.05,0,.06.05.05,0,.06,0,0,0,.06,0,0,.06,0h0s0,0,0,0h0s.06,0,0,0,0,0,0,0a.22.22,0,0,0,.12,0c.13.07,0,0,.06.07s.06.08.13.09,0,.06.1.12.07.11.14.13,0,0,.06,0,.08.12.21.09,0,.06.08,0,.21-.07.22-.17c0,.12.11,0,.32,0h.19s0,0-.06,0,0,0-.06,0h.08s0,0,.05,0,0,0,.09,0a.4.4,0,0,0,.12,0c.13,0,.07,0,.14,0s0,0,.14,0a.32.32,0,0,0,.2-.06c.06,0,.07,0,0-.06a0,0,0,0,1,0,0s0,0,.09-.07.11,0,.15,0,.08,0,.06,0,0,0,0,0h.06c.07,0,.07,0,.08,0s0,0,.07,0,0,0,.08,0,.2.07.18.11,0,0,0,0-.06,0,0,0,0,.06,0,0,0-.06.06,0,0,0,0,0-.06,0,0,0,0,0,0,.05a.42.42,0,0,0,.15.08s0,0,0,0,0,0,0,0h.06s0,0,0-.06.09,0,.07,0,.11,0,.08,0,0,0,.07,0h0s0,0,0,0,0,0,.08.09.05,0,.06,0h0s0,0,0,0,.07,0,0,0,0,0,0,.05.06,0,0,.12,0,.09,0,.19-.05.05,0,.09-.07.09-.06.13,0,0,.06,0H67c-.12.06,0,.12-.12.11s0,.07.08.07,0,0,0,0-.08-.07-.1-.06,0,.09,0,.14,0,.11-.09.06,0,0,0,.1l.06.1s0,0,0,0,0,.09,0,.1,0,0,0,0a1.1,1.1,0,0,1,.15.17s.13.11.1.13.05,0,0,.06,0,0,.12.17,0,.06.07,0h0s0,0,0,0,0,.08,0,.09,0,.09,0,.09,0,0,0,.05,0,.07.08,0,0,0,.05,0h.05s-.09.05-.15.07.05.06.07.18.11.24.07.37,0,.09,0,.17.14.23.08.46-.08.08-.13.21-.06,0-.15.21,0,.58-.1.64,0-.06,0,.31.16.4.15.53.31.62.28.69,0,.06,0,.19.12.61.09.67a.46.46,0,0,0,.1.28l.07.07s0,.42.16.55,0,.15,0,.24,0,.07-.06.12,0,.1.05.15-.05.13.1.19c0,0,0-.06,0-.08s.05,0,.09.05a.16.16,0,0,0,.21,0c.06,0,.09,0,.11,0h0c.05,0,.08,0,.12-.06s.06,0,.1,0h.06a.28.28,0,0,1,.17,0c.07,0,.08,0,.09,0s0,0,.05,0,.08-.08.19-.09c.27,0,.31-.23.39-.28s.15-.25.24-.28.32-.55.46-.57.11-.06.22-.43c0-.12-.13-.14.19-.26s.32-.28.32-.32.1-.12.08-.23a1.63,1.63,0,0,1,0-.2c0-.14,0-.2-.06-.22s0-.25.15-.32.29-.35.45-.37.1-.1.14-.09.25-.14.31-.23.06,0,.13-.14.1-.14,0-.33,0-.23,0-.36.05-.15,0-.22,0-.15,0-.23-.09-.08-.08-.16-.13-.22-.05-.34,0-.07,0-.15-.23-.14-.08-.34,0-.18.12-.28,0,0,0-.08.07-.08.08-.17,0-.07,0-.19.11-.13.27-.29,0,0,.11-.19.21-.18.31-.35.2-.15.37-.35.3-.31.34-.46.23-.17.24-.42.19-.37.18-.49,0,0,.08-.17,0-.11,0-.1,0,0,0,0,0-.18,0-.17-.06,0,0-.18-.07-.06-.13,0-.2.14-.27.13-.07,0-.08,0,0,0-.1,0a.18.18,0,0,0-.12,0,.2.2,0,0,1-.16,0c-.14,0-.12,0-.24.07s-.29-.16-.34-.21h0s0,0-.1,0,0,0,0,0,.1,0,.13-.09-.07-.13-.14-.23,0,0,0,0,0-.05-.1-.13-.14-.24-.23-.24,0,0-.12-.06-.08-.15-.11-.09-.05,0-.1-.19-.09-.21-.21-.43c0-.07-.06-.11-.08-.08s0,0,0,0,0,0-.05,0-.06-.07-.08-.14a.72.72,0,0,1,0-.28c.05,0-.11-.17-.1-.25s0,0-.16-.18,0,0-.08-.13.1,0,0-.13-.16-.11-.19-.23-.11-.11-.25-.37.08,0,0-.14,0,0-.07-.12-.08-.13-.14-.19,0-.07-.07-.18,0-.08-.06-.21a.61.61,0,0,0,.11.2c.06.05,0,.09.11.16s.08.14.15.22.07.11.13,0,0-.07,0-.17,0-.12,0-.21.18.12.18.12-.11-.13-.18-.12.05,0,0,.09,0,.06,0,.15.06,0,.08.1.15.15.12.18.06.08.22.36,0,0,.1.24.13,0,.18.11.07.06.08.09a1.43,1.43,0,0,0,.17.41c.07.13-.07,0,0,.12s0,.06.13.17.2.29.32.41a.93.93,0,0,1,.2.27c.08.14,0,.1.07.15s0,0,0,.07c0,.34.08.27.08.31s.09.2.06.26,0,.1,0,.15.25.06.27,0,0,0,0,0,0,0,.08,0,.25,0,.32-.12.23,0,.31-.14.36-.14.39-.18.24-.06.19-.1.07-.15.14-.18.06,0,.12-.05.15,0,.23-.08,0-.08,0-.11.23,0,.2-.12a.13.13,0,0,1,.16-.15c.11,0,.06,0,0-.1s0-.31.07-.27.1-.26.14-.28,0-.07,0-.06M74,25.52s0,0,0,0,0-.08-.1,0,0,.06,0,.1-.08.09-.11.17,0,0,0,0,0,0-.05,0,0,.12,0,.13,0,0-.08.14-.07.06-.07,0,0,0,0,0-.09,0-.1.14-.05,0-.11,0-.13,0-.16.05a0,0,0,0,1-.06,0s-.05,0-.07.08-.11.12-.1.3,0,.17,0,.31,0,.1-.07.24-.11,0-.2.28.06.22,0,.45.28.32.42.2a.63.63,0,0,0,.32-.32,1.68,1.68,0,0,0,.16-.44,1.69,1.69,0,0,1,.22-.51c.14-.24.06-.33.22-.53s-.07-.14,0-.23,0,0,.05,0,0,0,.06,0a2,2,0,0,0-.08-.65M64.32,11.37h0v0h0s0,0,0,0,0,0,0,.06,0,0,0,0,0,0,0,.07,0,0,0,0,0-.05,0-.06v0s0,0,.07,0,0,0,0,0,0,0,0,0,0,0,0,.05,0,0,0,0,0,0,0,0h0l0,.05v0s0,0,0,0h0s0,0,0,0h.13l0,0s0,0,0,.08,0,0,0,0h0s0,0,0,0,0,0,0,0a.07.07,0,0,0,0,0s0,0,.06,0,0,0,0,0h0v0a0,0,0,0,0,0,0h-.05l0,0s0-.05-.05,0,.07,0,0,0,0,0,0,0,0,0,0,0h0s0,0,.06,0,0,0,0,0h0s0,0,0,0a.09.09,0,0,1-.08.06l-.08,0s0,0,0,0h0s0,0,.05,0h0v0s0,0,0,0h0a.09.09,0,0,0,.07,0s0,0,.06,0,0,0,.07,0,0,0,0,0l0,0s-.06,0-.08,0,0,0-.09,0,0,0,0,0,0,0,0,0l-.07,0a.12.12,0,0,1-.08,0s0,0,0,0h.06s0,0,0,0,0,0,0,0h.06l0,0h0s0,0,0-.05,0,0,.06,0a.07.07,0,0,1,.07,0h.05s.06,0,0,0,0,0,.05,0,0,0,0,0,0,0,0,0H65a.17.17,0,0,1,.1,0,.08.08,0,0,0,.07,0h0s0,0,.07,0,0,0,0,0h-.08l-.08,0h0a.06.06,0,0,0,.06,0s0,0,0,0h0a0,0,0,0,0,0,0s0,0,0,0,0,0,0,0,0,0,0,0,0-.09-.08-.1-.07,0-.09,0,0,0,0,0,0,0,0,0a0,0,0,0,0,0-.07l-.08,0,.07,0s0,0,0-.06.06,0,0,0,0-.06-.11-.07a0,0,0,0,1,0,0s0,0,0-.09,0,0-.05-.06l0,0h0c-.05,0,0,0-.09,0h-.07a.08.08,0,0,0,.08,0h0s0,0,0,0-.06,0-.06,0a.07.07,0,0,1,.05,0s0,0,.06,0,0,0,0-.06,0,0,0,0,0,0,0,0h-.11a.16.16,0,0,0-.1,0h0s0,0,0,0h0l0,0,0,0,.09-.05s0,0,0,0h-.19s0,0,0,0,0,0,0,0h0s0,0,0,0,0,0,0,0h0s0,0-.05,0,0,0,0,0,0,0,0,0,.06,0,0,0,0,0,0,0l-.06,0s0,0,0,0,.05,0,0,0m-.68.69h0l-.07,0s0,0,0,0h.1l-.08,0s0,0,0,0h0a.09.09,0,0,1,.07,0h.11s0,0,.06,0h.17v0h.09s0,0,0,0l0,0s0,0,0,0v-.07s0,0,0,0,0,0,0,0l0,0v0s0,0,0,0h0l0,0h0l0,0v0h-.05l0,0v0l0,0v0h-.06l-.05,0h0l0,0s0,0,0,0,0,0,0,0,0,0,0,0v0H64s0,0,0,0,0,0,0,0,0,0,0,0,0,0,0,0,0,0,.06,0,0,0,0,0,0,0,0,0,0,0,0,0,0,0,0,0h0l-.07,0h0v.05a.06.06,0,0,0-.05,0h.07s0,0,0,0,0,0,0,0h0s0,0,0,0,0,0,0,0h0l0,0s0,0,.07,0,0,0,0,0,0,0,0,0h0l0,0s0,0,0,0,0,0,0,0h.05a.06.06,0,0,0,.06,0h-.08s0,0,0,0,0,0,0,0v0h-.08s0,0,0,0h0m.51-.3,0,0,0,0m3.56,2.9h-.06a0,0,0,0,1,0,0s0,0-.05,0h-.12s0,0-.06,0h0a.06.06,0,0,1-.06,0s0,0-.07,0,0,.06.05.06.05,0,.09,0,0,.06.1.05a.1.1,0,0,1,.1,0h.09s0,0,0-.05,0-.06,0-.07,0,0,0-.06,0,0,0-.09m-1.23-3.39s0,0-.05,0,0,0-.07,0h-.08l0,0s0,0,0,0,0,0,0-.05h.06s0,0,0,0,0,0,.06,0,0,0,0,0,0,0,0-.05,0,0,0,0m.06.36s0,0-.05,0h0v0l0,0s.07,0,.09,0,0,0,0,0h0m.07,0s0,0,0,.07,0,0,.05,0h0s-.06,0,0,0,.09,0,.08,0,0,0,0-.06,0,0,0-.05,0,0,0-.05,0,0,0,0,0,0,0,0h0s0,0,0,0,0,0,0,0,0,0,0,0,0,0,0,0-.06,0,0,0,0,0,0,0-.09,0-.07,0m-.13,2.62s0,.05,0,.08,0,0,0,0,0,0,0,.11.06,0,0,.06h0s0-.05,0-.06h.05s0-.06,0-.08,0,0,0,0a.05.05,0,0,0,0-.06s0,0,0-.06l0-.07s0,0,0-.05,0,0,0,0,0,0,0,0h-.07v0s0,0,0,0m0-.34s0,.05,0,.05,0,.06,0,.06v0s0,0,0,0l0,0,0,0a.85.85,0,0,1,0-.09.18.18,0,0,0,0-.12.39.39,0,0,1,0-.07s0-.05,0,0a0,0,0,0,1,0,0s0,0,0,0-.06,0,0,0,0,0,0,0"/></g><path class="cls-8" d="M75,28.79A3.18,3.18,0,1,1,78.19,32,3.15,3.15,0,0,1,75,28.79Zm5.87,0a2.69,2.69,0,1,0-2.69,2.68A2.7,2.7,0,0,0,80.88,28.79ZM79.7,30.5h-.58l-1-1.6h-.58v1.6H77V27h1.51c.62,0,1.23.17,1.23.92s-.48.93-1.1.95Zm-1.62-2.09c.43,0,1.18.08,1.18-.47,0-.36-.47-.42-.84-.42h-.92v.89Z"/></g></g></svg>