<svg xmlns="http://www.w3.org/2000/svg" viewBox="0 0 144.17 153.27"><defs><style>.cls-1{fill:#fff;}.cls-2{fill:#4f4f4f;}.cls-3{fill:#c22026;}</style></defs><title>mioscreens</title><g id="Layer_2" data-name="Layer 2"><g id="Layer_1-2" data-name="Layer 1"><path class="cls-1" d="M81.3,9.7,72.68,0,64.21,9.53A72.13,72.13,0,1,0,81.3,9.7Z"/><path class="cls-2" d="M55.64,74.3a1.77,1.77,0,0,1-2.42,0,1.55,1.55,0,0,1-.5-1.16A1.66,1.66,0,0,1,53.2,72a1.6,1.6,0,0,1,1.18-.51,1.67,1.67,0,0,1,1.23.49,1.65,1.65,0,0,1,.5,1.2A1.55,1.55,0,0,1,55.64,74.3ZM53,86.44,53,76.09l3,0L56,86.42Z"/><path class="cls-2" d="M59.31,85.15a6.52,6.52,0,0,1-.05-7.85,5.48,5.48,0,0,1,7.52,0,6.44,6.44,0,0,1,.05,7.83,5.48,5.48,0,0,1-7.52.06Zm2.32-1.81a1.65,1.65,0,0,0,1.43.72,1.68,1.68,0,0,0,1.43-.74,4.56,4.56,0,0,0,0-4.26A1.67,1.67,0,0,0,63,78.33a1.64,1.64,0,0,0-1.42.75,4.64,4.64,0,0,0,0,4.26Z"/><path class="cls-3" d="M69.86,85.61l.32-.76a4.29,4.29,0,0,0,2.68.89,2.5,2.5,0,0,0,1.65-.54,1.84,1.84,0,0,0,.63-1.5,1.56,1.56,0,0,0-.52-1.18,4,4,0,0,0-1.23-.76l-1.45-.58a3,3,0,0,1-1.24-.94,2.51,2.51,0,0,1-.52-1.59A2.42,2.42,0,0,1,71,76.7a3.28,3.28,0,0,1,2.19-.75,5.14,5.14,0,0,1,2.55.72l-.32.69a4.29,4.29,0,0,0-2.23-.61,2.37,2.37,0,0,0-1.61.51,1.75,1.75,0,0,0-.55,1.38,1.65,1.65,0,0,0,.52,1.23,3.84,3.84,0,0,0,1.23.79l1.45.59a3.22,3.22,0,0,1,1.25.9A2.27,2.27,0,0,1,76,83.65a2.62,2.62,0,0,1-.9,2.08,3.32,3.32,0,0,1-2.25.81A5.18,5.18,0,0,1,69.86,85.61Z"/><path class="cls-3" d="M78.82,85.11a7.16,7.16,0,0,1-.05-7.8,4.1,4.1,0,0,1,3.34-1.42,5,5,0,0,1,3.44,1.21l-.45.61a4.52,4.52,0,0,0-2.94-1,3.3,3.3,0,0,0-2.76,1.2,6.5,6.5,0,0,0,0,6.65,3.31,3.31,0,0,0,2.78,1.15,4.54,4.54,0,0,0,2.95-1.1l.46.6a5,5,0,0,1-3.44,1.3A4.11,4.11,0,0,1,78.82,85.11Z"/><path class="cls-3" d="M87.32,86.21l-.07-10.12H88L88.08,78h.09a4.94,4.94,0,0,1,1.24-1.53,2.74,2.74,0,0,1,1.79-.67,3.45,3.45,0,0,1,1,.12L92,76.7a3,3,0,0,0-.78-.08,2.66,2.66,0,0,0-2,1.15,4.8,4.8,0,0,0-1.08,2.69l0,5.74Z"/><path class="cls-3" d="M94.28,85a7,7,0,0,1-.11-7.75,4,4,0,0,1,3.22-1.42A3.8,3.8,0,0,1,100.48,77a5,5,0,0,1,1.08,3.33,2.64,2.64,0,0,1-.06.67l-7.61.05A4.72,4.72,0,0,0,95,84.54a3.78,3.78,0,0,0,2.77,1,6.27,6.27,0,0,0,3.21-1l.35.69a6.8,6.8,0,0,1-3.57,1.13A4.26,4.26,0,0,1,94.28,85Zm-.36-4.69,6.82,0a4.28,4.28,0,0,0-.91-2.69,3,3,0,0,0-2.43-1,3.44,3.44,0,0,0-2.32.86A4.14,4.14,0,0,0,93.92,80.27Z"/><path class="cls-3" d="M104.44,84.89a7,7,0,0,1-.11-7.75,4,4,0,0,1,3.22-1.42A3.8,3.8,0,0,1,110.64,77a5,5,0,0,1,1.08,3.33,2.64,2.64,0,0,1-.06.67L104,81a4.72,4.72,0,0,0,1.1,3.47,3.78,3.78,0,0,0,2.77,1,6.26,6.26,0,0,0,3.21-1l.35.69a6.8,6.8,0,0,1-3.57,1.13A4.26,4.26,0,0,1,104.44,84.89Zm-.36-4.69,6.82,0a4.28,4.28,0,0,0-.91-2.69,3,3,0,0,0-2.43-1,3.44,3.44,0,0,0-2.32.86A4.13,4.13,0,0,0,104.08,80.2Z"/><path class="cls-3" d="M113.92,86l-.07-10.12h.71l.12,1.77h.09a5,5,0,0,1,3.7-2,3,3,0,0,1,2.37,1,4.5,4.5,0,0,1,.87,3l0,6.36h-.82l0-6.17a4.65,4.65,0,0,0-.58-2.52,2.09,2.09,0,0,0-1.9-.85q-1.83,0-3.72,2.33l.05,7.25Z"/><path class="cls-3" d="M123.6,85.24l.32-.76a4.29,4.29,0,0,0,2.68.89,2.5,2.5,0,0,0,1.65-.54,1.84,1.84,0,0,0,.63-1.5,1.56,1.56,0,0,0-.51-1.18,4,4,0,0,0-1.23-.76l-1.45-.58a3,3,0,0,1-1.24-.94,2.51,2.51,0,0,1-.52-1.59,2.42,2.42,0,0,1,.85-1.95,3.28,3.28,0,0,1,2.2-.75,5.14,5.14,0,0,1,2.55.72l-.32.69a4.29,4.29,0,0,0-2.23-.61,2.36,2.36,0,0,0-1.61.51,1.74,1.74,0,0,0-.55,1.38,1.65,1.65,0,0,0,.51,1.23,3.86,3.86,0,0,0,1.23.79l1.45.59a3.23,3.23,0,0,1,1.24.9,2.27,2.27,0,0,1,.52,1.51,2.62,2.62,0,0,1-.9,2.08,3.32,3.32,0,0,1-2.25.81A5.18,5.18,0,0,1,123.6,85.24Z"/><rect class="cls-3" x="35.96" y="84.44" width="14.63" height="2.12" transform="translate(86.56 171) rotate(180)"/><path class="cls-2" d="M39,83l0-3.57a2.39,2.39,0,0,1,1.72-.92.93.93,0,0,1,.89.4,3.38,3.38,0,0,1,.25,1.53l0,2.55h3l0-2.77a7.67,7.67,0,0,0,0-.91,2.58,2.58,0,0,1,1.74-.85,1,1,0,0,1,.89.42,3.13,3.13,0,0,1,.27,1.52l0,2.59h3l0-2.81a4.6,4.6,0,0,0-1-3.16A3.33,3.33,0,0,0,47,75.89a4,4,0,0,0-2.9,1.44,3.44,3.44,0,0,0-5.46-.11h-.09l-.22-1-2.35,0L36,83Z"/><path class="cls-2" d="M33.25,90.18H14.54V71.47H33.25ZM16.68,88H31.11V73.61H16.68Z"/><rect class="cls-3" x="18.2" y="78.83" width="6.57" height="0.95" transform="translate(42.96 158.62) rotate(180)"/><path class="cls-2" d="M19.54,78.17v-1.6a1.07,1.07,0,0,1,.77-.41.42.42,0,0,1,.4.18,1.52,1.52,0,0,1,.11.69v1.15h1.34V76.93a3.44,3.44,0,0,0,0-.41,1.16,1.16,0,0,1,.78-.38.43.43,0,0,1,.4.19,1.41,1.41,0,0,1,.12.68v1.16h1.34V76.91a2.06,2.06,0,0,0-.46-1.42,1.49,1.49,0,0,0-1.17-.5,1.78,1.78,0,0,0-1.3.65,1.54,1.54,0,0,0-2.45-.05h0l-.1-.46H18.18l0,3Z"/></g></g></svg>