<svg xmlns="http://www.w3.org/2000/svg" viewBox="0 0 115.22 18.74"><defs><style>.cls-1{fill:#4f4f4f;}.cls-2{fill:#c22026;}</style></defs><title>mioscreens logo</title><g id="Layer_2" data-name="Layer 2"><g id="Layer_1-2" data-name="Layer 1"><path class="cls-1" d="M41.1,2.86a1.77,1.77,0,0,1-2.42,0,1.55,1.55,0,0,1-.5-1.16,1.66,1.66,0,0,1,.49-1.2A1.6,1.6,0,0,1,39.85,0a1.67,1.67,0,0,1,1.23.49,1.65,1.65,0,0,1,.5,1.2A1.55,1.55,0,0,1,41.1,2.86ZM38.49,15,38.41,4.65l3,0L41.46,15Z"/><path class="cls-1" d="M44.78,13.71a5.71,5.71,0,0,1-1.34-3.92,5.71,5.71,0,0,1,1.29-3.93,4.75,4.75,0,0,1,3.74-1.51,4.76,4.76,0,0,1,3.78,1.47,5.69,5.69,0,0,1,1.35,3.91,5.69,5.69,0,0,1-1.3,3.92,4.76,4.76,0,0,1-3.75,1.52A4.74,4.74,0,0,1,44.78,13.71Zm2.32-1.81a1.65,1.65,0,0,0,1.43.72A1.68,1.68,0,0,0,50,11.88a3.63,3.63,0,0,0,.51-2.14,3.64,3.64,0,0,0-.54-2.12,1.67,1.67,0,0,0-1.44-.73,1.64,1.64,0,0,0-1.42.75,3.69,3.69,0,0,0-.5,2.13A3.68,3.68,0,0,0,47.09,11.9Z"/><path class="cls-2" d="M55.33,14.17l.32-.76a4.29,4.29,0,0,0,2.68.89A2.5,2.5,0,0,0,60,13.76a1.84,1.84,0,0,0,.63-1.5,1.56,1.56,0,0,0-.52-1.18,4,4,0,0,0-1.23-.76L57.4,9.73a3,3,0,0,1-1.24-.94,2.51,2.51,0,0,1-.52-1.59,2.42,2.42,0,0,1,.85-1.95,3.28,3.28,0,0,1,2.19-.75,5.14,5.14,0,0,1,2.55.72l-.32.69a4.29,4.29,0,0,0-2.23-.61,2.37,2.37,0,0,0-1.61.51,1.75,1.75,0,0,0-.55,1.38A1.65,1.65,0,0,0,57,8.42a3.84,3.84,0,0,0,1.23.79l1.45.59a3.22,3.22,0,0,1,1.25.9,2.27,2.27,0,0,1,.52,1.51,2.62,2.62,0,0,1-.9,2.08,3.32,3.32,0,0,1-2.25.81A5.18,5.18,0,0,1,55.33,14.17Z"/><path class="cls-2" d="M64.29,13.67a5.93,5.93,0,0,1-1.18-3.89,6,6,0,0,1,1.13-3.91,4.1,4.1,0,0,1,3.34-1.42A5,5,0,0,1,71,5.65l-.45.61a4.52,4.52,0,0,0-2.94-1,3.3,3.3,0,0,0-2.76,1.2A5.31,5.31,0,0,0,64,9.78a5.26,5.26,0,0,0,.94,3.32,3.31,3.31,0,0,0,2.78,1.15,4.54,4.54,0,0,0,2.95-1.1l.46.6A5,5,0,0,1,67.65,15,4.11,4.11,0,0,1,64.29,13.67Z"/><path class="cls-2" d="M72.78,14.76,72.71,4.65h.71l.12,1.94h.09a4.94,4.94,0,0,1,1.24-1.53,2.74,2.74,0,0,1,1.79-.67,3.45,3.45,0,0,1,1,.12l-.19.76a3,3,0,0,0-.78-.08,2.66,2.66,0,0,0-2,1.15A4.8,4.8,0,0,0,73.56,9l0,5.74Z"/><path class="cls-2" d="M79.74,13.52a5.85,5.85,0,0,1-1.23-3.88,5.9,5.9,0,0,1,1.13-3.87,4,4,0,0,1,3.22-1.42,3.8,3.8,0,0,1,3.09,1.24A5,5,0,0,1,87,8.91a2.64,2.64,0,0,1-.06.67l-7.61.05a4.72,4.72,0,0,0,1.1,3.47,3.78,3.78,0,0,0,2.77,1,6.27,6.27,0,0,0,3.21-1l.35.69a6.8,6.8,0,0,1-3.57,1.13A4.26,4.26,0,0,1,79.74,13.52Zm-.36-4.69,6.82,0a4.28,4.28,0,0,0-.91-2.69,3,3,0,0,0-2.43-1A3.44,3.44,0,0,0,80.53,6,4.14,4.14,0,0,0,79.39,8.83Z"/><path class="cls-2" d="M89.9,13.45a5.85,5.85,0,0,1-1.23-3.88,5.91,5.91,0,0,1,1.13-3.87A4,4,0,0,1,93,4.27,3.8,3.8,0,0,1,96.1,5.51a5,5,0,0,1,1.08,3.33,2.64,2.64,0,0,1-.06.67l-7.61.05A4.72,4.72,0,0,0,90.61,13a3.78,3.78,0,0,0,2.77,1,6.26,6.26,0,0,0,3.21-1l.35.69a6.8,6.8,0,0,1-3.57,1.13A4.26,4.26,0,0,1,89.9,13.45Zm-.36-4.69,6.82,0A4.28,4.28,0,0,0,95.45,6a3,3,0,0,0-2.43-1,3.44,3.44,0,0,0-2.32.86A4.13,4.13,0,0,0,89.55,8.76Z"/><path class="cls-2" d="M99.38,14.58,99.31,4.46H100l.12,1.77h.09a5,5,0,0,1,3.7-2,3,3,0,0,1,2.37,1,4.5,4.5,0,0,1,.87,3l0,6.36h-.82l0-6.17a4.65,4.65,0,0,0-.58-2.52,2.09,2.09,0,0,0-1.9-.85Q102,5,100.15,7.33l.05,7.25Z"/><path class="cls-2" d="M109.06,13.8l.32-.76a4.29,4.29,0,0,0,2.68.89,2.5,2.5,0,0,0,1.65-.54,1.84,1.84,0,0,0,.63-1.5,1.56,1.56,0,0,0-.51-1.18,4,4,0,0,0-1.23-.76l-1.45-.58a3,3,0,0,1-1.24-.94,2.51,2.51,0,0,1-.52-1.59,2.42,2.42,0,0,1,.85-1.95,3.28,3.28,0,0,1,2.2-.75,5.14,5.14,0,0,1,2.55.72l-.32.69a4.29,4.29,0,0,0-2.23-.61,2.36,2.36,0,0,0-1.61.51,1.74,1.74,0,0,0-.55,1.38,1.65,1.65,0,0,0,.51,1.23,3.86,3.86,0,0,0,1.23.79l1.45.59a3.23,3.23,0,0,1,1.24.9,2.27,2.27,0,0,1,.52,1.51,2.62,2.62,0,0,1-.9,2.08,3.32,3.32,0,0,1-2.25.81A5.18,5.18,0,0,1,109.06,13.8Z"/><rect class="cls-2" x="21.43" y="13" width="14.63" height="2.12" transform="translate(57.49 28.12) rotate(180)"/><path class="cls-1" d="M24.42,11.53l0-3.57A2.39,2.39,0,0,1,26.11,7a.93.93,0,0,1,.89.4A3.38,3.38,0,0,1,27.25,9l0,2.55h3l0-2.77a7.67,7.67,0,0,0,0-.91A2.58,2.58,0,0,1,31.92,7a1,1,0,0,1,.89.42,3.13,3.13,0,0,1,.27,1.52l0,2.59h3l0-2.81a4.6,4.6,0,0,0-1-3.16,3.33,3.33,0,0,0-2.61-1.1,4,4,0,0,0-2.9,1.44,3.44,3.44,0,0,0-5.46-.11H24l-.22-1-2.35,0,0,6.76Z"/><path class="cls-1" d="M18.71,18.74H0V0H18.71ZM2.14,16.6H16.57V2.17H2.14Z"/><rect class="cls-2" x="3.66" y="7.39" width="6.57" height="0.95" transform="translate(13.89 15.73) rotate(180)"/><path class="cls-1" d="M5,6.73V5.13a1.07,1.07,0,0,1,.77-.41.42.42,0,0,1,.4.18,1.52,1.52,0,0,1,.11.69V6.73H7.62V5.49a3.44,3.44,0,0,0,0-.41,1.16,1.16,0,0,1,.78-.38.43.43,0,0,1,.4.19,1.41,1.41,0,0,1,.12.68V6.73h1.34V5.47a2.06,2.06,0,0,0-.46-1.42,1.49,1.49,0,0,0-1.17-.5,1.78,1.78,0,0,0-1.3.65A1.48,1.48,0,0,0,6,3.57a1.47,1.47,0,0,0-1.17.58h0l-.1-.46H3.65l0,3Z"/></g></g></svg>