<svg xmlns="http://www.w3.org/2000/svg" xmlns:xlink="http://www.w3.org/1999/xlink" viewBox="0 0 108.88 50.42"><defs><style>.cls-1{fill:none;clip-rule:evenodd;}.cls-2,.cls-3{fill:#ffcd27;}.cls-3{fill-rule:evenodd;}.cls-4{clip-path:url(#clip-path);}.cls-5{fill:#fff;opacity:0.59;}.cls-6{fill:#383838;}</style><clipPath id="clip-path"><path class="cls-1" d="M92.19,29.5a11.91,11.91,0,1,1,11.87-11.89A11.88,11.88,0,0,1,92.19,29.5"/></clipPath></defs><title>ordermio logo</title><g id="Layer_2" data-name="Layer 2"><g id="Layer_1-2" data-name="Layer 1"><path class="cls-2" d="M64.09,11.91h0a8.59,8.59,0,0,0-1.83-2.66,8.73,8.73,0,0,0-2.67-1.78,8.41,8.41,0,0,0-6.44,0A8.43,8.43,0,0,0,51,8.7a8.94,8.94,0,0,0-2.14-1.27,8.07,8.07,0,0,0-3.14-.62,8.25,8.25,0,0,0-3.28.66,8.73,8.73,0,0,0-2.67,1.78A8.57,8.57,0,0,0,38,11.91a8,8,0,0,0-.68,3.29V27.74h6.37V14.86a2,2,0,0,1,.7-1.22,2.08,2.08,0,0,1,1.4-.5,2,2,0,0,1,1.46.6,2.11,2.11,0,0,1,.64,1.47V27.74h6.37V15.07a2.12,2.12,0,0,1,3.48-1.43,2.21,2.21,0,0,1,.73,1.24V27.74h6.37V15.2A8.05,8.05,0,0,0,64.09,11.91Z"/><rect class="cls-2" x="69.38" y="8.06" width="6.37" height="19.68"/><circle class="cls-2" cx="72.56" cy="3.18" r="3.18"/><path class="cls-3" d="M92.19,29.5a11.91,11.91,0,1,1,11.87-11.89A11.88,11.88,0,0,1,92.19,29.5"/><g class="cls-4"><path class="cls-5" d="M90.39,21.17c0,.11,0,.32-.06.42s-.09.18-.22.29-.13.38-.25.48,0,0-.07,0-.06,0,0,.06,0,.18,0,.34,0,.17,0,.36-.1.11,0,.27-.12.09-.07.26-.17.16-.14.36-.05.09-.11.15-.12.09-.14.07h0a.14.14,0,0,1-.12,0s-.08,0-.11,0-.12.07-.31.25a.26.26,0,0,0-.07.33c0,.14.09.23,0,.29s.07.06-.11.19,0,.16-.12.27,0,.22-.12.31.07.1-.19.27a.26.26,0,0,1-.35.09.08.08,0,0,0-.09,0,.06.06,0,0,1-.07,0c0-.05-.22,0-.25-.22-.05.17.1.17,0,.2s.31.08.31.23.05.13.09.13h0c0,.13,0,.1,0,.18s-.14.14-.24.19a.42.42,0,0,1-.31,0h0s0,0,0,0,0,0,0,0,0,.06,0,.07,0,.05.05.06,0,.06,0,.06,0,.1,0,.12-.12.13-.21.08-.13,0-.11,0-.13,0,0,0,0,.2.14.19c0,0,0,0,.06,0s-.06,0,0,0,0,0,.06.07a0,0,0,1,1,0,0s-.12,0-.12,0,.1,0,.11,0-.07,0-.05.06,0,0,0,.11-.06,0,0,.12-.08,0-.1.06-.07,0-.08.1.05.09.09.14.08.06.11.05,0,0,.08,0,0,.16,0,.17c-.21-.11-.43-.2-.64-.32s-.38-.2-.59-.35c0,0-.09-.06,0-.24s0-.05,0-.09,0-.06-.06-.1a0,0,0,0,0,0,0h0s0,0,0,0h0c-.06-.09,0-.11-.07-.21s.11,0,0-.21,0-.14-.07-.16,0,0,0-.08-.08-.08-.07-.13,0,0,0,0,.09.06,0,0,0-.06,0-.1,0,0,0-.12.06,0,0-.13,0-.12,0-.21,0-.1-.08-.25a1.69,1.69,0,0,1-.14-.39s0,0,0,0h0s0,0,0,0h0s0,0,0,0,0,0,0-.07-.08,0-.05-.22a3.24,3.24,0,0,0,0-.33c0-.18,0-.16,0-.2s0,0,0-.13,0-.08-.07-.18,0,0,0-.15,0-.08,0-.07,0,0,0,0,0-.06,0-.17,0-.05,0,0,0,0,0,0,0-.16,0-.2,0,0,0-.11,0-.09-.06-.11-.12-.09-.14-.13-.33-.21-.37-.24-.2-.05-.26-.14-.13-.09-.19-.16-.13-.1-.16-.16,0,0,0,0h0s-.13-.17-.1-.23,0,0,0-.12-.08-.08-.12-.21-.13-.26-.18-.41-.08-.08-.1-.14-.08-.07-.12-.14,0,0-.17-.17a.16.16,0,0,1-.05-.15c0-.06,0,0-.05-.13s0-.07,0-.07,0,0,0,0,0-.06,0-.09.07-.11.09-.11,0,0,.11-.13,0-.06,0-.08,0,0,0,0,0,.07,0,0-.06,0,0,0,0,0,0,0,0,0,0-.07,0,0,0-.05,0,0,0,0,0-.07.06-.18,0,0,0-.13,0,0,0,0,0,0,0,0,.05,0,.08,0,.07,0,.1-.06,0,0,0,0,0,0,0,0,.07-.05.08,0h0s-.06-.06,0-.11.16,0,.16-.09a.32.32,0,0,1,.13-.16s0,0,0,0,0,0-.06,0,0-.06,0-.09a.58.58,0,0,0,0-.2s0,0,0,0h0s.08,0,0-.09,0-.06,0-.06,0,0,0,0,0-.05,0-.07,0,0,0,0h0s0,0,0,0,0,0,0-.05,0-.07,0-.1,0,0,.05,0,0,0,0-.07,0,0-.08.08,0-.07,0-.06,0,0,0,0,0,0-.08,0-.1,0-.08,0,0,0-.1.1,0,0,0,.06.05,0,0,.06-.1,0-.11,0,0-.06,0-.08,0,0,0,0,0,0-.06-.05,0-.06-.09-.07,0,0-.05,0h0s0,0,0,0,0,0,0,0,0,0,0,0,0,0,0,0-.06,0,0,0,0,0,0,0,0,0,0-.05,0,0,0,0a.76.76,0,0,0-.16-.11c-.07,0,0,0,0-.06s0,0,0,0,0,.06,0,0-.07,0,0-.08,0-.05,0-.07-.07,0,0,0,.06,0,0,0,0,0-.08-.11-.08-.2-.14-.26,0-.06,0,0v0s0-.07-.06,0-.17,0-.27,0,0,0-.12,0-.17,0-.27-.17a.4.4,0,0,0-.13-.15c-.13-.12-.16-.07-.2-.1s.05-.05,0,0h-.07s.08,0,0,0,0,0-.12,0-.07.08-.19,0a.13.13,0,0,1-.15,0s-.06,0-.11-.07-.11,0-.15,0c0-.26,0-.52.09-.77s.08-.5.14-.75.14-.56.19-.75.14-.5.24-.75.18-.5.29-.73.2-.46.33-.69.24-.46.38-.69.27-.44.42-.66.31-.43.48-.64.35-.43.52-.63.43-.42.61-.61.31-.28.5-.46l.09-.06a.9.9,0,0,1,.33,0s0,0,.06,0H85a.06.06,0,0,0,.06,0s0,0,0,0,.08.07.08,0-.06,0-.08-.08.07,0,.08,0,0,0,0,0,.11,0,0,0,0,0-.07.09c.13,0,0,0,.13-.1s0,0,.08,0h.1c.11,0,.17,0,.14,0s0,0,0,0a0,0,0,0,1,0,0s.07-.07.11-.06.13,0,.12-.05l-.09,0a.18.18,0,0,1-.12,0h0s0,0-.07,0,.15-.07.12-.12,0,0,.1-.08,0,0,0,0h0c.06,0-.11,0,.06-.06s.17,0,.14.05.09.08,0,.11,0,0-.05,0,0,0,0,0,.07,0,0,.09c.06,0,.15,0,0,.08A.21.21,0,0,0,86,8.31c.05-.06.16,0,.09.07s0,.07,0,.13c.17-.13.25-.11.3-.15s.06-.05.11-.06,0-.12.13-.09.14,0,.19,0,.13.06.08.07,0,0-.09,0,0,0,0,0,.07.06-.05.12a.17.17,0,0,1-.13,0,.12.12,0,0,0-.08,0l-.08,0h-.06c-.05,0-.07,0-.13-.05s0,0,0,0h0a.09.09,0,0,1,0,0s0,0,0,0h-.06c-.05,0-.06,0-.06,0s0,0-.12,0,.19,0-.09.1-.12.06-.24.05,0-.09-.2-.08c.13,0,.07.07.16.09h.1s.05,0,0,0-.15.1-.23.1h-.06s-.07,0-.1,0,0,0-.09.05h-.08a.74.74,0,0,0-.25,0c.12,0,.13,0,.07,0,.12,0,.15,0,.17,0s0,.06-.12.05,0,0-.08,0-.12.06-.17.07-.18.1-.22.1.05,0-.15.09,0,0-.07,0,0,0-.07.06,0,.1-.15.16c.05,0,.05,0,0,0s0,0,.1,0,.06.05,0,.07,0,.08,0,.1-.06,0-.08,0,0,0-.07,0h.08c.06,0,.22-.09.24,0s.21,0,.23.09,0,0,0,0h.05c.09.05.14,0,.12.07s.05,0,.12,0,.11,0,.12,0,0,0,.06,0,.06,0,0,0,0,0,0,.09,0,0,0,0h0s0,0-.1,0,.13,0,.12.07,0,0-.08.06c.17,0,.06.14.1.17s0,0-.07.07l.09,0s0,0,0,0,0,.06,0,0h0s0,0,0,0,.05,0,.11-.05,0,.06.08.1,0-.06,0-.06-.05,0,0-.07.16,0,.15-.13,0-.06,0-.09,0-.12,0-.12h0s-.06,0,0-.05a1.08,1.08,0,0,0,.56-.24c.28-.28,0-.29,0-.34s-.06,0,.11-.09,0,0,.09,0-.05,0,.06-.09-.07,0,.06-.1,0-.15.12-.19a.38.38,0,0,1,.28,0,.15.15,0,0,0,.14,0s.08,0,.19,0,0,.06.07.09,0,0,.06,0a0,0,0,0,1,0,0s0,0,0,.06,0,0,.05,0,0,0,0,0,0,0-.06.05.1.06-.11.09c0,0,.06,0,.07,0s-.16.07-.15.13.19,0,.13,0-.11.06-.1,0,0,0-.08.06.09,0,.06,0,.23-.14.22-.08,0,0,0,0h0c0-.06.11-.07.16-.13s0,0,0,0,0,0,0,0,0-.06.08-.08,0-.08.07-.1S88,9.2,88,9.25s.07,0,.06.07,0,0,0,.07,0,0,0,.07.08,0,0,.12.05.11-.09.12c0,0,.06,0,.14,0s-.06.06,0,.1,0,.15,0,.12,0,0,0,0,0,0,0,0,0,0,0,0,0,0,0,0,0,0,0,0,0,0,0,0,.17,0,.06,0a1.39,1.39,0,0,1-.27.05c-.15,0,0,0-.13.07a.65.65,0,0,0,.28-.05c.08,0,.11,0,.16,0s0,0,0,0,0,0,.08,0,.08.06,0,.08,0,.05,0,.06.1,0-.05.12-.08,0-.09,0,0,0-.1,0-.11,0-.1.06h0s0,0-.06,0l0,0s0,0-.16,0-.14,0-.16,0,0,0-.13,0-.07,0-.09,0a.7.7,0,0,0-.26,0c-.27,0-.34,0-.34.08s-.07.05-.16.07-.08.08-.13.05,0,0-.07,0-.28.2-.35.22,0,0-.14.11a.43.43,0,0,0,.17-.09,2.69,2.69,0,0,1,.68-.28c.15,0,.24,0,.23,0s0,0,0,0h0s0,0,0,0,0,0-.14.05-.06,0-.08,0A.12.12,0,0,0,87,11S87,11,87,11h0s0,0,0,0,0,.06-.08.09.08.07.09.16,0,.06.15.06,0,.08.1,0,.05,0,0,0,0,0,0,0,0,0,0,0a.12.12,0,0,1-.09.07c-.06,0-.11.1-.18.07s0,0,0,0,0,0-.06,0,0,0-.12,0,0,0,0,.06-.14.08-.15.07,0,0,0,0,0-.05,0-.06,0-.07.11-.16a.24.24,0,0,1,.18-.05h0s0,0,.15,0a.3.3,0,0,1-.14,0,.13.13,0,0,0-.08,0h-.05s.16-.06.06-.11,0,0-.1.1a.19.19,0,0,1-.12,0s0,0,0,0-.18.11-.18.11-.08-.05-.11,0,0,0,0,0,0,0,0,0-.06.08-.07.07a0,0,0,0,0,0,0c-.06,0-.11,0-.17.09s0,0-.09.09-.06.06,0,.12,0,0,0,0,0,0,0,0-.13,0-.13,0-.07.08-.12.06,0,0-.12,0-.12.07-.18.08,0,0,0,0,0,0,0,.06-.06,0-.08.07,0,0-.08,0,0,0,0,.06,0,0,0,0,0,0,0,0,0,0-.09.07,0,.07,0,0,0,0-.06-.09,0,0,0,.06,0,0,0,.06,0,.13-.07.16l0,0s0-.06,0,0-.07.14-.12.17,0,0,0-.05,0-.06,0-.1,0,0,0-.08,0,0,0-.06,0,0-.06,0,0,.11-.05.08,0,.05,0,0,0,0,.06.09h-.07s.09,0,0,.08,0,.07,0,.12,0,.13,0,.13h0s0,0-.06,0,0,0,0,0h0s0,0,0,0,0,0,0,0,0,0-.1,0,0,0,0,0,0,0,0,0h0s0,.07-.1.08-.11.09-.13.08,0,0-.07.05-.06.06-.09.05-.13,0-.14.07,0,0-.09.08-.1.06-.11,0h0a.05.05,0,0,1-.08,0s0,0,0,0,0,0,0,.06,0,0-.07.06c-.19.23-.11.22-.15.26s0,.18,0,.26,0,0,0,0,0,0,0,0,0,.18,0,.18,0,0,0-.05,0-.09,0,0,.05.16,0,.19,0,.14-.05.23,0,0,0,.08,0,0,0,0h0s0,0,0,0h0a.05.05,0,0,1-.07,0s0,0,0,0,0,0,0,0,0,0,0-.06-.07,0-.06-.09,0-.06,0-.09,0,0,0,0c-.06-.16,0-.14,0-.18s.12-.19.06-.23,0-.09-.07-.1,0-.09-.13,0-.08,0-.09,0h0s-.07,0,0,0,0,0-.16-.06.1,0,.07,0-.18,0-.14,0-.11,0-.14,0,0,0-.06,0,0,0,0,0,0,0,0,0,0,0-.07,0h0a.1.1,0,0,1-.1,0s0,0-.05,0,.13,0,.08.08.05,0,0,0,.08,0,0,.05,0,0-.07,0h0s0,0,0,0-.12,0-.14,0h0s0,0,0,0,0,0-.07,0a.1.1,0,0,1-.1,0s-.09-.05-.19,0-.14.1-.11.07,0,0,0-.09c-.1,0,0,.05-.07.08s.06,0,0,.06-.09.08-.11.06h-.07s0,0,0,0h0v0s0,0-.05,0,0,.08-.07.09,0,.07-.07.06,0,0,0,0,0,0,0,.07-.07.07,0,.1,0,0,0,.11a.21.21,0,0,1-.07.16c-.1.12-.06.34-.13.44s0,.17,0,.24,0,.19.08.28,0,.09,0,.11,0,.1.07.09,0,0,.08,0,.07.07.14,0,.12,0,.2-.06.1,0,.15,0,.08,0,0,0,0,.05,0,0-.05,0,.07-.08,0-.12.08-.14,0-.09,0-.17.24-.12.25-.11,0,0,.08,0a.28.28,0,0,1,.12,0h.07s0,0,0,0,0,0,0,0,0,0,0,0-.05.08-.08.13,0,.09-.07.09h0s.05,0,0,.06-.07.18-.1.2,0,.1,0,.11,0-.06,0-.14-.05,0,0,.06,0,.11,0,.17,0,.11-.08.17-.07,0-.06.1,0,0,0,0,0,0,0,0,0,0,.08,0,0,0,.07,0a.31.31,0,0,0,.16,0,.32.32,0,0,1,.16,0h.05a.17.17,0,0,1,.09,0c.09,0,0,0,0,0h0l.07,0s0,0,0,0,0,0,0,0,.06.07.09.08-.08.05,0,.07,0,.13,0,.13,0,0,0,.11a.29.29,0,0,0,0,.12s-.05.06,0,0,0,0,0,0,0,.07,0,0,0,0,0,0l0,0s0,.06,0,.08,0,.12,0,.15,0,0,0,0,.07.14.1.17.06,0,0,0,0,0,0,0-.05,0,0,0,0,0,0,0l.06.06a.23.23,0,0,0,.16,0s.1,0,.12,0,0,0,0,0l0,0,.05,0c.08,0,0,0,0,0s0-.05,0-.07a.1.1,0,0,1,.09,0h0l.08,0c.1.06,0,0,0,.05s0,0,.07.06,0,0,.11.12l0,0s0,0,0,0-.05,0,0-.05,0,0,.09-.08.06-.06.08-.06h0c.07-.06,0,0,0-.09s0-.11,0-.13,0-.07.13-.1,0,0,.07,0,.05-.1.09-.1.06,0,.21-.09,0-.1.09-.1,0,0,.1,0,.07.05,0,.1,0,0,0,0,0,.11,0,.12,0,0,0,0,0,0,0,0-.09.06-.11.12.08.06.08.1.13,0,.13,0a.25.25,0,0,0,0-.15s-.05,0,0,0,0,0,0-.09a.21.21,0,0,1,.14-.08c.07,0,0-.06.06,0s0,0,0,0,0,0,0,0,0,0,0,0,.08-.05.09,0,0,0,.09.06H85s.1.07.05.09,0,.07.15.05.26,0,.24,0,0,.06.19,0,0-.06.16-.08c-.14,0-.07,0,0,0h.25s-.06,0-.15,0-.06,0,0,0,0,0,.08.12.08,0,.1,0,.11.05.1.12.05,0,0,0,0,0,0,0,0,.06-.08.05c.06,0,.08,0,.1,0s0,0,.08.05.09,0,.19.09.11.09.05.2,0,0,.1,0,0,.08.08.09,0,.16,0,.16l.07-.08s.07,0,.11,0,.07,0,.09,0a.06.06,0,0,1,.06,0h0a.08.08,0,0,1,.06,0h0s.13,0,.13,0,0,0,.06,0,.09,0,.13.08,0,0,0,0,0,0,0,0,0,0,.05.06,0,0,0,.09,0,0,.07.06,0,0,0,0,0,0,0,0a3.19,3.19,0,0,0,.12.38.09.09,0,0,1,0,.17c-.07.05,0,.09-.11.14s-.07.12-.09.22a.18.18,0,0,1-.08.11h0s0,0,0,0,.08.13.08.13,0-.06,0-.12.1,0,.13-.12,0-.05,0-.14.06-.05.09,0h.08c.11,0,.24,0,.19,0s0,.05-.06.13,0,.08,0,.11a.08.08,0,0,1-.06,0,.13.13,0,0,0-.08,0s0,0-.06,0,0,0-.08,0a.07.07,0,0,1,.06,0s0,0,.1,0,0,0,.07.14c0-.14,0-.19.09-.18s0-.12.14-.16.15,0,.35.15.16.12.11.14.08,0,0,.13c.08-.07.06-.08.17,0a.69.69,0,0,0,.34.11c.11,0,.18,0,.3.09s.24.13.32.21a.17.17,0,0,0,.14,0c.07,0,.14,0,.17.07a.73.73,0,0,1,.09.33m2.77-13s.15,0,.12,0,.13,0,.1-.05h-.08c-.09,0-.19-.06-.22,0a.34.34,0,0,1-.14.05s0,0,0,0,0,0,0,0,0,0,0-.06.16,0,.1,0-.23,0-.13,0a.32.32,0,0,1,.18,0c.06,0,.14,0,.17,0s.17.1.18,0,.07,0,.07-.06,0-.1-.05-.07h0s0,0,0,0,0,0-.08,0,0,0-.07,0,0,0,0,0,0,0,0,0-.07,0,0,0,.06,0,.15,0a.16.16,0,0,0,.1,0,.12.12,0,0,1,.08,0c.07,0,.22,0,.18,0s0,0,0,0a.07.07,0,0,0,.07,0s.07,0,0-.06.11,0,0-.08-.09-.06,0-.08,0,0,0,0,0,0,.07,0,.2-.06.11-.06H94s0,0-.08,0,0,0,0-.05.05,0,.07,0,0,0,.06,0,0,0,0-.07-.05,0,0-.07,0,0-.06,0H94a.15.15,0,0,0-.14,0c-.06.06,0,.07,0,.11s-.16.1-.09,0,.12-.1.06-.11a.19.19,0,0,0-.13,0s0,0,.08-.06,0,0,0,0a.21.21,0,0,0-.12,0s0,.06,0,0,0,0-.13,0h-.09a.2.2,0,0,0-.13,0,.08.08,0,0,1-.09,0,.14.14,0,0,0-.11,0,.24.24,0,0,1-.12,0,.19.19,0,0,0-.11,0,.11.11,0,0,1-.09,0s-.06,0-.16,0-.18.07-.13,0-.07,0-.23,0H92a.09.09,0,0,1-.08,0,.08.08,0,0,0-.07,0,.13.13,0,0,1-.09,0,.14.14,0,0,0-.09,0c-.08,0-.13.06-.23,0s-.16,0-.15,0,0,0-.08,0a.36.36,0,0,0-.17,0,.13.13,0,0,1-.11,0,.08.08,0,0,0-.08,0,.11.11,0,0,1-.1,0,.16.16,0,0,0-.1,0h-.26a.19.19,0,0,0-.1,0,.18.18,0,0,1-.11,0h-.11a.43.43,0,0,1-.15,0h-.16c-.17,0,0,0-.12.06s0,0-.11.06h-.21a.37.37,0,0,0-.19,0c-.13.05,0,0,0,0a.54.54,0,0,0,.24,0c.08,0-.06,0,.07,0s.08,0-.07,0-.09,0-.19.05-.13,0,0,.06.07,0,.13,0h.14a.11.11,0,0,1,.07,0h.08a.38.38,0,0,1,.14,0H90c.07,0,.14,0,.09,0s.1,0,0,.05.1,0,0,.05,0,0,0,.06,0,.05-.08.07,0,0,0,0,0,0,.08,0l.07,0h0s0,0,0,0,0,0,.09,0,.11,0,0,0,0,0,0,0h0s.07,0,0,0a.19.19,0,0,1-.1,0h-.19c-.07,0,0,0,0,0s.09,0,.12,0,.1,0,.12,0,0,0,0,.07-.08,0-.06,0,0,0,0,0a.17.17,0,0,0-.1,0s.12,0,.06.06,0,0-.06,0a.07.07,0,0,0-.08,0c-.07,0-.15,0-.1.06s-.13,0-.07.06-.09,0,0,.07.05.05,0,.05-.09,0,0,.06,0,.17.05.14.11-.08.14,0-.07,0-.08,0-.07,0-.05.05,0,.08,0,.11,0,.05.07.07,0,.08.06.09,0,.07.1.08,0,0,.09,0l.11,0c.06,0,0,0,0,0s0,0,.06.05,0,.05.06,0h.08s.07,0,.05,0,.15-.07.09-.09.13,0,.07-.07.12,0,0-.1.1-.06.08-.09.13,0,.1,0,.12,0,.08-.07.14,0,.08-.06-.07-.09,0-.07.17,0,.12,0,0-.06.08-.07h.06c.05,0,.11,0,.09,0s.1-.05.11,0l0,0s.16,0,.13,0,.07-.06.13,0,0,0,.07,0,0,0,.08,0,0,0,.06,0,0-.06.07,0,0,0,0,0,0,0,0,0,0,.09.11.06a.15.15,0,0,1,.09,0,.1.1,0,0,0,.07,0,.08.08,0,0,1,.06,0h.07a.33.33,0,0,1,.12,0s.06,0,0,0,.17,0,.14,0,0,0,.07,0,.09,0,.07,0m-10.09,7.4h0l0,0h0s0,0,0,0h.05v0h0m7-7.38h.09s0,0,0-.06a.09.09,0,0,0-.07,0h-.12a0,0,0,0,0,0,0,0,0,0,0,0,0,0h0s0,0,.06,0m-5.92,7.69s.07,0,.09,0h0s0,0,.07,0h.08s0,0,0,0,0,0-.05,0l0,0h0l-.05,0h-.08s-.06,0,0,0,.05,0,0,0,0,0,0,0h-.11s0,0-.07,0-.09-.06-.11-.07h0s0,0,0,0,0,0,0,0l0,0h0l-.05,0c-.07,0,0,0-.07-.05s0,0-.07,0-.06,0-.06,0,0,0,0,0,0,0-.07,0h0s0,0-.08,0-.12,0-.14,0h-.1c-.09,0,0,0-.07,0s-.11,0-.12,0h0s0,0,0,.06,0,0,0,0h0l-.06,0s0,0,0,0,.06,0,0,0,0,0,0,0l0,0,0,0s0,0,0,0H83l0,0s0,0,0,0a.65.65,0,0,1,.19,0s0,0,0,0h-.11l0,0s.05,0,.08,0h.17s0,0,0,0l.06,0s.07,0,.1,0h.07s0,0,0,0,0,0,0,.06,0,0,0,0a.05.05,0,0,0,.06,0h0s.05,0,0,0,0,0,0,0,0,0,0,0l-.05,0-.05,0s0,0,0,0,0,0,.08,0h.18m1.3.36h.13a.06.06,0,0,0,.06,0s0,0,0,0,0,0,0,0h-.07a.34.34,0,0,0-.12,0s0,0,0,0,0,0,0,0,0,0,0,0m-1.54,0a.1.1,0,0,0,.08,0l0,0s0,0-.05,0-.06,0-.07,0l-.09,0h-.15s0,0,0,0,0,0,0,0,0,0,0,0,0,0,.05,0h0a0,0,0,0,0,0,0s0,0,0,0m1.34-.11s.06,0,0-.06l-.09-.06A.16.16,0,0,0,85,16h0a.08.08,0,0,1,.07,0s.05,0,0,0H85s0,0,0,0h-.06s0,0,0,0,0,0-.06,0h-.17s0,0,0,0l-.06,0h-.11s0,0,0,0,.06,0,0,0,0,0,0,0,0,0,0,0,0,0,0,0l0,0h-.06a.12.12,0,0,1-.07,0h-.12s-.07,0-.06,0,0,0,0,0l.06,0h0s0,0,.06,0,0,0,.09,0a.26.26,0,0,1,.12,0l0,0v0s0,0,0,0,0,0,0,0,0,0,0,0a.08.08,0,0,1,0,0s0,0,0,0h0s0,0,0,0,0,0,.05,0H85s0,0,.07,0,0,0,.07.05,0,0,0,0,0,0,0,0m9.47-5.88h0l-.06,0s0,0,0,0h.09l-.07,0s0,0,0,0h.37v0h.08s0,0,0,0l0,0s0,0,0,0V10.2s0,0,0,0,0,0,0,0,0,0,0,0v0s0,0,0,0h0l0,0h0l0,0v0h0l0,0v0l0,0v0h-.11s0,0,0,0,0,0,0,0,0,0,0,0,0,0,0,0H95s0,0,0,0,0,0,0,0,0,0,0,0,0,0,0,0,0,0,.05,0,0,0,0,0,0,0,0,0,0,0,0,0l0,0h-.13v0h0s0,0,0,0,0,0,0,0h0s0,0,0,0,0,0,0,0h0s0,0,.06,0,0,0,0,0,0,0,0,0h0l0,0s0,0,0,0,0,0,0,0h0a.06.06,0,0,0,.05,0h0s0,0,0,0h-.11s0,0,0,0,0,0,0,0h-.06s0,0,0,0h0m.45-.26,0,0,0,0m-7.72,1.18s0,0-.06,0h-.11s0,0-.06,0,0,0,0,0,0,0,0,0v0s0,0,0,0,0,0,0,0h0s0,0,0,0h0s0,0,0,0,0,0,0,0,0,0,0,0m5.9-2.41h0c.07,0,.09,0,.14,0h.15l.09,0,0,0h.16l.07,0h.1l0,0h0s0,0,0,0h0l0,0h0s0,0,0,0h0l0,0h-.12s0,0,0,0h0s0,0,0,0h0a.12.12,0,0,0-.08,0h0s0,0,0,0h-.06v0h-.05s0,0,0,0,0,0-.08,0,0,0,0,0,0,0,0,0v0h0l-.06,0v0h0s0,0,0,0h0s0,0,0,0l0,0h0v0h0s0,0,0,0v0h0v0l0,0h0s0,0,0,0h0l0,0h0s0,0,0,0h0s0,0,0,0l-.08,0h-.07l.08,0h.1s-.07,0-.08,0h0l-.13,0h0a.3.3,0,0,1,.11,0h0v0h0s-.07,0-.11,0v0h.13m-8.63-.46-.07.06a.18.18,0,0,0,.12,0s0,0-.06,0m1.5-.53a.38.38,0,0,0,.17,0s0-.06,0-.07a.22.22,0,0,0-.15,0s0,0,0,0h0l-.14,0c-.08,0,0,0,.06,0m.19-.11s.09,0,.13,0,0,0,0,.06-.07.09.07.07.13-.05.14,0,0,0,.09,0,.12-.05.16-.05,0,0,0,0,0,0,0,0,.11,0,.17,0a.52.52,0,0,0,.18,0,.12.12,0,0,1,.08,0h.05c.05,0,0-.08,0,0s0,0,.13,0,.19,0,.11,0,0-.08-.14-.08-.06,0-.1,0h-.25a.18.18,0,0,1-.1,0,.28.28,0,0,0-.14,0h-.15s-.06,0-.07,0h-.09s-.13,0-.07,0,.15-.07.06-.06-.06,0-.07,0,0,0-.06,0a1.22,1.22,0,0,0-.19,0c-.05,0,.05,0,0,.07m-.23-.21s-.08,0,0,.05.13,0,.16-.06.13,0,.12,0,.05-.07-.07,0-.26.05-.23.08h.05s0,0,0,0m1.4.41a.22.22,0,0,0,.13,0s.08,0,.13,0,0,0-.1-.05-.08,0-.15,0-.06,0,0,0,0,0,0,.05m-.7-.37s0,0,.06,0,0,0,.07,0,.08,0,.07,0,0,0,.1,0h.07a.72.72,0,0,0,.21-.07c.07,0,.14,0,.09,0s0,0,.05-.06-.05,0-.11,0-.1,0-.06,0,0,0-.1,0a.36.36,0,0,0-.15.05s-.11,0-.2,0,0,.07-.05.09,0,0-.08,0,0,0,0,0M88.76,11s0,0,0,0,0,0,0,0,0,0,0,0l-.07,0H88.6s0,0,0,0,0,.05,0,.08,0,0,0,0,0-.06,0,0a.09.09,0,0,0,0,.07s0,0,0,0h0l0,0s0,0,0-.06,0,0,0-.07m0-.14s0,0,0,0h-.1s0,0,0,0h0s0,0,0,0-.06,0-.09,0h0s-.06,0-.05,0h0s0,0,0,0,0,0-.05,0,.08,0,.1,0,0,0,0,0h-.05a.38.38,0,0,0-.09.06s0-.05.07-.07,0,0,0,0l0,0,0,0h0l0,0s0,0,0,0,0,0,0,0,0,0,0,0,0,0,0,0H88.5s0,0-.05,0,0,0,0,0,0,0-.05,0l-.11.12s0,.05-.05.07,0,0-.05,0,0,0,0,0,0,0,0,0-.05,0-.09,0,0,0-.06,0h-.05s0,0,.06,0,0,0,0,0a.28.28,0,0,0-.09,0s0,0,0,0,0,0,0,0a.19.19,0,0,1,.1,0h.3s0,0,.05,0,0,0,0,0h0s0,0,0,0,0,0,0,0h0s-.05,0-.05,0,0,0-.07,0,0,0,0,0h0l.07,0s0,0,0,0,0,0,0,0h0s0,0,.06,0,0,0,0,0,0,0,.06,0-.06,0,0,0a.09.09,0,0,0,.07,0s0,0,0,0M86,8c.09,0,.16,0,.19,0a.44.44,0,0,1,.16-.08c.05,0,0,0-.1,0h-.07a.4.4,0,0,0-.16,0s-.11,0-.11.07-.07,0,0,.07S86,8,86,8,86,8,86,8s-.08,0,0,0m.19,1s0,0,.07,0,0,0,.1,0,0,0,0,0,0,0,0,0-.06,0-.05-.05-.09,0-.09-.06-.06,0-.09,0,0,0,0,0,0,0,0,0l-.14.08c-.05,0-.13.07-.11.12-.15,0-.17.05-.19.07s.06,0,.11,0,.05,0,0,0-.05,0,0,0a.25.25,0,0,0,.12,0s.05-.06.1-.07.09,0,.11,0,0,0,0,0h.06c.06,0,0,0,0,0h0s.1,0,0,0M89,8.41c-.08,0,0-.08-.09,0s-.08,0-.07,0,0,0,0,0,0,0,0,0,0,0,0,0,0,0,0,0,0,0,0,0,0,0,0,0,0,0,0,0-.05,0-.06,0,0,0-.05,0,.13,0,.09-.05-.06,0-.11,0h-.09s.22,0,.18-.07,0,0-.05-.07-.07,0-.14,0-.06,0,0,0,.13-.06.09-.07a.1.1,0,0,0-.11,0s0,0,0,0,0-.05,0,0,0,0,0,0a.11.11,0,0,0-.1,0h-.12s0,0,0,0a.1.1,0,0,0-.09,0c-.11,0-.21,0-.12.06s-.07,0,0,.07,0,0,0,0h0s-.08-.06-.09,0,0,0,0,0,0-.05-.06,0,0,0-.05,0,0,0,0,0-.13.08-.09,0,.08-.07,0-.07,0,0,0,0,0-.06,0,0a1.76,1.76,0,0,0-.24,0,.72.72,0,0,0-.14,0c-.06,0-.21,0-.1,0s-.23,0-.08.09-.17,0-.16.1a.06.06,0,0,1,0-.11c.06,0,.06-.06.1-.09s.09-.07,0-.06a.82.82,0,0,0-.24,0l-.1,0c-.06,0,0,.05-.14.09s0,.07,0,.08,0,.13.12.1.07,0,.14,0,0,0,.1,0,.08,0,.11,0l.07,0s0,0,0,0h.06s0,0,0,0,0,0,0,0,0-.09,0-.06,0,.07.1.05-.08,0,0-.06a.07.07,0,0,1,.06,0,.07.07,0,0,0,.07,0c.05,0,0-.1,0-.1s.1.08.11,0,0,0,0,0h0a.05.05,0,0,1,.05,0s0,0,0,0,0,0,0,0,0,0,0,0,.1,0,.05,0-.1.05,0,.06,0,0,0,0,0,0,0,0h0s0,0,.06,0,.07,0,.07,0,.07.07,0,.09-.07,0-.13,0-.16,0-.09.06.1,0,.15,0,.11-.09.1,0,0,.06.07.06,0,0,0,0h-.06s0,0-.07,0-.1.06-.09,0,0,0,0-.06,0,0,0,0-.11,0-.14,0-.09,0-.11,0,.09,0,.1.08-.16,0-.14,0,0,0-.06,0-.06,0,0,0,0,0-.06,0-.09,0-.06,0,0,0-.08,0-.16,0-.11,0,0,0-.06,0-.09,0-.05,0,0,0,0,.08,0,0,0,.06,0,0,.06,0h0s.06,0,0,0,.06,0,0,0h0s.06,0,0,0,0,0,.06,0,.1,0,.08,0-.07-.09,0-.06.06.06.1,0-.08,0,0,.06.14,0,.17,0,.06,0,.09,0,0,0,0,0,.13,0,.14,0,0,0,0,0h.07s.16.08.19,0S88,9,88,9a.08.08,0,0,0,.07,0s0,0,0-.05,0,0,0,0,0-.05-.09-.05,0,0-.1-.07c.11,0,.17,0,.19,0s0,0,.05,0,0,0,0,0,0,0,0,0,0,0,0,0,0,0,0,0,.05,0,0-.06.06,0,0,0,0-.06-.1-.05-.08,0,0,0,0-.08,0-.06.06,0,0,0,0,0,0,0,0,0,.07,0,.07,0,.08,0,0,0,0,0h0s0,0,.07,0-.05.07,0,.07,0,.05,0,0,0,0,0,0,0,0,0,0,0,0,0-.06h0s0,0,0,0h0s0,0,0,0,0,0,0,0,.05,0,0,0,0,0,.05,0,0,0,0,0,0,0,0,0,.07,0,.05,0,0,0,.06,0,.07,0,.05,0,.12,0,0,0m-4.14-.19h0l-.08.07h0c.06,0,.17-.05.08-.07m2.8,3h0s-.09.07-.11.08,0,0,0,.07,0,0,0,0h.09l.07,0s0,0,0,0,0,0-.06,0,0-.06,0-.06M86.39,7.54h.13s0,0,0-.06-.13,0-.21.08,0,0,.08,0m1.07-.11c-.1,0-.13,0-.1.05a.19.19,0,0,0,.11,0h.08c.05,0-.07,0-.14,0s.16,0,.1,0a.32.32,0,0,1-.16,0,.31.31,0,0,0-.19,0c-.06,0,0,0-.06,0a.7.7,0,0,0-.17,0c-.06,0,0,0,0,0h.1a.15.15,0,0,1,.1,0,.39.39,0,0,0,.2,0c.07,0,.08-.05.13,0s.11,0,.16,0a.09.09,0,0,1,.07,0h.07c.07,0,.09-.06.14-.06s.18,0,.12,0-.09-.05,0,0,.15,0,.12,0,0,0,0,0h.14s.19,0,.23,0a.09.09,0,0,1,.12,0,.16.16,0,0,0,.15,0,.17.17,0,0,1,.12,0,.31.31,0,0,0,.17,0,2.55,2.55,0,0,0,.36-.09,1.12,1.12,0,0,1,.3-.08c.08,0,.28-.08,0-.08a.55.55,0,0,1-.18,0,.29.29,0,0,0-.15,0c-.17,0-.24.08-.38,0a.35.35,0,0,0-.2,0,.19.19,0,0,1-.1,0h-.08a1.42,1.42,0,0,0-.24,0,.38.38,0,0,1-.13,0h-.07l-.17,0H88s-.12,0-.14,0-.18,0-.22.06,0,0,.07,0a.25.25,0,0,1,.11,0s.07,0,.12,0H88s.06,0,.12,0h.08s.05,0,0,0a.29.29,0,0,1-.16,0c-.06,0-.09,0-.16,0s0,.1,0,.08h0s0,0,0,0-.1,0-.15,0,.1,0-.2.05M85.25,8a.15.15,0,0,1,.1,0,.07.07,0,0,0,.06,0h0c.09,0,.09,0,.13,0s0,0,.07,0l.06,0c.08,0,0,0,0-.05s.08,0,.12,0,0,0,0,0h0s.09,0,.07,0-.05,0-.09,0h-.28s-.1,0-.07,0,.08,0,.08,0,0,0-.07,0a.49.49,0,0,0-.22,0s0,.08.07.07m.32-.3a.13.13,0,0,0,.11,0s.07,0,.07,0,.05,0,.12,0,0,0,0,0,0,0,.08,0,.05,0,.08-.09.09,0,.16-.07-.12,0-.21,0a.19.19,0,0,0-.14.08s0,0,0-.09-.07,0-.15,0,0,.06-.05.1,0,0,0,0l0,0h-.13l0,0,.06,0s-.06,0,0,.07M104,15.92s-.08,0-.08-.11,0,0,0,0,0,0,0,0,0,0,0,0,0,0-.08,0-.19-.1-.19-.11-.06,0-.12-.12,0-.14,0-.13,0-.09,0-.1,0,0-.08.08,0,.07-.16.19,0,.07,0,.06,0,0,0,0,0,0,0,0h-.15c-.11,0-.13,0-.13,0s0-.11-.07-.09,0,0,0,0h0s0,0,0,0,0-.1,0-.12,0-.1-.07-.12,0,0-.06.05h0s0,0,0,.14c0,0-.07-.06-.08-.11s-.05-.08,0-.12,0-.06,0-.08,0,0-.09-.07-.09,0-.06-.06,0,0-.06,0,0,0-.08-.18-.09-.15-.13-.13.09-.09.06-.11,0-.05-.06-.07,0,0,0,0,0,0,.07,0,0,0,0-.06,0,0,.06.07a0,0,0,0,0,.06,0s0,0,.09.06.11.05.12.1.08,0,.1.14,0,0,.06.07.06,0,.08,0,0,0,0,0,0,0,0,0,0,0,.11.1.06,0,.09,0a.1.1,0,0,1,.07,0,.13.13,0,0,0,.11,0h.07s0,0,.06,0a.12.12,0,0,1,.13,0c.13,0,.07.09.12.15s.05.13.12.12l.06,0a.17.17,0,0,0,.11,0,.2.2,0,0,1,.14,0s0,0,.05,0,.06,0,.08,0c-.06-.25-.09-.5-.17-.74s-.12-.48-.21-.71-.14-.49-.25-.72-.17-.45-.29-.68-.23-.49-.36-.71-.24-.43-.39-.64-.28-.43-.44-.64-.32-.42-.49-.62-.31-.37-.49-.56-.41-.39-.6-.57a2.51,2.51,0,0,0-.39.06h0s0,0,0,0,0,0,0,.06,0,0,0,0h-.16s-.06,0-.1,0-.12-.07,0-.05,0,0,0,0,0,0,0,0l-.21-.05s0,0,.1.1,0,.09.05.09,0,0,0,0,0,.13,0,.08,0,0-.05,0,0,0,0,0,0,0-.1,0h0s0,0-.11,0-.08,0-.11,0,0,0-.06,0,.21.06.18.11h-.09a.1.1,0,0,1-.07,0,.21.21,0,0,0-.13,0s0,0,0,0,0,0,0,0h-.1s0,0,0,0,0,0,.11,0,.11,0,.08,0,0,0,0,0-.16,0-.19,0-.06,0-.12,0,0,0,0,0,0,0,0,0,0,0,0,0,0,0,0,0,0,0,0,0a.05.05,0,0,1,0,0,.09.09,0,0,0-.07,0h-.07c-.09,0,.05,0,0,0s0,0,0,0-.13,0-.14,0,0,0,0,0h.12s0,0,0,0h.06s0,0,0,0-.05,0,.31.07a2.94,2.94,0,0,1,.32,0,.46.46,0,0,0,.15-.07s0,0,0,0-.08-.08-.08-.08h0l-.08,0a.2.2,0,0,0-.14,0,.28.28,0,0,1-.16,0c-.06,0-.12,0-.14,0s-.09,0-.15,0a.42.42,0,0,0-.14,0h-.19l-.12,0H98s-.13-.06-.11,0,0,0,0,0a.12.12,0,0,0-.07,0l-.11,0s.16,0,.12,0a.1.1,0,0,0-.1,0l0,0s0,0,0,0h-.05s.05,0,0-.06,0,0,0,.06,0,0,0,0,0,0,0,0,0,.05-.08.09,0,0,0,0,0-.06,0-.05,0,0,0,0,0,0-.06,0,0,0,0,.09c0-.08-.07-.08-.1,0s0,0-.07,0a.07.07,0,0,1-.06,0H97s0,0,0,0,0,0,0,0,0,0,0,0,0,0,0,0h-.06a.05.05,0,0,1-.05,0h-.09l-.07,0a.13.13,0,0,1-.07,0s0,0,0,0,0,0-.08,0,0,0-.07.05,0,0-.07,0,0,0-.08,0,0,0-.07,0,0,0,0,.05,0,0,0,0,0,0-.09.06,0,0-.06.06,0,0-.06,0,0,0-.07,0,0,0,0,0,.05,0,.13,0-.05,0,0,0-.05,0-.06,0h-.05c-.07,0,0,0,0,0s-.08,0-.08,0a.07.07,0,0,0-.1,0s0,0-.07,0,0,0,0,.05-.05,0-.08,0-.06,0-.11.05h-.06s0,0,0,.05c-.09,0-.07.05,0,.05h.17c.06,0,.07,0,.07,0s0,0-.05,0h-.21c-.06,0,0,0,0,0s0,0,0,0-.06,0-.06,0,0,0,0,0h0s0,0,0,0,0,0,0,0,0,0,0,0h0s0,0,0,0,0,0,0,.09,0,0,0,0h0s0,0,.09-.05c-.07.07-.07.06,0,.1h0s0,0-.05,0,0,0,.06.08,0,0,.1,0,0,0,0,0,0,0,0,0a.08.08,0,0,1,.06,0s0,0,.11,0,.06,0,.1,0,.06,0,0-.09,0,0,.08,0,0,0,0-.08,0,0,0-.05a.23.23,0,0,0,0,.1s0,0,0,0h0c-.07,0,0,0,0,.06s0,0,0,.05,0,0,0,0,0,0,0,0,0,0,0,0,0,0,0,0,0,.08.07.11,0,0,0,0,0,.06,0,0,0,0,0,.06,0,.11.11.07a.1.1,0,0,1,.08,0s0,0,.05,0,0,0,0-.06,0,0,0,0h0s0,0,.11,0,.06-.06.06-.07,0-.09,0-.12,0-.07,0-.1,0,0,0,0,0,0-.06,0h.06s.09,0,.06,0,0,.05.06,0h0s0,0,.06-.06,0,0-.16,0a.11.11,0,0,1,.09,0s0,0,.07,0,0,0,0,0,0,0-.08,0,0,0,0,0,0,0,0,0,0-.1,0-.14,0-.05,0-.12,0,0,0,0,0,0,0,0,0,0,0,0h0a0,0,0,0,1,.05,0s0,0,0,0h0s0,0,0,0a0,0,0,0,1,0,0,0,0,0,0,0,0,0c0-.05,0,0,.06-.07s0,0,0-.08,0,0,0,0h0s0,0,0,0h0a.06.06,0,0,1,.05,0s0,0,0,0h0s0,0,0,0,0,0,0,0,.14,0,.15.06,0,0,0,.05h-.05s0,0-.05,0,0,0-.07,0h-.08s0,0,0,0l0,0s0,0,0,0l0,0s0,0,0,0,0,0,0,0,0,0,0,0,0,0,0,0,0,0,0,0,0,0,0,0,0,0,0,0,0,0,0,0,0,0,0,.06,0,.06,0,0,0,0,0,0,0,0,.06,0,0,.06,0,.05,0,0,0,0h.09s0,0,.07,0a.08.08,0,0,1,.07,0s0,0,0,0h0a.05.05,0,0,0,.06,0h.05a.16.16,0,0,0,.1,0s0,0,0,0a.19.19,0,0,0,.12,0c.08,0,.06,0,0,0s.05,0,.08,0a.05.05,0,0,1,.05,0,.05.05,0,0,0,.06,0,.05.05,0,0,1,.05,0h0v0l0,0c-.06,0-.1,0-.11,0s0,0,0,0,0,0,0,0,0,0,0,0h0s0,0,0,0,0,0-.06,0h-.06a.08.08,0,0,1-.08,0s0,0,0,0h-.08s0,0,0,0,0,0,0,0,0,0,0,0h0s0,0-.07,0,0,0,0,0,.05,0,.05,0h0s0,0,0,.05,0,0,0,0,0,0,0,0,0,.06,0,.09,0,0-.06,0,0,0-.06,0,0-.05-.05-.06,0,0-.06,0,0,0-.05,0,0,0-.08.06,0,.07,0,.1,0,.06,0,.1,0,.07,0,.1,0,0,0,0,0,0,0,0a.08.08,0,0,1-.06,0h0s0,0,0,0h0l0,0h0l0,0h0l0,0s0,0-.06,0,0,0,0,0,0,0,0,0h0a.16.16,0,0,0-.06,0h-.14a.2.2,0,0,0-.11,0,.11.11,0,0,1-.07,0h-.05l-.12,0c-.07,0,0,.05-.06.05h0s0,0,0,0,0,0,0,0,0,0,0,0h0s0,0,0,0l-.05,0s0,0,0,0h0s0,0,0,0,0,0-.06,0h-.07s0,0,0,0,0,0-.07,0h0s.06,0,0-.05h0s0,0,0,0,0,0,0,0,0,0,0,0h0l0,0s0-.05,0-.05,0,0,0,0,0,0,0,0,0,0,0,0h0s0,0,0,0,0,0-.06,0h0s0,0,0,0,0,0,0,0,0,0,0,0h0s0,0,0,0,0,0,0,0,0,0,0,0,0,0,0,0,0,0,0,0,0,0,0,0,0,0,0,.05v0a0,0,0,0,0,0,0h0s0,0,0,0,0,0,0,0l0,0v0h0l0,0h0s0,0,0,0,0,0,0,0v0s0,0,0,0,0,0,.06,0,0,0,0,0h-.05s0,0,0,0,0,0,0,0h0v0h0v0s0,0-.06,0h0l0,0s0,0,0,0v0a0,0,0,0,0,0,0h-.08l0,0s0,0,0,0,0,0,0,0,0,0,0,0,0,0,0,0h0s0,0,0,0h0s0,0,0,0a.2.2,0,0,0,0,.07.23.23,0,0,1,0,.07s0,0,0,0,0,0,0,0h0s0,0,0,0H95.1s0,0,0,0l-.09,0a.11.11,0,0,1-.07,0h-.07s0,0,0,0l0,0s0,0,0,0,0,0-.08,0l-.06,0,0,0s0,0,0,0,0,0,0,0h-.07s0,0,0,0l0,0s0,0,0,0h0s0,0,0,0,0,0,0,0a.07.07,0,0,1,0,.05s0,0,0,0,0,0,0,0-.06,0-.06,0h-.09s0,0,0,0,0,0,0,0,0,0,0,0,0,0-.06,0H94v0h0s0,0,0,0-.05,0,0,0,0,0,0,0h.08s.05,0,.06,0,0,0,.06,0h0s.06,0,0,0,0,0,0,0,0,0,0,0v0s0,0,0,.06,0,0,.07,0,0,0,.06,0,0,0,0,0,0,0,0,0,0,0,0,.11,0-.08-.06,0a.39.39,0,0,1,0,.13,1.26,1.26,0,0,0,0,.14,0,0,0,0,1,0,0h-.13l-.07,0h0l0,0h-.46l-.08,0h-.06s0,0,0,0,0,0,0,0h-.05s0,0-.05,0,0,0,0,0,.05,0,0,0,0,0,0,0,0,0,0,0,0,0,0,0v.06s0,0,0,0,0,0,0,.06,0,.08,0,.11l0,.09s0,0,0,.06,0,0,0,0h0s0,.05,0,.08,0,0,0,0,0,0,0,0,0,0,0,0,0,0,.06,0,0,0,0,0,0,.06,0,.09h0s0,0,0,0,0,0,0,.05,0,0,0,0h.1s0,0,.07,0,0,0,0,0a0,0,0,0,0,0,0h.11a.1.1,0,0,1,.07,0s0,0,0,0,0,0,0,0v.06s0,0,0,0h0s0,0,.07,0l.12,0s0,0,.07,0l.09,0h.13s0,0,0-.08l.07-.05s0,0,0,0a0,0,0,0,0,0,0V12.9s0,0,0,0,0-.06,0-.06,0,0,0,0,0,0-.05,0a.08.08,0,0,1,0-.11l.05-.05a.56.56,0,0,0,.08-.08s0,0,0,0,0,0,0,0l.16-.07s0,0,0,0a.12.12,0,0,1,.08,0h0s0,0,0,0,0,0,0,0,0,0,0,0,0,0,0,0h0s0,0,0,0,0,0,0,0,.06-.06.08-.06a.07.07,0,0,0,.05,0l.07,0s0,0,0,0,.06,0,.06,0,.05,0,.06,0,0,0,.06,0,0,0,0,0,0,0,0,0h.06v0a.73.73,0,0,0,.12-.07s.09,0,.19,0,.08.09.12.11,0,0,0,.06a.21.21,0,0,1,.09.1s0,0,.06,0,0,0,0,0,.05,0,.05,0a.06.06,0,0,0,0,0l.09.07s.06,0,.09,0,0,.08.08,0l0,0,0,0s.08,0,.06,0,0,0,0,0,0,0,.06,0,0,0,0,0,0,.08.06.12.05,0,0,.06,0,0,0,.09,0,.05,0,.06S97,13,97,12.9s0,0,.06-.07,0,0,0-.06h0s0,0,0,0a.06.06,0,0,0,0,0s0,0,0,0v0s0,0,0,0,0,0,0,0h.07s0,0,.06.06,0,0,0,0,0,0,0-.05a.29.29,0,0,0-.09,0s0,0-.07-.06a.92.92,0,0,0-.14-.05c-.06,0,0,0,0,0s0,0,0,0h-.1s0,0-.08,0l-.08-.07a.74.74,0,0,1-.08-.13.38.38,0,0,0-.07-.09s-.07,0-.1,0,0-.06,0-.08,0,0,0,0,0,0,0-.05,0,0,.07,0,0,0,.05,0h0s0,0,0,0,0,.06,0,.09,0,0,0,0l0-.07s0,0,0,.08,0,0,.08.07.06,0,0,0,0,0,.08.08,0,0,.09.06,0,0,0,0h0l.1.06s0,0,0,0l.11,0h.07s-.06,0,0,0,0,0,.06,0l0,0,0,0s0,0,0,0,0,0,0,.06,0,.05,0,.05,0,0,0,0,0,0,0,0,0,0,0,0,0,0,0,0,0,0,0,0,0,0,0,.05.05,0,.06,0,.06.05.06.05v0s0,0,.06,0,0,0,0,0,0,0,0,.05,0,0,0,0h0s0,0,0,0,0,0,0,0,0,0,0,0,0,0,0,0,0,0,0,0h0a0,0,0,0,0,0,0s0,0,.07,0,0,0,.05,0,0,0,0,0l-.05,0h-.07a0,0,0,0,0,0,0h-.06l0,0s0,0,0,0a0,0,0,0,1,0,0s.1.05.05.07,0,0,.08.07,0,0,0,0,0,0,0,0,0,0,0,0,0,0,0,0,0,0,0,0,0,0,0,0,0,0,0,0,0,0,0,0,0,0,0,0,0,0,0,0,0,0,0,0,0,0,0,0,0,0,0,0,0,0,0,0,0,.05,0,0,0,0,0-.06,0,0-.06,0a.07.07,0,0,1-.05,0,.08.08,0,0,0-.06,0s0,0,0,0,0,0,0,0,0,0,0,0,0,0,0,0,0,0,0,0l0,0s0,0,0,0,0,0,0-.06,0,0,0,0,0,0,0,0,0,0,0-.05,0,0,0,0h0s0,0,0,0,0,0,0,0,0,0,0,0,0,0,0,0,0,0,0,0,0,0,0,0,0,0,0,0,0,0,0,0h.05s.05,0,0,0h.15s0,0,0,0,0,.05,0,0l.08,0s0,0,0,0,0,0-.07.05,0,0,0,0l.09-.05s0,0,0,0,0,0,0,0h.1s0,0,0,0,0,0-.06,0l-.13-.1s0,0,0,0,0,0,0,0,0,0,0,0l0,0s0,0,0,0h0s0,0,0,0,0,0,0-.08,0,0,0,0,0,0,0,0,0,0,0,0a.25.25,0,0,0,0-.05s0,0,0-.05,0,0,0,0,0,0,0,0,0,0,0,0l0,0h0v0a0,0,0,0,0,0,0c.06,0,0,0,0,0s0,0,.05-.05,0,0,0,0,0,0,0,0,0,0,0,0,.05,0,.11-.05,0,0,.11,0l.08,0H99s0,0,0,0-.08,0,0,0h0l0,0a.11.11,0,0,0,.07,0h0s0,0,0,0,0,0,0,0a.39.39,0,0,0-.1.06s0,0,0,0,.05,0,.11,0,0,.07,0,.08.09,0,.15,0h0s0,0,0,0,0,0,.08,0,0,0,.06,0h0s.06,0,0,0-.07,0-.11,0a.07.07,0,0,1-.07,0h-.06s-.07-.07-.08-.07,0,0,0,0,0,0,0,0h0s0,0,.06,0,.08,0,0,0-.1,0,0,0a.11.11,0,0,0,.08,0,.08.08,0,0,1,.07,0c.06,0,0,0,.08,0s0,0,0,0,0,0,0,0,0,0,0,0,0,0,0,0l0,0c.18,0,.18,0,.13,0s-.11.05-.13,0,0,0,.05.05.05.06,0,.06a.06.06,0,0,0-.08,0c0,.06-.05.06-.07.06s0,0,0,0,.2.06.38.2.05,0,.21.1.11,0,.14.08,0,0,.06.1a.27.27,0,0,0,0,.08c-.11.13-.19.11-.25.09a.15.15,0,0,0-.1,0,.27.27,0,0,1-.18,0h0c-.06,0,0,0-.1,0s0-.06-.13-.06a.1.1,0,0,1-.08,0s0,0-.07,0a.17.17,0,0,1-.11,0,.26.26,0,0,0-.15,0c-.09.06-.16,0-.22.09s-.1,0-.17,0-.12,0-.14,0,.08,0,.17.07-.21,0-.14,0-.13,0-.15,0h0s0,0,0,0-.07,0-.12,0-.08,0-.05,0-.06.06.07.06c-.1,0,0,0,0,.07s0,0,0,0,.05.06,0,.06h0s0,0,0,0-.06,0,0,0,0,.1,0,.07,0,0,.08,0,0,.09.05.1,0,0,.07,0a0,0,0,0,1,0,0,0,0,0,0,1,0,0s0,0,0,0h.11s-.13,0-.1,0h0s0,0,.05,0l.09,0s.12,0,.08,0,.09.11.1.08.15,0,.12-.08.05-.05.11,0,.1,0,.17.1.16,0,.16,0,0,0,.07-.09.06,0,.16,0l0,0s0,0,0,0-.06,0,0,.1-.06,0,0,.07,0,0,.06.21-.06,0-.06.1,0,.07,0,.13,0,.05,0,.12,0,0,0,.14a.14.14,0,0,1-.18.07h-.07a.34.34,0,0,1-.2,0,.07.07,0,0,0-.06,0,.06.06,0,0,1-.05,0s-.15,0-.13,0-.05,0-.11.06,0,0-.09,0,0-.06-.08,0-.07,0-.12,0a.39.39,0,0,0-.24,0c-.06,0-.11,0-.13,0a.83.83,0,0,0,0,.19.83.83,0,0,1,0-.19s0,0-.06,0-.06,0-.06,0,0,0-.06,0,0,0-.11-.07-.12,0-.12,0h0c-.09,0,.06,0-.07,0s-.14,0-.2.08-.06.13,0,.13,0,.2-.09.21,0,0-.18-.09-.21-.06-.27-.09H97s-.1,0-.12-.11,0-.07,0-.07a.08.08,0,0,1-.07,0,.09.09,0,0,0-.09,0,.09.09,0,0,1-.09,0,.09.09,0,0,0-.1,0,.13.13,0,0,1-.11,0l-.14-.06c-.06,0,0,0-.07-.05s.06,0,0,0,0,0,0,0-.14,0-.11-.09.08,0,.14-.1,0-.09,0-.14-.06,0-.08-.13,0,0,0-.09,0,0,0-.05,0,0-.08,0,0,0,0,0,0,0,0-.05,0-.06-.09,0-.05,0-.16.06h-.09c-.09,0,0,0-.06,0a0,0,0,0,1,0,0s0,0,0,0,0,0-.1,0,0,0,0,0,0,0,0,0h-.09a.11.11,0,0,0-.07,0l0,0,0,0s0,0-.05,0H95c-.15,0-.1,0-.16,0s-.12.1-.17.1,0,.11-.12,0,0,0,0,0,0,0,0,0,0,0-.05,0,0,0,0,0,0,0,0,0,0,0,0,0h0s0,0,0,0,0,0,0,0-.06,0-.08,0h0a.15.15,0,0,1-.09,0l-.06,0a.09.09,0,0,1-.07,0s0-.06-.08,0-.07,0-.14.18c-.16.32-.32.19-.35.33s-.08.08-.17.31.09.11.07.18-.23.19-.27.28-.23,0-.31.15-.05.06-.08.16-.09,0-.19.27-.21.25-.25.45-.08.18-.14.32,0,.06,0,.05,0,0,0,0,0,.12,0,.11.05.09.05.1,0,0,0,.09,0,.06,0,.05,0,0,0,.05a.41.41,0,0,1,.06.31c0,.13-.09.12,0,.24a1.4,1.4,0,0,1-.09.19.47.47,0,0,1-.1.13s-.08,0,0,.06,0,0,0,0,0,0,0,0,0,0,0,0,0,0,.06,0-.08,0,0,0,0,0,0,.06,0,.08.05.06,0,0,.13-.05c-.16,0-.06,0-.12.06h0s0,0,0,0,0,.1,0,.08,0,0,.05,0h.1a.06.06,0,0,1,0,0h0s0,0,0,0H92c-.08,0,0,0-.06,0s0,0,0,.06,0,0,.07,0-.07,0,0,0,0,0,0,0h0s0,0,0,0h.06s.06,0,.07,0,0,0-.12,0,0,0,0,0,0,0,.08,0,0,.06,0,0,0,0,0,0,0,0,0,0,0,.12.07.11.06.06.05.08,0,.09.07.1.05.12.1.11-.06,0,0,.05,0,0,0,0,0,0,0,0h0s0,0,0,0,0,0,0,.05,0,0,0,0,0,0,0,0,0,0,0,0h0s0,0,0,0h0s0,0,0,0,0,0,0,0a.2.2,0,0,0,.11,0c.11.06,0,0,.05.07s.05.07.11.08,0,.05.09.11.07.1.12.12,0,0,.06,0,.07.1.18.08,0,.06.07,0,.19-.06.19-.15c0,.1.1,0,.28,0h.17s0,0,0,0,0,0-.05,0H94s0,0,0,0,0,0,.08,0a.35.35,0,0,0,.1,0c.12,0,.06,0,.12,0s0,0,.12,0a.28.28,0,0,0,.17-.06c.05,0,.07,0,0-.05h0s0,0,.08-.06.1,0,.13,0S95,19,95,19s0,0,0,0h0c.06,0,.06,0,.07,0s0,0,.06,0,0,0,.07,0,.18.06.16.1,0,0,0,0-.05,0,0,0,0,.06,0,0,0-.05.05,0,0,0,0,0-.05,0,0,0,0,0,0,0a.37.37,0,0,0,.13.07s0,0,0,0,0,0,0,0h.05s0,0,0-.05.08,0,.06,0,.09,0,.07,0,0,0,.06,0h0s0,0,0,0,0,0,.07.08,0,0,0,0h0s0,0,0,0,.06,0,0,0,0,0,0,0,.06,0,0,.11,0,.08,0,.17,0,0,0,.08-.07.08-.06.12,0,0,0,0h.08c-.11,0,0,.11-.1.1s0,.06.07.07,0,0,0,0-.07-.06-.09-.05,0,.08,0,.12,0,.09-.08.05,0,0,0,.09l0,.09s0,0,0,0,0,.08,0,.09,0,0,0,0a1,1,0,0,1,.13.15s.11.1.09.11,0,0,0,.05,0,0,.11.15,0,.06.06,0h0s0,0,0,0,0,.07,0,.08,0,.08,0,.08,0,0,0,0,0,.06.07,0,0,0,0,0h0s-.08,0-.13.06,0,.06.06.16.1.21.06.32,0,.08,0,.15.12.2.07.4-.07.07-.12.18,0,0-.13.18,0,.51-.09.56,0-.05,0,.27.14.35.14.47.27.55.25.6,0,.05,0,.17.11.54.08.59a.4.4,0,0,0,.09.25l.06.06s0,.37.14.48,0,.13,0,.21,0,.07-.05.1,0,.09,0,.14,0,.12.09.16,0-.06,0-.07,0,0,.08,0a.14.14,0,0,0,.18,0c.05,0,.08,0,.09,0h0s.07,0,.11-.05.06,0,.09,0h0a.24.24,0,0,1,.15,0c.06,0,.07,0,.08,0s0,0,0,0,.07-.07.17-.08.27-.2.34-.25.13-.22.21-.24.28-.49.41-.5.1-.05.19-.38c0-.11-.11-.12.16-.23s.28-.25.28-.28.09-.11.07-.2a1.43,1.43,0,0,1,0-.18c0-.12,0-.18,0-.19s0-.22.13-.28.25-.31.4-.33.09-.09.12-.08.22-.13.27-.2.05,0,.11-.13.09-.12,0-.29,0-.2,0-.31,0-.14,0-.19,0-.13,0-.2-.08-.07-.07-.14-.12-.19,0-.3,0-.06,0-.13-.2-.13-.07-.3,0-.16.11-.24,0,0,0-.07.06-.07.07-.15,0-.07,0-.16.1-.11.24-.25,0,0,.1-.17.18-.15.27-.31.18-.13.32-.31.27-.28.3-.4.21-.15.21-.37.17-.32.16-.43,0,0,.07-.15,0-.09,0-.09,0,0,0,0,0-.16,0-.15-.05,0,0-.16-.06-.05-.11,0-.17.12-.24.12-.06,0-.07,0,0,0-.09,0a.16.16,0,0,0-.11,0,.18.18,0,0,1-.14,0c-.12,0-.1,0-.21.06s-.26-.14-.3-.18h0s0,0-.09,0,0,0,0,0,.09,0,.11-.08-.07-.11-.12-.2,0,0,0,0,0,0-.09-.11-.13-.21-.2-.21,0,0-.11-.05-.07-.13-.1-.08,0,0-.09-.17-.08-.18-.19-.38-.06-.1-.07-.07,0,0,0,0,0,0,0,0-.05-.07-.07-.12a.64.64,0,0,1,0-.24s-.1-.15-.09-.22,0,0-.14-.16,0,0-.07-.12.09,0,0-.11-.14-.09-.16-.2-.1-.1-.22-.33.07,0,0-.12,0,0-.06-.1-.07-.11-.12-.17,0-.06-.06-.16,0-.07-.05-.19a.53.53,0,0,0,.1.17c.05,0,0,.08.1.14s.07.13.14.19.06.1.11,0,0-.06,0-.15,0-.11,0-.18.16.11.16.11-.1-.11-.16-.11,0,0,0,.08,0,.05,0,.13,0,0,.07.09.13.13.11.16,0,.07.2.32,0,0,.09.21.12,0,.16.1.06.05.07.08a1.26,1.26,0,0,0,.15.36c.06.12-.07,0,0,.11s0,.05.11.15.17.25.28.36a.82.82,0,0,1,.18.24c.07.12,0,.09.07.13s0,0,0,.06c0,.3.07.24.07.28s.08.17.05.22,0,.09,0,.13.22.05.24,0,0,0,0,0,0,0,.07,0,.22,0,.28-.1.2,0,.27-.12.31-.12.34-.16.21-.05.16-.09.07-.13.12-.16.05,0,.11,0,.13,0,.2-.07,0-.07,0-.1.21,0,.17-.11a.11.11,0,0,1,.14-.13c.1,0,.06,0,0-.09s0-.27.06-.23S104,16,104,16s0-.06,0-.05m-1.59,6.54s0,0,0,0,0-.07-.08,0,0,.05,0,.08-.07.08-.1.15,0,0,0,0,0,0,0,0,0,.11,0,.11,0,0-.07.12-.06,0-.06,0,0,0,0,0-.07,0-.09.13,0,0-.09,0-.11,0-.14,0a0,0,0,0,1,0,0s0,0-.06.07-.1.1-.09.27,0,.15,0,.28,0,.08-.06.21-.09,0-.17.25.06.2,0,.4.25.28.37.17a.56.56,0,0,0,.28-.28,1.48,1.48,0,0,0,.14-.39,1.49,1.49,0,0,1,.19-.45c.12-.21.05-.29.19-.46s-.06-.12,0-.21,0,0,0,0,0,0,.06,0a1.74,1.74,0,0,0-.07-.57M93.88,10h0v0h0s0,0,0,0,0,0,0,0,0,0,0,0,0,0,0,.06,0,0,0,0,0,0,0-.06v0s0,0,.06,0,0,0,0,0,0,0,0,0,0,0,0,0,0,0,0,0,0,0,0,0h0l0,0v0s0,0,0,0h0s0,0,0,0h.12l0,0s0,0,0,.07,0,0,0,0h0s0,0,0,0,0,0,0,0a.06.06,0,0,0,0,0s0,0,.05,0,0,0,0,0h0v0H94s0,0,0,0,.06,0,0,0,0,0,0,0,0,0,0,0h0s0,0,.05,0,0,0,0,0h0s0,0,0,0a.08.08,0,0,1-.07,0l-.07,0s0,0,0,0H94s0,0,0,0h0a.08.08,0,0,0,.06,0s0,0,.05,0,0,0,.06,0,0,0,0,0l0,0s-.05,0-.07,0,0,0-.08,0,0,0,0,0,0,0,0,0l-.06,0a.11.11,0,0,1-.07,0s0,0,0,0h0s0,0,0,0,0,0,0,0H94l0,0h0s0,0,0,0,0,0,.05,0a.06.06,0,0,1,.06,0h0s.05,0,0,0h0s0,0,0,0,0,0,0,0h.07a.15.15,0,0,1,.08,0,.07.07,0,0,0,.06,0h0s0,0,.06,0,0,0,0,0h-.07l-.07,0h0a0,0,0,0,0,0,0s0,0,0,0h0a0,0,0,0,0,0,0s0,0,0,0,0,0,0,0,0,0,0,0,0-.08-.07-.09-.06,0-.07,0,0,0,0,0,0,0,0,0a0,0,0,0,0,0-.06l-.07,0,.06,0s0,0,0-.06.05,0,0,0,0-.05-.09-.06a0,0,0,0,1,0,0s0,0,0-.08,0,0,0-.06l0,0h0s0,0-.08,0h-.07a.07.07,0,0,0,.07,0h0s0,0,0,0-.06,0-.06,0h0s0,0,.06,0,0,0,0-.05,0,0,0,0,0,0,0,0h-.09a.14.14,0,0,0-.09,0h0s0,0,0,0h0l0,0h0l.07,0s0,0,0,0H94s0,0,0,0,0,0,0,0h0s0,0,0,0,0,0,0,0h0s0,0,0,0,0,0,0,0,0,0,0,0,.06,0,0,0,0,0,0,0l-.05,0s0,0,0,0,0,0,0,0m-.6.61h0l-.06,0s0,0,0,0h.09l-.07,0s0,0,0,0h0a.08.08,0,0,1,.06,0h.1s0,0,0,0h.15v0h.08s0,0,0,0l0,0s0,0,0,0v-.06s0,0,0,0,0,0,0,0v-.05s0,0,0,0h0l0,0h0l0,0v0h0l0,0v0l0,0v0H93.7s0,0,0,0,0,0,0,0,0,0,0,0v0h-.07s0,0,0,0,0,0,0,0,0,0,0,0,0,0,0,0,0,0,.05,0,0,0,0,0,0,0,0,0,0,0,0,0l0,0h-.13v0h0s0,0,0,0,0,0,0,0h0s0,0,0,0,0,0,0,0h0s0,0,.06,0,0,0,0,0,0,0,0,0h0l0,0s0,0,0,0,0,0,0,0h0a.06.06,0,0,0,.05,0h-.07s0,0,0,0,0,0,0,0h-.06s0,0,0,0h0m.45-.27,0,0,0,0m3.14,2.55h-.05a0,0,0,0,1,0,0s0,0,0,0h-.11s0,0-.05,0h0a.06.06,0,0,1-.05,0s0,0-.06,0,0,0,0,.05,0,0,.08,0,0,.05.08,0a.08.08,0,0,1,.09,0h.08s0,0,0,0,0,0,0-.07,0,0,0,0,0,0,0-.08m-1.08-3,0,0s0,0-.06,0H95.6l0,0s0,0,0,0,0,0,0,0h.05s0,0,0,0,0,0,.05,0,0,0,0,0,0,0,0,0,0,0,0,0m.06.32s0,0,0,0h0v0h0s.06,0,.08,0,0,0,0,0h0m.06,0s0,0,0,.06,0,0,0,0h0s-.05,0,0,0,.08,0,.07,0,0,0,0,0,0,0,0,0,0,0,0,0,0,0,0,0,0,0,0,0h0s0,0,0,0,0,0,0,0,0,0,0,0,0,0,0,0-.05,0,0,0,0,0,0,0-.08,0-.06,0m-.12,2.31s0,0,0,.07,0,0,0,0,0,0,0,.1.05,0,0,.05h0s0,0,0-.05h0s0,0,0-.07,0,0,0,0a0,0,0,0,0,0-.05s0,0,0-.05l0-.06s0,0,0,0,0,0,0,0,0,0,0,0h-.06v0s0,0,0,0m0-.3s0,0,0,0,0,.06,0,.05v0s0,0,0,0l0,0h0a.75.75,0,0,1,0-.08.15.15,0,0,0,0-.1.34.34,0,0,1,0-.06s0,0,0,0a0,0,0,0,1,0,0s0,0,0,0-.05,0,0,0,0,0,0,0"/></g><path class="cls-2" d="M103.29,25.34a2.8,2.8,0,1,1,2.8,2.78A2.77,2.77,0,0,1,103.29,25.34Zm5.17,0a2.37,2.37,0,1,0-2.37,2.36A2.37,2.37,0,0,0,108.45,25.34Zm-1,1.51h-.51L106,25.44h-.51v1.41H105v-3h1.33c.55,0,1.09.15,1.09.81s-.42.82-1,.84ZM106,25c.38,0,1,.07,1-.41,0-.31-.41-.37-.74-.37h-.81V25Z"/><path class="cls-6" d="M42.39,38.1a.35.35,0,0,0,0-.28,1.09,1.09,0,0,1-.58.48L19.93,48.2a4.81,4.81,0,0,1-3,.18L.67,43.15A1,1,0,0,1,0,42.72.35.35,0,0,0,0,43a.34.34,0,0,0,0,.26.34.34,0,0,0,0,.26.34.34,0,0,0,0,.26.34.34,0,0,0,0,.26.34.34,0,0,0,0,.26c-.11.27.11.54.64.71l16.28,5.24a4.81,4.81,0,0,0,3-.18L41.8,40.18c.49-.22.69-.51.59-.76a.35.35,0,0,0,0-.26.35.35,0,0,0,0-.26.35.35,0,0,0,0-.26.35.35,0,0,0,0-.26A.35.35,0,0,0,42.39,38.1Z"/><path class="cls-6" d="M41.81,35.76,26,30.3a4.76,4.76,0,0,0-3,.16L.6,40.6c-.83.38-.8.91.06,1.19L16.95,47a4.81,4.81,0,0,0,3-.18L41.8,36.94C42.61,36.57,42.62,36,41.81,35.76ZM10.22,44.25c-.89,0-1.6-.3-1.6-.66s.72-.66,1.6-.66,1.6.3,1.6.66S11.11,44.25,10.22,44.25ZM38.28,36.7,19.91,44.87a1.72,1.72,0,0,1-1.1,0L6.29,40.47c-.31-.11-.34-.31-.06-.44L24,31.61a1.76,1.76,0,0,1,1.16-.05l13.14,4.68C38.6,36.35,38.6,36.56,38.28,36.7Z"/><path class="cls-6" d="M34,17.82a12.13,12.13,0,1,0-15,11.78l2.86,8.59,2.86-8.59A12.14,12.14,0,0,0,34,17.82ZM21.92,27.56a9.74,9.74,0,1,1,9.74-9.74A9.76,9.76,0,0,1,21.92,27.56Z"/><path class="cls-6" d="M22,11.34a5.3,5.3,0,0,0-5.3,5.3c0,2.93,5.3,9.47,5.3,9.47s5.3-6.54,5.3-9.47A5.3,5.3,0,0,0,22,11.34ZM22,19a2.35,2.35,0,1,1,2.35-2.35A2.35,2.35,0,0,1,22,19Z"/><path class="cls-6" d="M34.3,25.88h0a1.85,1.85,0,0,1,1.59-1,2.16,2.16,0,0,1,1.1.34l-.58,1.12A1.19,1.19,0,0,0,35.7,26c-1.34,0-1.41,1.73-1.41,2.66v3.59H33.08V25.1H34.3Z"/><path class="cls-6" d="M45,31.29h0a3.06,3.06,0,0,1-2.48,1.19A3.54,3.54,0,0,1,39,28.7a3.52,3.52,0,0,1,3.45-3.8A3.11,3.11,0,0,1,45,26.12h0V19.67h1.22V32.28H45ZM40.3,28.61a2.48,2.48,0,0,0,2.35,2.73,2.45,2.45,0,0,0,2.4-2.72A2.4,2.4,0,0,0,42.64,26,2.43,2.43,0,0,0,40.3,28.61Z"/><path class="cls-6" d="M50.49,28.95a2.33,2.33,0,0,0,2.35,2.4A2.46,2.46,0,0,0,55,29.87l1,.6a3.63,3.63,0,0,1-3.32,2,3.48,3.48,0,0,1-3.51-3.7c0-2.12,1.24-3.88,3.48-3.88s3.53,1.91,3.41,4Zm4.35-1A2.19,2.19,0,0,0,52.74,26a2.27,2.27,0,0,0-2.18,1.88Z"/><path class="cls-6" d="M60.38,25.88h0a1.85,1.85,0,0,1,1.59-1,2.16,2.16,0,0,1,1.1.34l-.58,1.12a1.19,1.19,0,0,0-.73-.32c-1.34,0-1.41,1.73-1.41,2.66v3.59H59.16V25.1h1.22Z"/></g></g></svg>