<svg xmlns="http://www.w3.org/2000/svg" xmlns:xlink="http://www.w3.org/1999/xlink" viewBox="0 0 49.82 49.82"><defs><style>.cls-1{fill:url(#linear-gradient);}.cls-2{fill:#282828;}</style><linearGradient id="linear-gradient" y1="24.91" x2="49.82" y2="24.91" gradientUnits="userSpaceOnUse"><stop offset="0" stop-color="#facf11"/><stop offset="1" stop-color="#cf982a"/></linearGradient></defs><title>phone</title><g id="Layer_2" data-name="Layer 2"><g id="Layer_1-2" data-name="Layer 1"><circle class="cls-1" cx="24.91" cy="24.91" r="24.91"/><path class="cls-2" d="M24.91,4.22A20.69,20.69,0,1,0,45.6,24.91,20.69,20.69,0,0,0,24.91,4.22Zm9.81,27.93L32.86,34c-2,2-7.15-.2-11.75-4.8s-6.66-9.8-4.8-11.75l1.86-1.86a2,2,0,0,1,2.64,0l2.74,2.74a1.82,1.82,0,0,1-.69,3,1.78,1.78,0,0,0-1.18,2.15,8.46,8.46,0,0,0,5.09,5.09,1.87,1.87,0,0,0,2.15-1.18,1.82,1.82,0,0,1,3-.69l2.74,2.74A2,2,0,0,1,34.72,32.15Z"/></g></g></svg>