<svg xmlns="http://www.w3.org/2000/svg" xmlns:xlink="http://www.w3.org/1999/xlink" viewBox="0 0 60 60"><defs><style>.cls-1{opacity:0.52;fill:url(#linear-gradient);}.cls-2{fill:#f4f4f4;}.cls-3{fill:url(#linear-gradient-2);}</style><linearGradient id="linear-gradient" x1="30" y1="59.34" x2="30" y2="-2.01" gradientUnits="userSpaceOnUse"><stop offset="0" stop-color="#b67b2b" stop-opacity="0"/><stop offset="0.03" stop-color="#b67b2b" stop-opacity="0.06"/><stop offset="0.21" stop-color="#b67b2b" stop-opacity="0.34"/><stop offset="0.39" stop-color="#b67b2b" stop-opacity="0.58"/><stop offset="0.56" stop-color="#b67b2b" stop-opacity="0.76"/><stop offset="0.72" stop-color="#b67b2b" stop-opacity="0.89"/><stop offset="0.87" stop-color="#b67b2b" stop-opacity="0.97"/><stop offset="1" stop-color="#b67b2b"/></linearGradient><linearGradient id="linear-gradient-2" x1="30.63" y1="20.01" x2="30.63" y2="41.6" gradientUnits="userSpaceOnUse"><stop offset="0" stop-color="#facf11"/><stop offset="1" stop-color="#cf982a"/></linearGradient></defs><title>phone</title><g id="Layer_2" data-name="Layer 2"><g id="Layer_1-2" data-name="Layer 1"><circle class="cls-1" cx="30" cy="30" r="30"/><circle class="cls-2" cx="30" cy="30" r="24.91"/><path class="cls-3" d="M41.81,35.54l-3.3-3.3a2.2,2.2,0,0,0-3.66.83,2.25,2.25,0,0,1-2.6,1.42c-2.36-.59-5.54-3.66-6.13-6.13a2.14,2.14,0,0,1,1.42-2.6,2.2,2.2,0,0,0,.83-3.66l-3.3-3.3a2.36,2.36,0,0,0-3.18,0L19.64,21c-2.24,2.36.24,8.61,5.78,14.15S37.21,43.32,39.57,41l2.24-2.24A2.36,2.36,0,0,0,41.81,35.54Z"/></g></g></svg>