<svg xmlns="http://www.w3.org/2000/svg" xmlns:xlink="http://www.w3.org/1999/xlink" viewBox="0 0 168.06 246.34"><defs><style>.cls-1{fill:none;}.cls-2{fill:url(#linear-gradient);}.cls-3{clip-path:url(#clip-path);}.cls-4{fill:url(#linear-gradient-2);}.cls-5{fill:url(#linear-gradient-3);}.cls-6{fill:url(#linear-gradient-4);}.cls-7{fill:url(#linear-gradient-5);}.cls-8{fill:url(#linear-gradient-6);}.cls-9{fill:url(#linear-gradient-7);}.cls-10{fill:url(#linear-gradient-8);}.cls-11{fill:url(#linear-gradient-9);}.cls-12{fill:url(#linear-gradient-10);}.cls-13{fill:url(#linear-gradient-11);}.cls-14{fill:url(#linear-gradient-12);}.cls-15{fill:url(#linear-gradient-13);}.cls-16{fill:url(#linear-gradient-14);}.cls-17{fill:url(#linear-gradient-15);}.cls-18{fill:url(#linear-gradient-16);}.cls-19{fill:url(#linear-gradient-17);}.cls-20{fill:url(#linear-gradient-18);}.cls-21{fill:url(#linear-gradient-19);}.cls-22{fill:url(#linear-gradient-20);}.cls-23{fill:url(#linear-gradient-21);}.cls-24{fill:url(#linear-gradient-22);}.cls-25{fill:url(#linear-gradient-23);}.cls-26{fill:url(#linear-gradient-24);}.cls-27{fill:url(#linear-gradient-25);}.cls-28{fill:url(#linear-gradient-26);}</style><linearGradient id="linear-gradient" x1="-109.51" y1="210.39" x2="45.3" y2="115.9" gradientUnits="userSpaceOnUse"><stop offset="0.3" stop-color="#fff"/><stop offset="1" stop-color="#fff" stop-opacity="0"/></linearGradient><clipPath id="clip-path"><path class="cls-1" d="M84,17.13c-37,0-69.49,11.77-69.49,11.77v73.78c0,63.93,69.49,97.69,69.49,97.69s69.49-33.75,69.49-97.69V28.9S121.05,17.13,84,17.13Z"/></clipPath><linearGradient id="linear-gradient-2" x1="87.18" y1="54.43" x2="87.18" y2="234.86" gradientUnits="userSpaceOnUse"><stop offset="0" stop-color="#facf11"/><stop offset="1" stop-color="#cf982a"/></linearGradient><linearGradient id="linear-gradient-3" x1="36.92" y1="54.43" x2="36.92" y2="234.86" xlink:href="#linear-gradient-2"/><linearGradient id="linear-gradient-4" x1="29.46" y1="54.43" x2="29.46" y2="234.86" xlink:href="#linear-gradient-2"/><linearGradient id="linear-gradient-5" x1="44.05" y1="54.43" x2="44.05" y2="234.86" xlink:href="#linear-gradient-2"/><linearGradient id="linear-gradient-6" x1="55" y1="54.43" x2="55" y2="234.86" xlink:href="#linear-gradient-2"/><linearGradient id="linear-gradient-7" x1="51.41" y1="54.43" x2="51.41" y2="234.86" xlink:href="#linear-gradient-2"/><linearGradient id="linear-gradient-8" x1="123.49" y1="54.43" x2="123.49" y2="234.86" xlink:href="#linear-gradient-2"/><linearGradient id="linear-gradient-9" x1="114.34" y1="54.43" x2="114.34" y2="234.86" xlink:href="#linear-gradient-2"/><linearGradient id="linear-gradient-10" x1="92.03" y1="54.43" x2="92.03" y2="234.86" xlink:href="#linear-gradient-2"/><linearGradient id="linear-gradient-11" x1="138.49" y1="54.43" x2="138.49" y2="234.86" xlink:href="#linear-gradient-2"/><linearGradient id="linear-gradient-12" x1="55.44" y1="54.43" x2="55.44" y2="234.86" xlink:href="#linear-gradient-2"/><linearGradient id="linear-gradient-13" x1="101.98" y1="54.43" x2="101.98" y2="234.86" xlink:href="#linear-gradient-2"/><linearGradient id="linear-gradient-14" x1="45.62" y1="54.43" x2="45.62" y2="234.86" xlink:href="#linear-gradient-2"/><linearGradient id="linear-gradient-15" x1="117.94" y1="54.43" x2="117.94" y2="234.86" xlink:href="#linear-gradient-2"/><linearGradient id="linear-gradient-16" x1="107.14" y1="54.43" x2="107.14" y2="234.86" xlink:href="#linear-gradient-2"/><linearGradient id="linear-gradient-17" x1="69.19" y1="54.43" x2="69.19" y2="234.86" xlink:href="#linear-gradient-2"/><linearGradient id="linear-gradient-18" x1="84.03" x2="84.03" y2="218.21" gradientUnits="userSpaceOnUse"><stop offset="0" stop-color="#ca922b"/><stop offset="0.06" stop-color="#cf982e"/><stop offset="0.28" stop-color="#dca635"/><stop offset="0.46" stop-color="#e1ab37"/><stop offset="0.74" stop-color="#cc9431"/><stop offset="1" stop-color="#b67b2b"/></linearGradient><linearGradient id="linear-gradient-19" x1="84.03" y1="4.4" x2="84.03" y2="213.32" gradientUnits="userSpaceOnUse"><stop offset="0" stop-color="#d29c2a"/><stop offset="0.08" stop-color="#dfad23"/><stop offset="0.22" stop-color="#f5c917"/><stop offset="0.31" stop-color="#efc11a"/><stop offset="0.44" stop-color="#ddaa24"/><stop offset="0.52" stop-color="#d29c2a"/><stop offset="0.81" stop-color="#facf11"/><stop offset="1" stop-color="#cf982a"/></linearGradient><linearGradient id="linear-gradient-20" x1="24.77" y1="36.17" x2="24.77" y2="17.09" xlink:href="#linear-gradient-2"/><linearGradient id="linear-gradient-21" x1="44.72" y1="31.53" x2="44.72" y2="12.85" xlink:href="#linear-gradient-2"/><linearGradient id="linear-gradient-22" x1="65.74" y1="28.6" x2="65.74" y2="10.65" xlink:href="#linear-gradient-2"/><linearGradient id="linear-gradient-23" x1="86.04" y1="27.57" x2="86.04" y2="10.27" xlink:href="#linear-gradient-2"/><linearGradient id="linear-gradient-24" x1="105.08" y1="28.59" x2="105.08" y2="10.58" xlink:href="#linear-gradient-2"/><linearGradient id="linear-gradient-25" x1="125.34" y1="31.45" x2="125.34" y2="12.33" xlink:href="#linear-gradient-2"/><linearGradient id="linear-gradient-26" x1="144.84" y1="35.41" x2="144.84" y2="17.69" xlink:href="#linear-gradient-2"/></defs><title>Raaleks LLC</title><g id="Layer_2" data-name="Layer 2"><g id="Layer_1-2" data-name="Layer 1"><path d="M84,6.41C42.68,6.41,6.41,19.55,6.41,19.55V102C6.41,173.39,84,211.09,84,211.09S161.66,173.39,161.66,102V19.55S125.38,6.41,84,6.41Z"/><path class="cls-2" d="M84,11.85c-38,0-71.42,12.32-71.42,12.32v77.22C12.61,168.3,84,203.63,84,203.63s71.42-35.33,71.42-102.24V24.17S122.08,11.85,84,11.85Z"/><g class="cls-3"><path class="cls-4" d="M83.46,46.58a42.93,42.93,0,0,1,.64,9.79A15.22,15.22,0,0,1,83,62.64c-.48-1.19-.66-2.48-1.18-3.66a31.1,31.1,0,0,0-4.65-7.08C75.88,50.38,74,48.52,72,48.28A39.41,39.41,0,0,0,74.61,52,14.35,14.35,0,0,1,77.15,58c-1.71-.53-3.25-1.52-5-2.09C68.41,54.7,64,54.85,60.9,57.64a11.17,11.17,0,0,0-2.13,2.68,11.76,11.76,0,0,0-1.56,3.73c1.31-.95,2.37-2.26,3.7-3.19a12,12,0,0,1,10.57-2.14c2,.59,3.86,2,4.08,4.16.37,4.19-3.46,7.42-3.93,11.38,2.88-1.91,4.86-5.1,7.74-7a39.34,39.34,0,0,0-1.21,4.69c-.23,1-.58,2-.75,3,1.67-1.2,2.82-3.12,4.37-4.48.48-.42,1.34-1.22,2.06-1s.81,1,.78,1.63c-.06,1.42-.85,2.71-1.2,4.06a9.69,9.69,0,0,0,.9,7.43c.95,1.42,2.46,2.34,3.23,3.88,1,1.85.67,3.77,1.08,5.71a6.07,6.07,0,0,0,.75-2.66c.38-2.16.37-4.47.94-6.59.72,1,1.58,1.94,2.37,2.91a16.69,16.69,0,0,0,2.62,2.92c-.35-1.81-.93-3.57-1.24-5.4A3.45,3.45,0,0,1,94.16,81c.59-.91,1.83-.28,2.5.17a18.1,18.1,0,0,1,4.86,5.08c2.93,4.56,3.6,9.41,4.41,14.63a16.82,16.82,0,0,0,1.12-4.53c1.07-6.18-.05-12.12-4.87-16.47a41.51,41.51,0,0,0-6-4.28c-1-.61-2.32-1.27-2.63-2.51a2.22,2.22,0,0,1,.76-1.86,13.77,13.77,0,0,1,4.13-2.67A79.11,79.11,0,0,1,110,64.21a45.1,45.1,0,0,1,7.11-1.78,5.78,5.78,0,0,0-2.19-.22c-1.47,0-2.92-.09-4.39,0a53,53,0,0,0-10.07,1.25c-2.91.78-5.81,2.39-8.85,2.29,2.64-2.52,3.3-5.93,4.27-9.32.41-1.43,1-2.79,1.48-4.21a5.33,5.33,0,0,0-3.55,2.1,22.56,22.56,0,0,0-3.92,6.5c-1.32-.71-1.55-3.12-2-4.47A49.25,49.25,0,0,0,85.59,50a9.75,9.75,0,0,0-2.13-3.37"/><path class="cls-5" d="M39.4,97.69c-1.74,2.43-3.91,4.89-5.25,7.56a5.32,5.32,0,0,0,5.49-5.34,3.59,3.59,0,0,0-.25-2.21"/><path class="cls-6" d="M27.28,104.09c-1.45,1.37-2.8,2.83-4.14,4.28-.46.5-1.21,1.59-1.87,1.76-.38.09-.75-.21-1.06-.39a10,10,0,0,0-2-.94c-.33-.09-1-.25-1.13.21s.56,1.27.92,1.62c1,1,2.3,1.79,2.85,3.17.69,1.79-.41,3.73.25,5.52.47,1.27,1.74,2.27,2.65,3.23Q27,126,30.43,129.29c1.07,1,2.2,2.51,3.67,2.9a12.68,12.68,0,0,0-.77-3.8,34.67,34.67,0,0,0-1.92-5.57c2.26,2.12,3.64,5.09,6.38,6.73a10,10,0,0,0,3.73,1.14c-.71-1.09-1.68-2-2.43-3.07-1.75-2.52-3.29-6.09-2.61-9.22.58-2.65,1.48-4.64,3.73-6.25.46-.33,2-1.14,1.61-1.89-.24-.46-.85-.34-1.24-.17a7.9,7.9,0,0,0-2.25,1.75c-2,2.05-3.74,4.41-5.6,6.6-.88,1-2,2-2.08,3.4-.72-.59-1.24-1.71-2.13-2.06s-2.57.41-3.47.63c0-.84,0-1.68.08-2.52,0-.39,0-.85.4-1.09.59-.37,1.79-.11,2.46-.09.31-1,1.2-1.07,2.08-1.35a29.31,29.31,0,0,0,5.22-1.62c1.28-.67,1.14-2.12,1.95-3.2,1.21-1.61,3.09-2.47,4.39-4-1.85.1-4.08.25-5.68,1.26-1.18.74-1.92,2-3.21,2.58a19.39,19.39,0,0,1-7.4,1,11.57,11.57,0,0,1,1.39-4.53c.34-.82.89-1.93.56-2.82"/><path class="cls-7" d="M54.58,139.28c-1.06,2.52-3.41,6.53-6.75,5.31-1.65-.63-2.56-2.08-4-3,0,.85.24,2.54-.26,3.25s-1.61.34-2.2.3c-2.08-.16-4-1-6.08-1.13a3.43,3.43,0,0,0-.36-2.19c-.27-.35-.81-.62-1.14-.17s-.19,1.2-.21,1.68l-.13,4.09c0,.53-.14,1.35.34,1.72,1,.8,1.74-.7,2.46-1.16a7.32,7.32,0,0,1,4.42-1.1,7.75,7.75,0,0,1,2.8.79c1.85,1.05,3.11,2.67,5.4,2.84,4,.34,5.07-5.35,5.46-8.28a8.56,8.56,0,0,0,.22-3"/><path class="cls-8" d="M37.93,150.43a10.58,10.58,0,0,0,.12,3.15,5.1,5.1,0,0,0,1.16,1.77,6.68,6.68,0,0,0,2.88,2.24c2.8.83,6.43-.49,8.89,1.52,1.74,1.42,3.08,3.51,4.5,5.25.71.87,1.29,2,2.49,2.12a22.32,22.32,0,0,0-.61-3.33c-.23-1.36-.3-2.77-.57-4.11a35.7,35.7,0,0,1,4.68.86c2.38.48,4.78.85,7.18,1.19a6.39,6.39,0,0,0,2.82-.15c.35-.11.8-.32.63-.79-.28-.72-1.52-.81-2.14-.93-2.23-.43-4.49-.73-6.7-1.28-.71-.17-2.74-.47-2.36-1.61s2.18-.69,3.05-.7a13.89,13.89,0,0,0,3.77-.24,10,10,0,0,0,1.6-1c.53-.3,1.46-.48,1.73-1.1s-1.08-.88-1.51-.95c-1.28-.2-2.62-.09-3.91-.17-.63,0-1.28-.2-1.24-1a8.89,8.89,0,0,1,3.49-5.78c1.41-.95,3.27-.89,3.38-3-2,0-3.1,1.49-4.77,2.32-1.17.58-2.54.7-3.35,1.84a11,11,0,0,0-1.18,2.8,3.4,3.4,0,0,1-.59,1.35c-.4.37-.87.21-1.34.23a5,5,0,0,0-1.9.51c-2.25,1-3.87,3.28-6.24,4-2.53.77-4.74-.72-6.51-2.39a13.37,13.37,0,0,0-2.13-2c-1.54-.89-3.62-.65-5.31-.7"/><path class="cls-9" d="M62.5,65.32c1.21.76,3,1.51,3.26,3.09A2,2,0,0,1,65,70.12a11.46,11.46,0,0,1-3.35,2.38,33.88,33.88,0,0,1-8.23,2.68c-2.81.56-5.79.81-8.08,2.72-2.09,1.72-2.85,4.21-4.17,6.46a17.13,17.13,0,0,1-5,5.38,78.43,78.43,0,0,1-7.65,4.16c-1,.56-2.44,1-2.58,2.28,2.6.08,4.82-1.81,6.84-3.24a12.6,12.6,0,0,1,2.08-1.31,9.54,9.54,0,0,0,2.07-1,27.62,27.62,0,0,0,2.64-2.72c1.41-1.53,2.86-3.05,4.26-4.6C44.93,82.15,46,81,47.12,79.81c.47-.51,1-1.39,1.69-1.65.85-.32,2.35.59,3.24.7l0-.79,6.42.2c0,2.31,4.16,1.39,4.44,3.6,1,0,2.51-.13,3.42.42.45.28.89,1,.59,1.54-.6,1-2.08.41-2.24,1.88-2.53-.55-5-1.36-7.46-2.1a13.23,13.23,0,0,0-4.83-.91c-2.08.21-4,1.41-5.72,2.46A46.2,46.2,0,0,0,42,88.36c-.37.28-1.48,1-.92,1.53.39.39,1.14.33,1.65.34,1.15,0,2.29.18,3.44.27a32,32,0,0,1,4.06.63,7.48,7.48,0,0,0,3.28.25c2.46-.59,4.65-2,7.13-2.58a6.37,6.37,0,0,1,3.14-.29c-1.16,1.81-3.69,2.75-5.45,3.88a4.91,4.91,0,0,0-2.44,2.81,53.49,53.49,0,0,1,6.46-1.06A5.67,5.67,0,0,1,64.91,94c1.06.37,1.77,1.53,2.44,2.34A38.39,38.39,0,0,1,72,102.48c.39-1-.27-2.75-.45-3.79-.51-3-1.46-6.27-1.5-9.34,2.31-.22,4.72-.4,6.79-1.52a20.09,20.09,0,0,0-2.64-.71c-1.32-.44-2.55-1.13-3.87-1.54a32.2,32.2,0,0,0,1.51-8.46c-1.89.19-3.44,1.11-5.22,1.52a12.65,12.65,0,0,1-4.07-.1c-1.11-.14-3.43-.65-2.53-2.26,1.74-3.13,6.78-2,8.34-5.57.93-2.14-1.12-4.06-2.75-5.06a2.88,2.88,0,0,0-3.13-.32"/><path class="cls-10" d="M103.62,69.11c1.46.84,3.52,1.05,5.12,1.61a32,32,0,0,1,7.56,3.94c8.71,6.09,13.38,15.94,15.22,26.2a43.27,43.27,0,0,1,1,7.91c.74-1.44.67-3.58.79-5.17a70.51,70.51,0,0,0-.34-13.09c-.24-2.12-1.16-5.71,1.72-6.44a5.87,5.87,0,0,1,3,.39c2,.62,3.76,1.74,5.73,2.27a19,19,0,0,0-3.64-4.1,38.18,38.18,0,0,0-9.52-6.55,29.71,29.71,0,0,1-3.71-1.69c-.4-.28-.86-.74-.59-1.27.51-1.07,2.5-1.33,3.51-1.7,2.49-.91,5.75-1.8,7.34-4.11a41.66,41.66,0,0,0-4.56.58c-3.3.41-6.61.9-9.91,1.18-3.7.26-7.44.62-11.15.6-2.51,0-5-.47-7.51-.55"/><path class="cls-11" d="M103.11,75.39c.84,1,1.94,1.84,2.85,2.81a19.06,19.06,0,0,1,4.85,8.3c1.35,5.58-1.23,11-3.1,16.13-1.73,4.72-3.64,9.35-4.42,14.36a52.42,52.42,0,0,0-.4,6.45c1.15-1.75,1.61-4.27,2.39-6.23a72.77,72.77,0,0,1,6-12.26c1.45-2.25,3.59-5,6.2-6a18.08,18.08,0,0,0,1.57,2.88,52.07,52.07,0,0,1,2.52,5.12,79.47,79.47,0,0,1,4,13.67c.49-1.07.13-2.48.11-3.62,0-2.77-.2-5.45-.49-8.21-.91-8.82-3.67-18-9.16-25-3.27-4.2-7.55-7.58-12.9-8.43"/><path class="cls-12" d="M98.69,86.6a11,11,0,0,0-.6,4.24c0,1.22-.17,2.4-.27,3.62a8.72,8.72,0,0,1-.43,2.82,8.42,8.42,0,0,1-1.89,2.3c-1.65,1.7-4,3.66-4.6,6,2,0,4.06-1.75,5.73-2.73.42-.24,1.6-1.18,2.11-.69.35.36-.13,1.13-.3,1.44a18.26,18.26,0,0,1-2.48,3.55c-2.86,3.46-5.72,6.91-8.68,10.29-1.1,1.26-1.92,3-3.3,4-.56-3.48.28-6.56,1.25-9.89.83-2.76,1.64-5.52,2.45-8.27.91-2.91,1.86-5.72,1.37-8.78l-.78,0a24.11,24.11,0,0,1-3,9.68c-1.29,2.41-2.92,4.61-4,7.12a29.54,29.54,0,0,0-1,19.66c1,3.34,3.08,6.31,6.35,7.69a11.18,11.18,0,0,0,3.43.66c4,.39,8.57-.63,11.54-3.44a13.15,13.15,0,0,0,2.19-3.4,10,10,0,0,0,1.32-3.27c-2.1.88-3.34,3.13-5.6,3.78s-4.75,1.51-7.08.79c-4.45-1.37-4.17-7.22-2.91-10.73,1.74-4.92,5.7-8.55,8.52-12.81a24.16,24.16,0,0,0,3.59-7.77A22.46,22.46,0,0,0,99,86.61h-.31"/><path class="cls-13" d="M138.87,90c.86,4.44.5,9.24,0,13.71-.46,4.71-.7,9.45-1.38,14.14a50.09,50.09,0,0,1-.94,6.59c-.14.54-.53,1.78-1.22,1.8-.93,0-1.53-1.55-1.84-2.21-1.2-2.56-2.34-5.17-3.33-7.82a3.24,3.24,0,0,0-.05,1.73l.37,3.32c.31,2.92.8,5.82,1.3,8.71a44.8,44.8,0,0,1,.77,5.22,17.93,17.93,0,0,1-.69,4.55c-.76,3.29-1.92,6.47-2.94,9.68a32.2,32.2,0,0,0-1.32,4.37c4.13-1.59,7.56-6.11,9.24-10.11a11.39,11.39,0,0,0,.92-4.07c0-.59,0-1.53.59-1.87,1-.6,2.16,1.68,2.59,2.29,2,2.82,3.71,6.23,3.87,9.73a6.09,6.09,0,0,0,.09-2.83c-.09-2.37-.32-4.74-.52-7.11-.7-7.66-1.79-15.38-2.16-23.07a9.5,9.5,0,0,1,5.36,5.36c.55,1.31.9,2.72,1.57,4a5.76,5.76,0,0,0,.05-1.89,40.94,40.94,0,0,0-.82-5.85,118.84,118.84,0,0,0-5.1-20.8A32.42,32.42,0,0,0,140.85,92a4,4,0,0,0-2-2"/><path class="cls-14" d="M66.13,100.09a8.32,8.32,0,0,0,0,2.36c.11.4.52.61.65,1s-.23,1.1-.42,1.53c-2.15,4.82-8.39,3.71-12.55,3.4-1.51-.11-3-.17-4.54-.3-2.28-.23-6-.66-7.27,1.82,2.25,0,4.36-1.43,6.61-.88,2.94.72,5.3,3,8.19,3.89a13.32,13.32,0,0,0,7.7-.57c3.59-1.3,4.62-4.53,4.32-8.07-.11-1.84-.55-3.92-2.69-4.18"/><path class="cls-15" d="M85.71,212.55a3.23,3.23,0,0,0-.08-1.58c-.19-1.11-.4-2.22-.61-3.33a77.42,77.42,0,0,1-1.18-9.8c-.7-10.68.81-22,5.92-31.49,1.83-3.41,4.26-7.51,7.55-9.69a80.75,80.75,0,0,0,.5,8.52,100.2,100.2,0,0,0,1.65,13.6c.51,2.29.76,5.94,2.91,7.34.12-3.88-.17-7.76,0-11.66.61-10.93,2.73-22.45,7.93-32.21a53.06,53.06,0,0,1,6.08-9.11c.57-.68,1.92-2.59,3-2.09s1.37,2.66,1.67,3.65a91.18,91.18,0,0,0,3.4,10,7,7,0,0,0-.06-3c-.14-2.16-.37-4.32-.58-6.48-.69-8-1.38-16.3-3.09-24.2-.24-1.09-.66-2.11-.93-3.18-.8.24-.76,1-.86,1.71-.23,1.67-.26,3.35-.47,5-.8,6.34-3.84,11.7-7.49,16.78-4.86,6.78-10.77,12.9-16.23,19.19a98.1,98.1,0,0,0-7,8.45,48.05,48.05,0,0,0-8,33.78,71.28,71.28,0,0,0,3.66,14.45c.63,1.79,1.58,3.48,2.25,5.27"/><path class="cls-16" d="M41.24,114.29v.31c2,1,4.16,1.39,5.85,3.06,4.41,4.41,3,11-1.53,14.65a15.1,15.1,0,0,1-4.3,2.33,18.65,18.65,0,0,0-3.81,1.47c-1.29.8-1.88,2.08-.89,3.4s2.51.87,3.75.31c1.48-.62,2.86-1.48,4.3-2.22,1.75-.9,3.76-1.8,5-3.36.88-1.07,1.44-3.26,3-3.63.58-.13.75.67.84,1.07.24,1,.21,2.64,1.39,3,.14-4.38.57-8.87.09-13.23-.31-2.83-1.62-5.52-4.34-6.68a13.53,13.53,0,0,0-4.83-.85,11.32,11.32,0,0,0-4.56.33"/><path class="cls-17" d="M115.67,202.13c.34-1-.14-2.6-.29-3.63-.36-2.41-.7-4.85-.94-7.28-.75-8.6-1.22-17.3.52-25.82a23.36,23.36,0,0,1,1.84-6.09c.35-.68,1-1.7,1.81-1.83,1.13-.2,2.07,1.8,2.46,2.6,1.64,3.36,3.34,6.89,4.66,10.38a3.4,3.4,0,0,0,.08-1.73c-.08-1.22-.18-2.42-.32-3.63-.58-5-1.37-10.13-3.42-14.76a20.65,20.65,0,0,0-2.44-4.17c-.29-.38-.83-1.24-1.41-1.09-.35.09-.55.46-.73.71-.49.69-1,1.43-1.38,2.16a43.87,43.87,0,0,0-4.12,10c-2.89,10.33-2.45,21.43-.06,31.82.56,2.44,1.21,4.93,2,7.31.57,1.69,1.31,3.36,1.72,5.09"/><path class="cls-18" d="M92.94,176.38c-.54,17.68,2.55,35.27,6.28,52.5.84,3.88,1.8,7.75,2.79,11.59.5,1.94,1.13,3.9,1.48,5.87.59-1.14.28-3,.18-4.25-.19-2.25-.27-4.53-.46-6.79-.47-6.55-1.11-13.07-1.86-19.59a91.65,91.65,0,0,0-1.72-11.55,83.52,83.52,0,0,0,13.9,11.78c2.35,1.6,5,3.53,7.88,3.86-1.5-2.25-3.85-4.17-5.77-6a74,74,0,0,1-6.17-6.94,77.17,77.17,0,0,1-12.39-22.6,75.08,75.08,0,0,1-2.55-7.8l-1.57,0"/><path class="cls-19" d="M80.31,97.85c.49-2.64,3.11-4.16,3.65-6.66a8.06,8.06,0,0,0-6.79,8.46c.09,1.81,1.19,3.74.64,5.53-.5,1.63-2.11,1.84-3.45,2.47A6.44,6.44,0,0,0,71.63,110a11.25,11.25,0,0,0-1.29,6.1c0,.63.69,1.39.46,1.95-.42,1-2.14,1.55-3.09,1.86-3.26,1.06-6.3.7-9.56-.08.33,3.48.56,6.95.8,10.42.13,1.91.56,4,.17,5.83a31,31,0,0,1-2.64,7.32c-.88,1.87-2,3.81-2.06,5.92,1.87-.32,2.52-2.47,3.2-4,.28-.62.57-1.44,1.21-1.76a4.52,4.52,0,0,1,1.58-.24c.9-.08,1.78-.26,2.68-.41,3-.52,6.59-1.4,9-3.38s2.68-5.45,2.78-8.48c.13-4.19-.05-8.42-.09-12.61,0-1.93-.34-4.07.11-6,.64-3,4.23-3.18,5.43-5.66C81.68,104.09,79.82,100.72,80.31,97.85ZM71.58,135S69,139.88,61.71,140l.5-16.26L72,122.33Z"/></g><path class="cls-20" d="M84,6.41c41.35,0,77.63,13.15,77.63,13.15V102C161.66,173.39,84,211.09,84,211.09S6.41,173.39,6.41,102V19.55S42.68,6.41,84,6.41M84,0c-22,0-42.45,3.66-55.76,6.74a226.69,226.69,0,0,0-24,6.79L0,15.06V102a105.35,105.35,0,0,0,12.89,50.2A142.07,142.07,0,0,0,40.82,188a179.23,179.23,0,0,0,40.42,28.89l2.8,1.36,2.8-1.36A179.22,179.22,0,0,0,127.25,188a142.07,142.07,0,0,0,27.93-35.79A105.35,105.35,0,0,0,168.06,102V15.06l-4.22-1.53a226.69,226.69,0,0,0-24-6.79C126.48,3.66,106,0,84,0Z"/><path class="cls-21" d="M162.34,17.67C162,17.54,125.26,4.4,84,4.4S6.09,17.54,5.72,17.67l-1.32.48V102a101,101,0,0,0,12.37,48.12,137.69,137.69,0,0,0,27.07,34.67,174.32,174.32,0,0,0,39.31,28.13l.87.42.87-.42a174.32,174.32,0,0,0,39.31-28.13,137.7,137.7,0,0,0,27.07-34.67A101,101,0,0,0,163.66,102V18.15ZM84,8.41c36.14,0,68.76,10.27,75.62,12.57V53.37c-9-2.84-41.79-12.43-75.62-12.43S17.38,50.53,8.41,53.37V21C15.27,18.68,47.89,8.41,84,8.41Zm37.52,173.37A176.59,176.59,0,0,1,84,208.85a176.59,176.59,0,0,1-37.52-27.07C29.13,165.32,8.41,138.11,8.41,102V55.89C16,53.44,49.48,43.34,84,43.34s68,10.1,75.62,12.55V102C159.66,138.11,138.93,165.32,121.55,181.78Z"/><path class="cls-22" d="M18.19,44.06c0-7.95,0-11.92,0-19.87,2.6-.76,3.9-1.11,6.52-1.79,2-.51,3.4-.45,4.27.15s1.31,1.83,1.31,3.67a6.64,6.64,0,0,1-.7,3.22,3.89,3.89,0,0,1-2.07,1.81c1.73,0,2.64,1.31,2.72,3.8v.26l.1,2.61a6,6,0,0,0,.28,1.73,2.21,2.21,0,0,0,.72,1c-1.74.4-2.61.61-4.34,1a5.78,5.78,0,0,1-.23-1.12q-.08-.66-.1-1.89l-.05-2.06v-.53q0-1.73-.73-2.19c-.48-.31-1.47-.27-2.95.13l-1.24.34c0,3.49,0,5.23,0,8.72C20.3,43.45,19.59,43.65,18.19,44.06ZM21.7,31.6,23.79,31A4,4,0,0,0,26,29.82a4,4,0,0,0,.62-2.47q0-1.48-.68-1.91a3.39,3.39,0,0,0-2.45,0L21.7,26Z"/><path class="cls-23" d="M37.75,39.26c1.78-8.31,2.67-12.45,4.46-20.72,2-.36,3-.53,5-.84L51.7,36.9c-1.6.22-2.4.34-4,.59l-1-4.84c-1.7.27-2.56.42-4.26.72l-1,5.17C40,38.82,39.25,39,37.75,39.26Zm5.3-9,3.15-.54L44.6,21.68Z"/><path class="cls-24" d="M58.7,36c1.8-8.14,2.7-12.21,4.5-20.32,2-.18,3-.26,5-.4l4.56,19.6c-1.61.08-2.41.13-4,.23l-1-4.93c-1.72.12-2.58.19-4.29.34l-1,5.08C61,35.78,60.23,35.86,58.7,36Zm5.35-8.5,3.17-.25-1.6-8.21Z"/><path class="cls-25" d="M80.8,34.66c0-7.95,0-11.92,0-19.87,1.5,0,2.24,0,3.74,0,0,6.6,0,9.89,0,16.49,2.7,0,4.05,0,6.75.1,0,1.35,0,2,0,3.38C87.09,34.61,85,34.59,80.8,34.66Z"/><path class="cls-26" d="M99.87,35.13c0-7.95,0-11.92,0-19.87,4.12.27,6.17.45,10.28.89,0,1.32,0,2,0,3.3-2.63-.29-3.94-.41-6.57-.62,0,1.84,0,2.76,0,4.59,2.45.2,3.67.31,6.12.57v3.15c-2.45-.26-3.67-.38-6.12-.57,0,2.19,0,3.28,0,5.47,2.69.22,4,.35,6.73.64,0,1.34,0,2,0,3.35C106.13,35.58,104,35.4,99.87,35.13Z"/><path class="cls-27" d="M119.06,37.16c0-7.95,0-11.92,0-19.87,1.45.21,2.18.33,3.63.56,0,3.32,0,5,0,8.3,1.81-3,2.71-4.53,4.51-7.52,1.64.3,2.46.46,4.1.79-2,2.9-3,4.35-5,7.29,2.13,5,3.2,7.56,5.32,12.64-1.62-.33-2.43-.48-4-.78-1.43-3.55-2.14-5.32-3.57-8.85l-1.32,2c0,2.41,0,3.62,0,6C121.23,37.49,120.51,37.38,119.06,37.16Z"/><path class="cls-28" d="M139,34c1.47.35,2.2.53,3.66.89v1.28a5.53,5.53,0,0,0,.45,2.61,2.4,2.4,0,0,0,1.56,1.07,2.07,2.07,0,0,0,1.76-.13,1.83,1.83,0,0,0,.6-1.59,3.33,3.33,0,0,0-.42-1.64,11.08,11.08,0,0,0-1.82-2.13L143,32.54A16.51,16.51,0,0,1,139.88,29a6.31,6.31,0,0,1-.66-2.94,4.12,4.12,0,0,1,1.47-3.57,4.66,4.66,0,0,1,4-.4,7.34,7.34,0,0,1,4.16,2.64,7.67,7.67,0,0,1,1.44,4.75q0,.28,0,.44c0,.1,0,.19,0,.27-1.38-.4-2.06-.59-3.45-1v-.53a4.68,4.68,0,0,0-.52-2.45,2.72,2.72,0,0,0-1.71-1.15,1.52,1.52,0,0,0-1.38.17,1.59,1.59,0,0,0-.5,1.32c0,.83.75,1.95,2.25,3.36l0,0,2,1.92a14.07,14.07,0,0,1,2.9,3.54,7.65,7.65,0,0,1,.76,3.49c0,1.81-.5,3.05-1.52,3.75s-2.46.78-4.35.28a7.78,7.78,0,0,1-4.4-2.66A8.14,8.14,0,0,1,139,35.18q0-.34.05-1.1Z"/></g></g></svg>