<svg xmlns="http://www.w3.org/2000/svg" viewBox="0 0 144.46 144.17"><defs><style>.cls-1{fill:#fff;}</style></defs><title>raaleks cars</title><g id="Layer_2" data-name="Layer 2"><g id="Layer_1-2" data-name="Layer 1"><path class="cls-1" d="M72.38,0A72,72,0,0,0,11.66,33.25L0,36.52,4.57,47.59A72.09,72.09,0,1,0,72.38,0Z"/><path d="M93.56,39.35a13.58,13.58,0,0,0-1.88.27v5.85c0,.84-.15,1.84.54,2.46s2.1.49,3.09.49a4.11,4.11,0,0,0,2.42-.31,1.6,1.6,0,0,0,.56-1.17,20,20,0,0,0,0-2.82A2.52,2.52,0,0,1,98.41,43a.82.82,0,0,1,1.51.53,18,18,0,0,1-.06,4c0,.32-.16.62-.19.94.6-.07,1.21-.24,1.81-.27v-6c0-.84.09-1.86-.61-2.47s-2-.48-3-.48-2-.19-2.62.42a2.16,2.16,0,0,0-.55,1.26,18.23,18.23,0,0,0-.06,2.62c0,.47.16,1.3-.47,1.41h-.34c-.82,0-.67-.87-.67-1.48,0-.91-.08-1.85,0-2.76,0-.47.25-.89.32-1.34"/><path d="M103.7,39.35V41.7a11.09,11.09,0,0,1,2.28-.13c0,.38.13,1.14-.07,1.46s-.4.16-.6.16a4.94,4.94,0,0,1-1.61-.2v2.35a20.58,20.58,0,0,1,5.58,0V43a17.76,17.76,0,0,1-2.42.13V41.57a10.78,10.78,0,0,1,2.42.13V39.35a8.14,8.14,0,0,1-2.55.2,11,11,0,0,1-3-.2"/><path d="M108.21,45.8a4.94,4.94,0,0,1,.2,1.81,1.39,1.39,0,0,1-.11.81c-.18.23-.5.2-.77.2h-1.95c-.27,0-.64.07-.84-.16a1.1,1.1,0,0,1-.17-.79,5.51,5.51,0,0,1,.2-1.75c-.25,0-.83,0-1,.18s-.07.76-.07,1V49a2,2,0,0,0,.25,1.21,1.38,1.38,0,0,0,1,.49,11,11,0,0,0,3,0,1.38,1.38,0,0,0,1.1-.57,2.81,2.81,0,0,0,.17-1.41V45.94l-1.08-.13"/><path d="M101.42,48.89a27.43,27.43,0,0,1-5,3.13l-1.21.7c-.17.1-.4.27-.6.24s-.58-.43-.81-.63a8.32,8.32,0,0,1-2-2.17,2.88,2.88,0,0,0-.07,1.08v2.08a3.28,3.28,0,0,1,2.08,1.14c.76.64,1.57,1.25,2.28,1.95a19,19,0,0,1-4.37-.27v4.17A21.55,21.55,0,0,1,96.58,60a21.74,21.74,0,0,1,4.91.27V56.15a14.67,14.67,0,0,1-2.22.27,2.57,2.57,0,0,1-.87,0,3.65,3.65,0,0,1-1.08-.89,20.84,20.84,0,0,0,3-1.49c.32-.16.93-.32,1.14-.63s.07-.81.07-1.1V50a2.91,2.91,0,0,0-.07-1.08"/><polyline points="107.87 51.78 107.87 53.73 109.28 53.73 109.28 51.78 107.87 51.78"/><path d="M104.78,54.88a5.81,5.81,0,0,1-1.08.13V58.3c0,.48-.05,1.09.35,1.44a2.59,2.59,0,0,0,1.73.31,2.2,2.2,0,0,0,1.4-.24c.51-.43.28-1.59.28-2.18,0-.33,0-.8.4-.86s.54.42.54.79a11.78,11.78,0,0,1-.13,2.42,5.19,5.19,0,0,0,1-.13V56.56c0-.47.08-1-.28-1.4s-1.16-.35-1.73-.35-1.08-.1-1.46.24c-.54.47-.36,1.54-.36,2.17,0,.3.06.76-.34.84s-.54-.4-.54-.71a9.28,9.28,0,0,1,.2-2.49"/><path d="M99.67,61.06c0,.32.16.62.19.94a23.94,23.94,0,0,1,.08,2.55c0,.34.12,1-.07,1.26s-.4.16-.6.16H97.79c-.21,0-.47,0-.56-.2a3.28,3.28,0,0,1,0-1.14,14.21,14.21,0,0,1,.27-3H95.37c0,.3.15.58.19.87a18.19,18.19,0,0,1,.08,2.08,3.28,3.28,0,0,1,0,1.14c-.09.2-.3.2-.5.2H93.83c-.18,0-.42,0-.54-.16s-.07-.87-.07-1.19a14.66,14.66,0,0,1,0-1.95c0-.49.25-.93.32-1.41l-1.88.27v8.33a15.89,15.89,0,0,1,4.91-.34,15.93,15.93,0,0,1,4.91.34V61.39c-.6-.12-1.22-.19-1.81-.34"/><path d="M109.21,60.65c-.75.44-1.6.71-2.35,1.14a.87.87,0,0,0-.28-.69,1.22,1.22,0,0,0-.73-.12c-.59,0-1.56-.19-1.92.41a3.55,3.55,0,0,0-.23,1.81v3.63a5.52,5.52,0,0,1,2.15-.2,13.07,13.07,0,0,1,3.43.13V64.42a9,9,0,0,1-2.42.13,1.12,1.12,0,0,1,.07-.58c.13-.21.46-.29.67-.38a17.75,17.75,0,0,1,1.68-.66V61.46A2.09,2.09,0,0,0,109.21,60.65Zm-3.29,3.83h-1.28c0-.3-.15-1.14.11-1.34s.4-.07.56-.07.42,0,.54.11S105.92,64.17,105.92,64.48Z"/><path d="M109.21,67a21.81,21.81,0,0,1-3.9,1.69l-1.08.43a1,1,0,0,0-.47.26c-.12.18-.07.5-.07.71v1.68c.57-.26,1.09.16,1.61.4,1.34.59,2.68,1.23,4,1.95V72.75c-.41.07-1.24,0-1.44-.48a3.64,3.64,0,0,1,0-1.26,2.15,2.15,0,0,1,.07-1,1.37,1.37,0,0,1,1.41-.35V67.91A2.29,2.29,0,0,0,109.21,67Zm-2.35,4.84a6,6,0,0,1-1.81-.81,16.16,16.16,0,0,0,1.75-.74A4.39,4.39,0,0,1,106.86,71.88Z"/><path d="M99.67,70.4c.07.48.2.93.26,1.41.06.64,0,1.31,0,1.95,0,.3.12.94-.11,1.17s-.39.11-.56.11H97.79A49.33,49.33,0,0,1,92.55,75c-.3,0-.58-.15-.87-.19v4.17a15.89,15.89,0,0,1,4.91-.34,15.91,15.91,0,0,1,4.91.34V71.34c0-.18.05-.47-.07-.63s-.32-.13-.47-.16a9.17,9.17,0,0,0-1.28-.15"/><path d="M108.27,74.23a12.08,12.08,0,0,1,.13,1.81,1.31,1.31,0,0,1-.12.79c-.19.26-.54.22-.82.22h-1.95c-.31,0-.63,0-.82-.27a1.28,1.28,0,0,1-.12-.74,7.41,7.41,0,0,1,.2-1.75l-1.08.13v2.62a2.78,2.78,0,0,0,.23,1.48,1.39,1.39,0,0,0,1.05.53,15.5,15.5,0,0,0,3,0,1.43,1.43,0,0,0,1-.46,1.9,1.9,0,0,0,.25-1.21V75.44c0-.26.1-.81-.07-1s-.69-.18-.94-.18"/><polyline points="106.53 79.81 106.53 82.76 107.94 82.76 107.94 79.81 106.53 79.81"/><path d="M101.49,91.16V89.55a2.47,2.47,0,0,1-1.95-.32c-.24-.12-.59-.22-.7-.49a2.11,2.11,0,0,1,0-.74V85.32a1.12,1.12,0,0,1,.07-.58c.15-.23.51-.31.74-.4a2.26,2.26,0,0,1,1.88-.16v-4.7c-.43.18-.78.49-1.21.68-1.92.85-3.9,1.59-5.85,2.37l-1.88.75c-.24.1-.65.18-.81.41s-.07.86-.07,1.17v3.09a1.24,1.24,0,0,1,.54-.27,1.14,1.14,0,0,1,.54.17c.36.16.71.34,1.08.5,1.77.76,3.49,1.64,5.24,2.44a15.24,15.24,0,0,1,1.61.83c.19.12.43.32.65.16S101.49,91.36,101.49,91.16Zm-4.3-4.91v1.81A28.52,28.52,0,0,1,94,86.73v-.13a20,20,0,0,0,3.09-1.28A2.49,2.49,0,0,1,97.18,86.26Z"/><path d="M101.33,92.1c-.22-.16-.46,0-.65.14a12.76,12.76,0,0,1-1.55.68c-1.81.73-3.65,1.43-5.44,2.2l-1.34.54c-.19.08-.48.14-.6.31s-.07.86-.07,1.17v3.09a1.43,1.43,0,0,1,.54-.27c.23,0,.47.15.67.24.59.26,1.17.54,1.75.82,1.55.76,3.15,1.43,4.7,2.19.4.2.82.39,1.21.62a6.44,6.44,0,0,0,.94.57v-2.55a2.43,2.43,0,0,1-1.95-.32c-.24-.12-.59-.22-.7-.49a2.11,2.11,0,0,1,0-.74V97.61a1.11,1.11,0,0,1,.07-.58c.13-.2.46-.28.67-.36a2.26,2.26,0,0,1,1.95-.2V93.25C101.49,92.95,101.61,92.3,101.33,92.1Zm-4.14,6.45v1.81a8.73,8.73,0,0,1-1.41-.58A10.82,10.82,0,0,1,94,99c1-.49,2.15-.81,3.16-1.34A2.49,2.49,0,0,1,97.18,98.55Z"/><path d="M97.92,111.52a1.11,1.11,0,0,1-.58-.07c-.23-.16-.23-.83-.09-1s.77-.4,1.08-.52l2-.82a4.17,4.17,0,0,0,1-.43c.26-.2.16-.72.16-1v-2.08a2.7,2.7,0,0,0-.07-1,16.26,16.26,0,0,1-2.82,1.41,8.9,8.9,0,0,1-1.41.6,1.48,1.48,0,0,0-.41-1.17,2.25,2.25,0,0,0-1.4-.25c-1.08,0-2.76-.31-3.39.81a6.11,6.11,0,0,0-.3,3v6.52a8.84,8.84,0,0,1,3.49-.34h3.49a8.88,8.88,0,0,1,2.82.27v-4.23A10.57,10.57,0,0,1,97.92,111.52Zm-2.35-1.68v1.61H93.29v-1.68a1.47,1.47,0,0,1,.09-.78c.11-.16.33-.16.52-.16.39,0,1.37-.18,1.6.21A1.63,1.63,0,0,1,95.57,109.84Z"/><path d="M59.72,33.93a18.23,18.23,0,0,1,.4,4.17,6.46,6.46,0,0,1-.4,2.69c-.22-.5-.31-1-.55-1.55a13.27,13.27,0,0,0-2.08-3,4,4,0,0,0-2.27-1.48A16.83,16.83,0,0,0,56,36.35a6.11,6.11,0,0,1,1.17,2.55c-.74-.2-1.41-.6-2.15-.83a4.88,4.88,0,0,0-4.82.86,4.77,4.77,0,0,0-.88,1.17,5,5,0,0,0-.62,1.61c.55-.42,1-1,1.55-1.41a5.16,5.16,0,0,1,4.5-1.05A2.23,2.23,0,0,1,56.55,41c.21,1.78-1.39,3.21-1.53,4.91,1.21-.85,2-2.24,3.23-3.09a16.72,16.72,0,0,0-.46,2c-.09.43-.22.85-.28,1.28.7-.53,1.17-1.37,1.81-2,.2-.18.56-.54.87-.46s.36.43.36.68a8.72,8.72,0,0,1-.46,1.75,4.12,4.12,0,0,0,.48,3.16c.42.59,1.08,1,1.44,1.61a8.67,8.67,0,0,1,.54,2.42,2.58,2.58,0,0,0,.29-1.14c.13-.93.1-1.91.32-2.82.32.43.7.81,1.06,1.21a7.14,7.14,0,0,0,1.16,1.21c-.18-.77-.45-1.51-.6-2.28a1.46,1.46,0,0,1,0-1c.24-.4.78-.14,1.08,0A7.74,7.74,0,0,1,68,50.59a15.1,15.1,0,0,1,2.08,6.18,7.15,7.15,0,0,0,.42-1.95,7.27,7.27,0,0,0-2.3-7,17.81,17.81,0,0,0-2.62-1.75c-.43-.25-1-.51-1.16-1a.94.94,0,0,1,.3-.81,5.91,5.91,0,0,1,1.73-1.19,34,34,0,0,1,4.91-2,19.41,19.41,0,0,1,3-.85,2.49,2.49,0,0,0-.94-.07c-.63,0-1.25,0-1.88.06a22.85,22.85,0,0,0-4.3.66C66,41.27,64.79,42,63.48,42c1.1-1.11,1.34-2.57,1.71-4,.16-.62.41-1.2.58-1.81a2.29,2.29,0,0,0-1.49.94,9.61,9.61,0,0,0-1.6,2.82c-.58-.28-.71-1.31-.9-1.88a21,21,0,0,0-1.1-2.69,4.16,4.16,0,0,0-1-1.41"/><path d="M41.51,56.31a25.77,25.77,0,0,0-2.15,3.29,2.28,2.28,0,0,0,2.28-2.35,1.53,1.53,0,0,0-.13-.94"/><path d="M36.4,59.2c-.6.6-1.16,1.24-1.72,1.88-.19.22-.5.69-.78.78s-.33-.08-.46-.15a4.3,4.3,0,0,0-.87-.37c-.14,0-.43-.09-.48.1s.26.53.41.68a4.16,4.16,0,0,1,1.26,1.32c.32.75-.13,1.6.18,2.35a4.66,4.66,0,0,0,1.18,1.34q1.43,1.43,3,2.77a4.34,4.34,0,0,0,1.61,1.19,5.39,5.39,0,0,0-.38-1.61,14.75,14.75,0,0,0-.9-2.35c1,.87,1.63,2.12,2.82,2.79a4.3,4.3,0,0,0,1.61.44c-.32-.45-.75-.83-1.08-1.28a5.39,5.39,0,0,1-1.24-3.9A4,4,0,0,1,42,62.46c.19-.14.84-.51.67-.83s-.37-.13-.53-.06a3.39,3.39,0,0,0-.94.78c-.83.9-1.55,1.93-2.31,2.89-.36.45-.83.87-.85,1.48-.32-.24-.56-.71-.94-.85s-1.1.21-1.48.31c0-.36,0-.72,0-1.08,0-.17,0-.36.16-.47s.76-.07,1.05-.07c.12-.41.5-.47.87-.6A12.61,12.61,0,0,0,40,63.21c.54-.3.46-.92.79-1.39.5-.7,1.29-1.1,1.83-1.75a5.26,5.26,0,0,0-2.42.61c-.5.33-.79.88-1.34,1.14a8.35,8.35,0,0,1-3.16.53,4.92,4.92,0,0,1,.54-1.95,1.8,1.8,0,0,0,.2-1.21"/><path d="M48.56,73.84c-.42,1.09-1.37,2.83-2.82,2.35C45,75.95,44.62,75.34,44,75c0,.36.13,1.08-.07,1.39s-.68.16-.94.16c-.89,0-1.73-.37-2.62-.4a1.46,1.46,0,0,0-.18-.93c-.12-.14-.36-.25-.49-.06s-.07.52-.07.72v1.75c0,.22,0,.58.17.73.46.33.74-.32,1-.53a3.15,3.15,0,0,1,1.88-.53,3.34,3.34,0,0,1,1.21.3c.81.43,1.37,1.1,2.35,1.14,1.73.09,2.1-2.35,2.23-3.6a3.63,3.63,0,0,0,.06-1.28"/><path d="M41.57,78.82a4.49,4.49,0,0,0,.09,1.34,2.18,2.18,0,0,0,.52.74,2.87,2.87,0,0,0,1.27.92c1.21.32,2.75-.29,3.83.53a14.92,14.92,0,0,1,2,2.18c.32.36.58.83,1.09.87A9.48,9.48,0,0,0,50.07,84c-.12-.58-.16-1.18-.3-1.75a15.38,15.38,0,0,1,2,.31c1,.17,2.06.3,3.09.41a2.75,2.75,0,0,0,1.21-.1c.15-.05.34-.15.26-.34s-.66-.33-.93-.37c-1-.16-1.93-.25-2.89-.46-.3-.06-1.18-.16-1-.66s.92-.32,1.3-.34a6,6,0,0,0,1.61-.15,4.31,4.31,0,0,0,.67-.43c.22-.13.62-.23.73-.49s-.47-.36-.66-.38c-.55-.07-1.12,0-1.68,0-.27,0-.55-.07-.54-.4a3.79,3.79,0,0,1,1.42-2.51c.59-.42,1.39-.42,1.41-1.32-.86,0-1.31.67-2,1.05-.49.26-1.08.33-1.41.83a4.69,4.69,0,0,0-.47,1.21,1.45,1.45,0,0,1-.24.58c-.17.17-.37.1-.57.11a2.16,2.16,0,0,0-.81.24c-.95.47-1.61,1.45-2.62,1.79a2.91,2.91,0,0,1-2.82-.94,5.72,5.72,0,0,0-.94-.83,4.89,4.89,0,0,0-2.28-.23"/><path d="M51,42.19c.53.31,1.3.6,1.44,1.28a.87.87,0,0,1-.3.74,4.91,4.91,0,0,1-1.4,1.06,14.58,14.58,0,0,1-3.49,1.25,7.32,7.32,0,0,0-3.43,1.27,9,9,0,0,0-1.7,2.81A7.32,7.32,0,0,1,40,53a33.67,33.67,0,0,1-3.23,1.88c-.43.25-1,.45-1.08,1a5.22,5.22,0,0,0,2.89-1.47,5.41,5.41,0,0,1,.87-.59,4.1,4.1,0,0,0,.87-.44,11.81,11.81,0,0,0,1.09-1.2c.59-.67,1.18-1.34,1.77-2l1.35-1.55c.19-.22.42-.6.7-.72s1,.22,1.4.25v-.34h2.76c0,1,1.8.54,1.95,1.48a3.22,3.22,0,0,1,1.47.14c.2.11.39.42.27.65-.25.45-.89.2-.94.83-1.09-.2-2.15-.52-3.23-.8a5.7,5.7,0,0,0-2.08-.32,6.22,6.22,0,0,0-2.42,1.12,19.81,19.81,0,0,0-1.95,1.43c-.15.13-.62.43-.37.66s.49.12.71.12c.49,0,1,0,1.48.07a13.79,13.79,0,0,1,1.75.22,3.22,3.22,0,0,0,1.41.06c1-.28,2-.9,3-1.2a2.75,2.75,0,0,1,1.34-.16c-.47.79-1.55,1.22-2.28,1.73a2.1,2.1,0,0,0-1,1.23,23,23,0,0,1,2.76-.54,2.44,2.44,0,0,1,1.08-.09c.46.14.78.63,1.08,1a16.4,16.4,0,0,1,2.08,2.55c.15-.43-.15-1.17-.24-1.61a26.71,26.71,0,0,1-.77-4,7.5,7.5,0,0,0,2.89-.74,8.65,8.65,0,0,0-1.14-.27c-.57-.17-1.11-.45-1.68-.6a13.68,13.68,0,0,0,.54-3.63,18.09,18.09,0,0,0-2.22.72,5.45,5.45,0,0,1-1.75,0c-.48,0-1.48-.23-1.12-.93.7-1.36,2.88-1,3.5-2.49.37-.92-.53-1.72-1.24-2.12a1.24,1.24,0,0,0-1.34-.1"/><path d="M68.65,43.27a13.09,13.09,0,0,0,2.22.62,13.76,13.76,0,0,1,3.29,1.58c3.81,2.48,5.94,6.62,6.87,11a18.38,18.38,0,0,1,.52,3.36,6,6,0,0,0,.27-2.22A29.94,29.94,0,0,0,81.51,52c-.13-.9-.57-2.42.65-2.77a2.53,2.53,0,0,1,1.28.13c.85.24,1.63.69,2.49.89a8.13,8.13,0,0,0-1.61-1.7,16.38,16.38,0,0,0-4.17-2.67,12.78,12.78,0,0,1-1.61-.67c-.18-.11-.38-.31-.27-.54.2-.46,1.05-.6,1.48-.77,1.06-.42,2.44-.84,3.09-1.85a18,18,0,0,0-1.95.31c-1.41.22-2.82.47-4.23.63-1.58.16-3.18.36-4.77.4-1.08,0-2.15-.13-3.23-.13"/><path d="M68.52,46c.37.43.86.76,1.26,1.16A8.13,8.13,0,0,1,72,50.59c.65,2.36-.38,4.72-1.11,6.92a32.28,32.28,0,0,0-1.71,6.18,22.26,22.26,0,0,0-.09,2.76A14.76,14.76,0,0,0,70,63.76a31,31,0,0,1,2.39-5.31A6.06,6.06,0,0,1,75,55.84,7.7,7.7,0,0,0,75.68,57a22.18,22.18,0,0,1,1.15,2.15A33.79,33.79,0,0,1,78.73,65a3.7,3.7,0,0,0,0-1.55c0-1.18-.16-2.32-.32-3.49a20.87,20.87,0,0,0-4.26-10.55A9,9,0,0,0,68.52,46"/><path d="M66.77,50.8a4.69,4.69,0,0,0-.2,1.81c0,.52,0,1-.07,1.55a3.7,3.7,0,0,1-.15,1.21,3.59,3.59,0,0,1-.78,1A6.9,6.9,0,0,0,63.68,59a6,6,0,0,0,2.42-1.24c.18-.11.67-.53.89-.32s0,.48-.11.62a7.79,7.79,0,0,1-1,1.55c-1.18,1.51-2.36,3-3.58,4.5a9.48,9.48,0,0,1-1.36,1.75,9.3,9.3,0,0,1,.4-4.23c.32-1.19.63-2.38.94-3.56a8.07,8.07,0,0,0,.47-3.76H62.4a10.25,10.25,0,0,1-1.16,4.17c-.52,1-1.19,2-1.63,3.09a12.55,12.55,0,0,0-.16,8.4,5,5,0,0,0,2.82,3.19,4.82,4.82,0,0,0,1.48.24,6.48,6.48,0,0,0,4.9-1.62,5.61,5.61,0,0,0,.89-1.48,4.27,4.27,0,0,0,.52-1.41c-.89.4-1.39,1.38-2.35,1.69a5.43,5.43,0,0,1-3,.43c-1.92-.53-1.88-3-1.39-4.54.68-2.12,2.33-3.72,3.48-5.58a10.28,10.28,0,0,0,1.44-3.36,9.54,9.54,0,0,0-1.31-6.72h-.13"/><path d="M84,51.74a20.33,20.33,0,0,1,.2,5.85c-.13,2-.18,4-.4,6a21.27,21.27,0,0,1-.31,2.82c-.05.23-.2.77-.5.79s-.67-.64-.82-.92c-.55-1.08-1.07-2.18-1.53-3.29a1.37,1.37,0,0,0,0,.74l.2,1.41c.17,1.24.42,2.47.67,3.7a19,19,0,0,1,.4,2.22A7.62,7.62,0,0,1,81.72,73c-.28,1.41-.74,2.78-1.13,4.17a13.69,13.69,0,0,0-.51,1.88,8.07,8.07,0,0,0,3.83-4.44,4.84,4.84,0,0,0,.34-1.75c0-.25,0-.65.23-.81.41-.27.95.69,1.14.94a8.23,8.23,0,0,1,1.79,4.1,2.59,2.59,0,0,0,0-1.21c-.07-1-.2-2-.32-3-.4-3.26-1-6.54-1.23-9.81a4.07,4.07,0,0,1,2.37,2.22c.25.55.42,1.15.72,1.68a2.44,2.44,0,0,0,0-.81,17.39,17.39,0,0,0-.43-2.49,50.52,50.52,0,0,0-2.46-8.8,13.8,13.8,0,0,0-1.14-2.35,1.73,1.73,0,0,0-.87-.81"/><path d="M53,57a3.53,3.53,0,0,0,0,1c.05.17.23.25.29.42s-.08.47-.16.66c-.86,2.08-3.55,1.69-5.34,1.62-.65,0-1.3,0-1.95-.07-1-.07-2.58-.2-3.09.87,1,0,1.85-.67,2.82-.46,1.27.27,2.31,1.21,3.56,1.55a5.74,5.74,0,0,0,3.29-.35c1.52-.6,1.92-2,1.75-3.5-.07-.78-.29-1.66-1.21-1.75"/><path d="M62.87,104.69a1.37,1.37,0,0,0-.05-.67c-.1-.47-.2-.94-.31-1.41a32.88,32.88,0,0,1-.64-4.17A25,25,0,0,1,64,84.93a11.43,11.43,0,0,1,3.11-4.23,34.29,34.29,0,0,0,.32,3.63,42.56,42.56,0,0,0,.88,5.78c.25,1,.4,2.52,1.34,3.09,0-1.66-.17-3.31-.13-5a33.27,33.27,0,0,1,3-13.84,22.62,22.62,0,0,1,2.48-4c.24-.3.79-1.13,1.26-.93S76.87,70.6,77,71a38.79,38.79,0,0,0,1.59,4.23A3,3,0,0,0,78.53,74c-.09-.92-.22-1.84-.34-2.76a82.2,82.2,0,0,0-1.64-10.28c-.12-.46-.31-.89-.44-1.34-.34.11-.31.43-.35.74-.08.71-.07,1.43-.13,2.15a15.65,15.65,0,0,1-3,7.26c-2,3-4.45,5.65-6.7,8.4a41.89,41.89,0,0,0-2.88,3.7,20.42,20.42,0,0,0-3,14.51,30.3,30.3,0,0,0,1.76,6.12c.3.76.72,1.47,1,2.22"/><path d="M42.51,63.36v.13a8.64,8.64,0,0,1,2.55,1.23C47,66.55,46.5,69.39,44.6,71A6.48,6.48,0,0,1,42.78,72a8,8,0,0,0-1.61.68.94.94,0,0,0-.34,1.46c.42.51,1.09.34,1.61.08s1.21-.67,1.81-1a6.51,6.51,0,0,0,2.11-1.5c.36-.47.57-1.41,1.24-1.59.25-.06.33.27.37.45.12.44.13,1.12.64,1.28a40.39,40.39,0,0,0-.13-5.64,3.31,3.31,0,0,0-1.95-2.79,5.83,5.83,0,0,0-2.08-.3,4.88,4.88,0,0,0-1.95.2"/><path d="M75.57,99.85a3.91,3.91,0,0,0-.17-1.55c-.18-1-.36-2.06-.5-3.09a38.09,38.09,0,0,1-.12-11,9.93,9.93,0,0,1,.71-2.62c.14-.29.4-.74.75-.81s.91.74,1.09,1.08c.75,1.41,1.52,2.89,2.14,4.37a1.44,1.44,0,0,0,0-.74c-.05-.52-.11-1-.18-1.55a21.69,21.69,0,0,0-1.66-6.25,8.81,8.81,0,0,0-1.1-1.75c-.13-.16-.37-.52-.62-.45s-.23.2-.3.31c-.2.3-.39.62-.56.94A18.66,18.66,0,0,0,73.42,81a27.58,27.58,0,0,0,.4,13.57c.27,1,.58,2.09.95,3.09.27.71.6,1.42.81,2.15"/><path d="M65.49,89.17c0,7.55,1.56,15,3.39,22.31.41,1.64.87,3.28,1.35,4.91.24.82.54,1.65.71,2.49a3.71,3.71,0,0,0,0-1.81c-.11-1-.17-1.93-.29-2.89-.29-2.79-.65-5.56-1.06-8.33a38.94,38.94,0,0,0-.89-4.91,35.79,35.79,0,0,0,6.12,4.84,8.06,8.06,0,0,0,3.43,1.54,17.33,17.33,0,0,0-2.55-2.5A31.63,31.63,0,0,1,73,101.93a32.89,32.89,0,0,1-5.61-9.47,31.94,31.94,0,0,1-1.2-3.29h-.67"/><path d="M59,55.84c.17-1.13,1.28-1.81,1.48-2.89a3.44,3.44,0,0,0-2.8,3.7c.06.77.56,1.58.35,2.35s-.88.81-1.44,1.1a2.76,2.76,0,0,0-1.14,1.05A4.78,4.78,0,0,0,55,63.76c0,.27.31.58.22.82-.17.44-.89.69-1.3.83a7.29,7.29,0,0,1-4.1.09c.19,1.48.33,3,.48,4.44a9.25,9.25,0,0,1,.15,2.49,13.17,13.17,0,0,1-1,3.16,6.65,6.65,0,0,0-.81,2.55c.8-.16,1-1.09,1.32-1.75a1.43,1.43,0,0,1,.5-.77,2,2,0,0,1,.67-.12c.39,0,.76-.13,1.14-.21a8.58,8.58,0,0,0,3.83-1.56c1.07-.92,1.08-2.36,1.08-3.65,0-1.79-.13-3.59-.2-5.38a10.8,10.8,0,0,1,0-2.55c.24-1.27,1.77-1.41,2.25-2.49S58.87,57.07,59,55.84Zm-3.25,16A4.74,4.74,0,0,1,51.63,74V67.1l4.17-.72Z"/><path d="M107,34.37a2,2,0,0,1,1,.26,1.84,1.84,0,0,1,.74.73,2,2,0,0,1,0,2,1.87,1.87,0,0,1-.73.73,2,2,0,0,1-2,0,1.87,1.87,0,0,1-.73-.73,2,2,0,0,1,0-2,1.84,1.84,0,0,1,.74-.73A2,2,0,0,1,107,34.37Zm0,.39a1.62,1.62,0,0,0-.79.2,1.49,1.49,0,0,0-.59.59,1.6,1.6,0,0,0,0,1.6,1.51,1.51,0,0,0,.59.59,1.59,1.59,0,0,0,1.59,0,1.52,1.52,0,0,0,.59-.59,1.6,1.6,0,0,0,0-1.6,1.48,1.48,0,0,0-.59-.59A1.63,1.63,0,0,0,107,34.76Zm-.9,2.66V35.31h1.1a.83.83,0,0,1,.33.08.53.53,0,0,1,.2.2.59.59,0,0,1,.08.3.56.56,0,0,1-.15.39.68.68,0,0,1-.42.2.53.53,0,0,1,.15.08,1.06,1.06,0,0,1,.14.16l.16.26.25.43h-.53l-.18-.34a1.43,1.43,0,0,0-.3-.43.47.47,0,0,0-.3-.09h-.11v.87Zm.43-1.2h.17a2.11,2.11,0,0,0,.46,0,.27.27,0,0,0,.19-.26.26.26,0,0,0-.05-.16.28.28,0,0,0-.14-.1,2,2,0,0,0-.46,0h-.17Z"/></g></g></svg>