<svg xmlns="http://www.w3.org/2000/svg" viewBox="0 0 112.26 22.95"><title>smartsuite logo</title><g id="Layer_2" data-name="Layer 2"><g id="Layer_1-2" data-name="Layer 1"><path d="M0,18.64a4.17,4.17,0,0,1,.62-2.23,4.44,4.44,0,0,1,1.8-1.62c.09,0,.16,0,.2.09a.29.29,0,0,1,0,.27,2.68,2.68,0,0,0-1.28,2.57,3.88,3.88,0,0,0,.39,1.73,4.05,4.05,0,0,0,1.12,1.39,5.73,5.73,0,0,0,1.78.94A7.47,7.47,0,0,0,7,22.13a7,7,0,0,0,4.79-1.39,4.42,4.42,0,0,0,1.55-3.42A7.32,7.32,0,0,0,13,14.86a11.62,11.62,0,0,0-1-2.08,20.72,20.72,0,0,0-1.27-1.87Q10,10,9.46,9.12a10.63,10.63,0,0,1-1-1.85,5.52,5.52,0,0,1-.39-2.1,4.82,4.82,0,0,1,.43-2A5.26,5.26,0,0,1,11.35.41,5.45,5.45,0,0,1,13.47,0,3.68,3.68,0,0,1,16,.82a2.43,2.43,0,0,1,.93,1.85A2.77,2.77,0,0,1,16.54,4a11.55,11.55,0,0,1-.78,1.25.18.18,0,0,1-.23,0A.36.36,0,0,1,15.43,5a2.42,2.42,0,0,0,.46-1.57A2.2,2.2,0,0,0,15,1.62,3.73,3.73,0,0,0,12.58.89a3.51,3.51,0,0,0-2.48.87A2.86,2.86,0,0,0,9.16,4a5,5,0,0,0,.41,2,13.22,13.22,0,0,0,1,1.89q.61.94,1.3,1.89t1.3,2a12.59,12.59,0,0,1,1,2.14,7.08,7.08,0,0,1,.41,2.44A5.73,5.73,0,0,1,14,19a6.66,6.66,0,0,1-1.75,2.12,8,8,0,0,1-2.6,1.37A10.31,10.31,0,0,1,6.45,23a8,8,0,0,1-4.79-1.21A3.69,3.69,0,0,1,0,18.64Z"/><path d="M28,15.47q0-.75-.53-.75a1.91,1.91,0,0,0-1.18.53A7.81,7.81,0,0,0,25,16.79a17.89,17.89,0,0,0-1.39,2.44,32.43,32.43,0,0,0-1.34,3.26.6.6,0,0,1-.37.34,1.54,1.54,0,0,1-.59.12q-.43,0-.32-.32.21-.64.59-1.6t.71-2q.34-1,.59-1.91a5.56,5.56,0,0,0,.25-1.39q0-1-.61-1-.93,0-2.35,2a22.8,22.8,0,0,0-2.71,5.74.6.6,0,0,1-.32.34,1.18,1.18,0,0,1-.53.12.5.5,0,0,1-.29-.07c-.07,0-.08-.13,0-.25q.28-.78.61-1.73L17.5,19q.32-1,.59-1.89t.45-1.75q.18-.64-.18-.64a1.07,1.07,0,0,0-.68.39,8,8,0,0,0-.78.93.16.16,0,0,1-.21,0,.13.13,0,0,1,0-.2,9.4,9.4,0,0,1,1.19-1.37,2,2,0,0,1,1.34-.62.55.55,0,0,1,.59.36,1.58,1.58,0,0,1,0,.86q-.18.78-.34,1.44A12.28,12.28,0,0,1,19,17.82a11.39,11.39,0,0,1,2-2.89,3.24,3.24,0,0,1,2.23-1.1.86.86,0,0,1,.69.32,1.35,1.35,0,0,1,.27.89,8,8,0,0,1-.14,1.5,9.9,9.9,0,0,1-.43,1.53A11.18,11.18,0,0,1,26,14.93a3.7,3.7,0,0,1,2.44-1.1.81.81,0,0,1,.64.29,1.1,1.1,0,0,1,.25.75,4.3,4.3,0,0,1-.27,1.41q-.27.77-.59,1.59t-.59,1.62A4.8,4.8,0,0,0,27.62,21q0,.89.53.89t1.57-1.18s.1,0,.16,0a.21.21,0,0,1,0,.25,7.18,7.18,0,0,1-.53.62q-.32.34-.66.64a3.31,3.31,0,0,1-.73.5,1.67,1.67,0,0,1-.75.2q-.82,0-.82-1.35a6.27,6.27,0,0,1,.25-1.73q.25-.87.55-1.67t.55-1.51A3.8,3.8,0,0,0,28,15.47Z"/><path d="M39.67,20.71s.11,0,.18,0a.18.18,0,0,1,.07.21,6.32,6.32,0,0,1-1.48,1.53,2.34,2.34,0,0,1-1.23.5.59.59,0,0,1-.52-.32,2.05,2.05,0,0,1-.25-.87,5.63,5.63,0,0,1,0-1.25,9.8,9.8,0,0,1,.3-1.44,16,16,0,0,1-2,2.58A4.29,4.29,0,0,1,32.68,23a1.31,1.31,0,0,1-1.09-.62,3.37,3.37,0,0,1-.45-1.94,6,6,0,0,1,.48-2.33,7.68,7.68,0,0,1,1.3-2.1,6.61,6.61,0,0,1,1.89-1.51,4.71,4.71,0,0,1,2.25-.57,3.79,3.79,0,0,1,1.1.14,2.9,2.9,0,0,1,.86.43,2.42,2.42,0,0,1,.59-.34,1.78,1.78,0,0,1,.69-.16c.12,0,.15.06.11.18A11.1,11.1,0,0,0,39,16.32a14.21,14.21,0,0,0-.91,2.35,12.09,12.09,0,0,0-.41,2,2,2,0,0,0,.12,1.19q.18.25.64,0A4.36,4.36,0,0,0,39.67,20.71Zm-6.2,1a1.76,1.76,0,0,0,1-.55,10.07,10.07,0,0,0,1.3-1.44,20.49,20.49,0,0,0,1.34-2,21.54,21.54,0,0,0,1.16-2.26,1.3,1.3,0,0,0-.66-.75,2.43,2.43,0,0,0-1.19-.29,2.86,2.86,0,0,0-1.48.41A4.13,4.13,0,0,0,33.71,16a6,6,0,0,0-.86,1.73,7.2,7.2,0,0,0-.32,2.21,2.82,2.82,0,0,0,.27,1.3Q33.07,21.74,33.46,21.74Z"/><path d="M44.83,14.83a8.55,8.55,0,0,1-.11,1.25q-.11.71-.29,1.43A9.86,9.86,0,0,1,46,14.81a2.46,2.46,0,0,1,1.85-1,1.26,1.26,0,0,1,.71.21.69.69,0,0,1,.32.61,1.79,1.79,0,0,1-.21.73,2.42,2.42,0,0,1-.43.66q-.21.14-.21-.11,0-.61-.82-.61Q46,15.32,45,17.19a25.32,25.32,0,0,0-1.89,5.19.59.59,0,0,1-.48.46,2.85,2.85,0,0,1-.69.11q-.39,0-.18-.39.32-.75.61-1.62t.55-1.76q.27-.89.45-1.75t.29-1.57q.14-1.07-.36-1.07a1.08,1.08,0,0,0-.66.32,4.68,4.68,0,0,0-.69.75.21.21,0,0,1-.25,0,.17.17,0,0,1,0-.23,8.36,8.36,0,0,1,1.19-1.23A2,2,0,0,1,44,13.83Q44.83,13.83,44.83,14.83Z"/><path d="M54.81,14q.18.07.14.21t-.32.18l-1.27.07q-.69,0-1.41.11A34.35,34.35,0,0,0,50.78,18a10.37,10.37,0,0,0-.46,2.71q0,1.21.93,1.21t2-1.64a.16.16,0,0,1,.21,0,.26.26,0,0,1,.07.27,6.93,6.93,0,0,1-.73.94,6.22,6.22,0,0,1-.84.77,5.38,5.38,0,0,1-.82.52,1.53,1.53,0,0,1-.64.2,1.38,1.38,0,0,1-1.16-.48A1.83,1.83,0,0,1,49,21.31a11.39,11.39,0,0,1,.5-3,37.28,37.28,0,0,1,1.25-3.67l-.89.14L49,15q-.18,0-.09-.18a1,1,0,0,1,.32-.28,3.45,3.45,0,0,1,.55-.27,1.67,1.67,0,0,1,.61-.12l.3,0H51Q51.5,13,52,12t1-1.87a2.49,2.49,0,0,1,.48-.37A1.71,1.71,0,0,1,54,9.5a1.25,1.25,0,0,1,.39,0c.09,0,.13.05.11.12a23.36,23.36,0,0,0-1.19,2.07q-.59,1.14-1.12,2.35l1.28,0Z"/><path d="M55.34,18.64A4.17,4.17,0,0,1,56,16.41a4.44,4.44,0,0,1,1.8-1.62c.09,0,.16,0,.2.09a.29.29,0,0,1,0,.27,2.68,2.68,0,0,0-1.28,2.57,3.88,3.88,0,0,0,.39,1.73,4.05,4.05,0,0,0,1.12,1.39,5.73,5.73,0,0,0,1.78.94,7.47,7.47,0,0,0,2.41.36,7,7,0,0,0,4.79-1.39,4.42,4.42,0,0,0,1.55-3.42,7.32,7.32,0,0,0-.39-2.46,11.62,11.62,0,0,0-1-2.08,20.72,20.72,0,0,0-1.27-1.87q-.68-.89-1.27-1.78a10.63,10.63,0,0,1-1-1.85,5.52,5.52,0,0,1-.39-2.1,4.82,4.82,0,0,1,.43-2A5.26,5.26,0,0,1,66.7.41,5.45,5.45,0,0,1,68.82,0a3.68,3.68,0,0,1,2.53.82,2.43,2.43,0,0,1,.93,1.85A2.77,2.77,0,0,1,71.88,4a11.55,11.55,0,0,1-.78,1.25.18.18,0,0,1-.23,0A.36.36,0,0,1,70.78,5a2.42,2.42,0,0,0,.46-1.57,2.2,2.2,0,0,0-.91-1.76A3.73,3.73,0,0,0,67.92.89a3.51,3.51,0,0,0-2.48.87A2.86,2.86,0,0,0,64.5,4a5,5,0,0,0,.41,2,13.22,13.22,0,0,0,1,1.89q.61.94,1.3,1.89t1.3,2a12.59,12.59,0,0,1,1,2.14A7.08,7.08,0,0,1,70,16.29,5.73,5.73,0,0,1,69.31,19a6.66,6.66,0,0,1-1.75,2.12A8,8,0,0,1,65,22.47,10.31,10.31,0,0,1,61.8,23,8,8,0,0,1,57,21.74,3.69,3.69,0,0,1,55.34,18.64Z"/><path d="M73,23a1,1,0,0,1-.82-.45,1.79,1.79,0,0,1-.36-1.16A6.65,6.65,0,0,1,72,20q.16-.77.43-1.62a14.35,14.35,0,0,1,.66-1.71,11.53,11.53,0,0,1,.89-1.6l-.82.62a8.36,8.36,0,0,0-.71.62q-.11.07-.18-.05a.28.28,0,0,1,0-.23q.25-.25.64-.57t.84-.64q.45-.32.93-.62t.91-.52a.21.21,0,0,1,.23.07.27.27,0,0,1,.05.25A12.89,12.89,0,0,0,74,17.23a9.19,9.19,0,0,0-.69,3.37q0,1,.61,1A2,2,0,0,0,75,21a10.83,10.83,0,0,0,1.44-1.64q.75-1,1.51-2.3t1.41-2.6a1,1,0,0,1,.41-.45,1.19,1.19,0,0,1,.66-.2q.46,0,.32.29-.5.93-.89,1.73a11.56,11.56,0,0,0-.64,1.59,10.43,10.43,0,0,0-.37,1.6,11.84,11.84,0,0,0-.12,1.78q0,1.14.64,1.14a1,1,0,0,0,.64-.3,4.43,4.43,0,0,0,.71-.8.18.18,0,0,1,.21,0q.11.07,0,.25a6.1,6.1,0,0,1-1.16,1.3,2,2,0,0,1-1.27.55.93.93,0,0,1-.78-.46,2.16,2.16,0,0,1-.32-1.25,11.57,11.57,0,0,1,.68-3.81,17.1,17.1,0,0,1-1.43,2.33,16.52,16.52,0,0,1-1.44,1.73A7.07,7.07,0,0,1,74,22.58,2.05,2.05,0,0,1,73,23Z"/><path d="M83.18,16.32c-.07,0-.14,0-.2-.05A.19.19,0,0,1,83,16a12.9,12.9,0,0,1,1.35-1.14A11.29,11.29,0,0,1,86,13.83q.29,0,.29.32-.46.82-.91,1.78t-.78,1.91a18.24,18.24,0,0,0-.55,1.82,6.31,6.31,0,0,0-.21,1.44q0,.75.5.75a1.14,1.14,0,0,0,.77-.34A11.15,11.15,0,0,0,86,20.6s.11,0,.18,0a.2.2,0,0,1,0,.25,12,12,0,0,1-1.37,1.43,2.15,2.15,0,0,1-1.37.64q-.93,0-.93-1.18a7,7,0,0,1,.23-1.62,17.38,17.38,0,0,1,.59-1.91,18.38,18.38,0,0,1,.8-1.85A14.28,14.28,0,0,1,85,14.86l-1,.73A8.86,8.86,0,0,0,83.18,16.32Zm3.21-4c-.07.07-.14.08-.2,0a.49.49,0,0,1-.12-.25,1.75,1.75,0,0,1,0-.37.58.58,0,0,1,.11-.36,16.92,16.92,0,0,1,2.6-2.74.22.22,0,0,1,.21.05c.07.06.08.11,0,.16a10.17,10.17,0,0,0-1.43,1.62A17.29,17.29,0,0,0,86.39,12.3Z"/><path d="M94,14q.18.07.14.21t-.32.18l-1.27.07q-.69,0-1.41.11A34.35,34.35,0,0,0,89.95,18a10.37,10.37,0,0,0-.46,2.71q0,1.21.93,1.21t2-1.64a.16.16,0,0,1,.21,0,.26.26,0,0,1,.07.27,6.93,6.93,0,0,1-.73.94,6.22,6.22,0,0,1-.84.77,5.38,5.38,0,0,1-.82.52,1.53,1.53,0,0,1-.64.2,1.38,1.38,0,0,1-1.16-.48,1.83,1.83,0,0,1-.37-1.16,11.39,11.39,0,0,1,.5-3,37.28,37.28,0,0,1,1.25-3.67l-.89.14L88.2,15q-.18,0-.09-.18a1,1,0,0,1,.32-.28,3.45,3.45,0,0,1,.55-.27,1.67,1.67,0,0,1,.61-.12l.3,0h.27q.5-1.1,1-2.12t1-1.87a2.49,2.49,0,0,1,.48-.37,1.71,1.71,0,0,1,.52-.21,1.25,1.25,0,0,1,.39,0c.09,0,.13.05.11.12a23.36,23.36,0,0,0-1.19,2.07q-.59,1.14-1.12,2.35l1.28,0Z"/><path d="M100.07,15.4a1.35,1.35,0,0,1-.39.93,3.65,3.65,0,0,1-1.07.77,11.28,11.28,0,0,1-1.55.62q-.87.29-1.84.53,0,.39-.05.78c0,.26,0,.55,0,.86a2.7,2.7,0,0,0,.39,1.5,1.24,1.24,0,0,0,1.1.61A2.65,2.65,0,0,0,98,21.63a4.07,4.07,0,0,0,1.12-1q.14-.07.21,0a.24.24,0,0,1,0,.25,5.73,5.73,0,0,1-1.51,1.41A3.46,3.46,0,0,1,95.9,23a2,2,0,0,1-1.51-.61,2.46,2.46,0,0,1-.59-1.78,7.25,7.25,0,0,1,.39-2.26,9.53,9.53,0,0,1,1-2.19,6.38,6.38,0,0,1,1.48-1.64,2.86,2.86,0,0,1,1.76-.64,1.61,1.61,0,0,1,1.6,1.57Zm-2.35-.64a1.92,1.92,0,0,0-1.46.71,4.6,4.6,0,0,0-.93,2.24A7.06,7.06,0,0,0,97.84,17q.8-.48.8-1.09a1.3,1.3,0,0,0-.25-.82A.81.81,0,0,0,97.72,14.75Z"/><path d="M108.4,8.4a3.83,3.83,0,0,1,2.77,1.06,3.68,3.68,0,0,1,1.1,2.77,5.75,5.75,0,0,1-.46,2.27,6.11,6.11,0,0,1-1.26,1.89,5.66,5.66,0,0,1-1.89,1.28,6.08,6.08,0,0,1-2.37.46A3.59,3.59,0,0,1,103.4,17a4.29,4.29,0,0,1-.94-2.89A5.37,5.37,0,0,1,102.9,12,6,6,0,0,1,106,8.88,5.83,5.83,0,0,1,108.4,8.4Zm-1.51,9.17a4,4,0,0,0,1.75-.4,5,5,0,0,0,2.49-2.59,4.68,4.68,0,0,0,.38-1.87,3.85,3.85,0,0,0-.92-2.71A3.35,3.35,0,0,0,108,9a4.81,4.81,0,0,0-2,.4,4.57,4.57,0,0,0-1.53,1.1,5,5,0,0,0-1,1.57,5,5,0,0,0-.34,1.83,4,4,0,0,0,.84,2.63A3.49,3.49,0,0,0,106.88,17.57Zm2.47-5.7a1.52,1.52,0,0,1-.52,1.16,2.69,2.69,0,0,1-1.36.64,5.48,5.48,0,0,0,.44,1.47.77.77,0,0,0,.72.44.88.88,0,0,0,.48-.2q.28-.08.2.28a2.57,2.57,0,0,1-.5.38,1.25,1.25,0,0,1-.66.18,1,1,0,0,1-.94-.72,14,14,0,0,1-.5-1.87c0-.11,0-.17.08-.2a.76.76,0,0,1,.2-.14.78.78,0,0,0,.2-.14.21.21,0,0,1,.18,0,.49.49,0,0,0,.18,0,.73.73,0,0,0,.64-.16,1,1,0,0,0,.44-.92.84.84,0,0,0-.42-.8,2.2,2.2,0,0,0-1.1-.24q-.2.4-.44,1t-.48,1.2q-.24.64-.44,1.32t-.32,1.28a.67.67,0,0,1-.32.28,1,1,0,0,1-.44.12q-.12,0-.12-.16.32-1.2.78-2.43a14,14,0,0,1,1-2.19,1.07,1.07,0,0,1,.4-.36l-.86.16a3.84,3.84,0,0,0-.86.28c-.11,0-.12-.07,0-.2a.65.65,0,0,1,.32-.28,7.92,7.92,0,0,1,1.06-.38,4.34,4.34,0,0,1,1.22-.18,1.9,1.9,0,0,1,1.32.4A1.29,1.29,0,0,1,109.36,11.87Z"/></g></g></svg>